G04*
G04 #@! TF.GenerationSoftware,Altium Limited,Altium Designer,24.1.2 (44)*
G04*
G04 Layer_Physical_Order=2*
G04 Layer_Color=16711680*
%FSLAX44Y44*%
%MOMM*%
G71*
G04*
G04 #@! TF.SameCoordinates,DA2C95F4-03E7-481E-B0F5-842642FF9007*
G04*
G04*
G04 #@! TF.FilePolarity,Positive*
G04*
G01*
G75*
%ADD12C,0.2540*%
%ADD19C,3.1000*%
%ADD20R,1.3700X1.3700*%
%ADD21C,1.3700*%
%ADD22C,1.6510*%
%ADD23C,1.5080*%
%ADD24R,1.5080X1.5080*%
D12*
X296418Y568960D02*
X323850D01*
X293878Y566420D02*
X296418Y568960D01*
X266700Y566420D02*
X293878D01*
X193040Y567690D02*
X218440D01*
X190500Y565150D02*
X193040Y567690D01*
X165100Y565150D02*
X190500D01*
X243078Y566420D02*
X266700D01*
X241808Y567690D02*
X243078Y566420D01*
X218440Y567690D02*
X241808D01*
X296418Y543560D02*
X323850D01*
X293878Y541020D02*
X296418Y543560D01*
X266700Y541020D02*
X293878D01*
X193040Y542290D02*
X218440D01*
X190500Y539750D02*
X193040Y542290D01*
X165100Y539750D02*
X190500D01*
X243078Y541020D02*
X266700D01*
X241808Y542290D02*
X243078Y541020D01*
X218440Y542290D02*
X241808D01*
X296418Y518160D02*
X323850D01*
X293878Y515620D02*
X296418Y518160D01*
X266700Y515620D02*
X293878D01*
X193040Y516890D02*
X218440D01*
X190500Y514350D02*
X193040Y516890D01*
X165100Y514350D02*
X190500D01*
X243078Y515620D02*
X266700D01*
X241808Y516890D02*
X243078Y515620D01*
X218440Y516890D02*
X241808D01*
X296418Y492760D02*
X323850D01*
X293878Y490220D02*
X296418Y492760D01*
X266700Y490220D02*
X293878D01*
X193040Y491490D02*
X218440D01*
X190500Y488950D02*
X193040Y491490D01*
X165100Y488950D02*
X190500D01*
X243078Y490220D02*
X266700D01*
X241808Y491490D02*
X243078Y490220D01*
X218440Y491490D02*
X241808D01*
X296418Y467360D02*
X323850D01*
X293878Y464820D02*
X296418Y467360D01*
X266700Y464820D02*
X293878D01*
X193040Y466090D02*
X218440D01*
X190500Y463550D02*
X193040Y466090D01*
X165100Y463550D02*
X190500D01*
X243078Y464820D02*
X266700D01*
X241808Y466090D02*
X243078Y464820D01*
X218440Y466090D02*
X241808D01*
X296418Y441960D02*
X323850D01*
X293878Y439420D02*
X296418Y441960D01*
X266700Y439420D02*
X293878D01*
X193040Y440690D02*
X218440D01*
X190500Y438150D02*
X193040Y440690D01*
X165100Y438150D02*
X190500D01*
X243078Y439420D02*
X266700D01*
X241808Y440690D02*
X243078Y439420D01*
X218440Y440690D02*
X241808D01*
X296418Y416560D02*
X323850D01*
X293878Y414020D02*
X296418Y416560D01*
X266700Y414020D02*
X293878D01*
X193040Y415290D02*
X218440D01*
X190500Y412750D02*
X193040Y415290D01*
X165100Y412750D02*
X190500D01*
X243078Y414020D02*
X266700D01*
X241808Y415290D02*
X243078Y414020D01*
X218440Y415290D02*
X241808D01*
X296418Y391160D02*
X323850D01*
X293878Y388620D02*
X296418Y391160D01*
X266700Y388620D02*
X293878D01*
X193040Y389890D02*
X218440D01*
X190500Y387350D02*
X193040Y389890D01*
X165100Y387350D02*
X190500D01*
X243078Y388620D02*
X266700D01*
X241808Y389890D02*
X243078Y388620D01*
X218440Y389890D02*
X241808D01*
X296418Y365760D02*
X323850D01*
X293878Y363220D02*
X296418Y365760D01*
X266700Y363220D02*
X293878D01*
X193040Y364490D02*
X218440D01*
X190500Y361950D02*
X193040Y364490D01*
X165100Y361950D02*
X190500D01*
X243078Y363220D02*
X266700D01*
X241808Y364490D02*
X243078Y363220D01*
X218440Y364490D02*
X241808D01*
X296418Y340360D02*
X323850D01*
X293878Y337820D02*
X296418Y340360D01*
X266700Y337820D02*
X293878D01*
X193040Y339090D02*
X218440D01*
X190500Y336550D02*
X193040Y339090D01*
X165100Y336550D02*
X190500D01*
X243078Y337820D02*
X266700D01*
X241808Y339090D02*
X243078Y337820D01*
X218440Y339090D02*
X241808D01*
X296418Y314960D02*
X323850D01*
X293878Y312420D02*
X296418Y314960D01*
X266700Y312420D02*
X293878D01*
X193040Y313690D02*
X218440D01*
X190500Y311150D02*
X193040Y313690D01*
X165100Y311150D02*
X190500D01*
X243078Y312420D02*
X266700D01*
X241808Y313690D02*
X243078Y312420D01*
X218440Y313690D02*
X241808D01*
X296418Y289560D02*
X323850D01*
X293878Y287020D02*
X296418Y289560D01*
X266700Y287020D02*
X293878D01*
X193040Y288290D02*
X218440D01*
X190500Y285750D02*
X193040Y288290D01*
X165100Y285750D02*
X190500D01*
X243078Y287020D02*
X266700D01*
X241808Y288290D02*
X243078Y287020D01*
X218440Y288290D02*
X241808D01*
X296418Y264160D02*
X323850D01*
X293878Y261620D02*
X296418Y264160D01*
X266700Y261620D02*
X293878D01*
X193040Y262890D02*
X218440D01*
X190500Y260350D02*
X193040Y262890D01*
X165100Y260350D02*
X190500D01*
X243078Y261620D02*
X266700D01*
X241808Y262890D02*
X243078Y261620D01*
X218440Y262890D02*
X241808D01*
X296418Y238760D02*
X323850D01*
X293878Y236220D02*
X296418Y238760D01*
X266700Y236220D02*
X293878D01*
X193040Y237490D02*
X218440D01*
X190500Y234950D02*
X193040Y237490D01*
X165100Y234950D02*
X190500D01*
X243078Y236220D02*
X266700D01*
X241808Y237490D02*
X243078Y236220D01*
X218440Y237490D02*
X241808D01*
X296418Y213360D02*
X323850D01*
X293878Y210820D02*
X296418Y213360D01*
X266700Y210820D02*
X293878D01*
X193040Y212090D02*
X218440D01*
X190500Y209550D02*
X193040Y212090D01*
X165100Y209550D02*
X190500D01*
X243078Y210820D02*
X266700D01*
X241808Y212090D02*
X243078Y210820D01*
X218440Y212090D02*
X241808D01*
X508508Y210820D02*
X538480D01*
X505968Y213360D02*
X508508Y210820D01*
X476250Y213360D02*
X505968D01*
X564388Y209550D02*
X589280D01*
X563118Y210820D02*
X564388Y209550D01*
X538480Y210820D02*
X563118D01*
X589280Y209550D02*
X636270D01*
X508508Y236220D02*
X538480D01*
X505968Y238760D02*
X508508Y236220D01*
X476250Y238760D02*
X505968D01*
X564388Y234950D02*
X589280D01*
X563118Y236220D02*
X564388Y234950D01*
X538480Y236220D02*
X563118D01*
X589280Y234950D02*
X636270D01*
X508508Y261620D02*
X538480D01*
X505968Y264160D02*
X508508Y261620D01*
X476250Y264160D02*
X505968D01*
X564388Y260350D02*
X589280D01*
X563118Y261620D02*
X564388Y260350D01*
X538480Y261620D02*
X563118D01*
X589280Y260350D02*
X636270D01*
X508508Y287020D02*
X538480D01*
X505968Y289560D02*
X508508Y287020D01*
X476250Y289560D02*
X505968D01*
X564388Y285750D02*
X589280D01*
X563118Y287020D02*
X564388Y285750D01*
X538480Y287020D02*
X563118D01*
X589280Y285750D02*
X636270D01*
X508508Y312420D02*
X538480D01*
X505968Y314960D02*
X508508Y312420D01*
X476250Y314960D02*
X505968D01*
X564388Y311150D02*
X589280D01*
X563118Y312420D02*
X564388Y311150D01*
X538480Y312420D02*
X563118D01*
X589280Y311150D02*
X636270D01*
X508508Y337820D02*
X538480D01*
X505968Y340360D02*
X508508Y337820D01*
X476250Y340360D02*
X505968D01*
X564388Y336550D02*
X589280D01*
X563118Y337820D02*
X564388Y336550D01*
X538480Y337820D02*
X563118D01*
X589280Y336550D02*
X636270D01*
X508508Y363220D02*
X538480D01*
X505968Y365760D02*
X508508Y363220D01*
X476250Y365760D02*
X505968D01*
X564388Y361950D02*
X589280D01*
X563118Y363220D02*
X564388Y361950D01*
X538480Y363220D02*
X563118D01*
X589280Y361950D02*
X636270D01*
X508508Y388620D02*
X538480D01*
X505968Y391160D02*
X508508Y388620D01*
X476250Y391160D02*
X505968D01*
X564388Y387350D02*
X589280D01*
X563118Y388620D02*
X564388Y387350D01*
X538480Y388620D02*
X563118D01*
X589280Y387350D02*
X636270D01*
X508508Y414020D02*
X538480D01*
X505968Y416560D02*
X508508Y414020D01*
X476250Y416560D02*
X505968D01*
X564388Y412750D02*
X589280D01*
X563118Y414020D02*
X564388Y412750D01*
X538480Y414020D02*
X563118D01*
X589280Y412750D02*
X636270D01*
X508508Y439420D02*
X538480D01*
X505968Y441960D02*
X508508Y439420D01*
X476250Y441960D02*
X505968D01*
X564388Y438150D02*
X589280D01*
X563118Y439420D02*
X564388Y438150D01*
X538480Y439420D02*
X563118D01*
X589280Y438150D02*
X636270D01*
X508508Y464820D02*
X538480D01*
X505968Y467360D02*
X508508Y464820D01*
X476250Y467360D02*
X505968D01*
X564388Y463550D02*
X589280D01*
X563118Y464820D02*
X564388Y463550D01*
X538480Y464820D02*
X563118D01*
X589280Y463550D02*
X636270D01*
X508508Y490220D02*
X538480D01*
X505968Y492760D02*
X508508Y490220D01*
X476250Y492760D02*
X505968D01*
X564388Y488950D02*
X589280D01*
X563118Y490220D02*
X564388Y488950D01*
X538480Y490220D02*
X563118D01*
X589280Y488950D02*
X636270D01*
X508508Y515620D02*
X538480D01*
X505968Y518160D02*
X508508Y515620D01*
X476250Y518160D02*
X505968D01*
X564388Y514350D02*
X589280D01*
X563118Y515620D02*
X564388Y514350D01*
X538480Y515620D02*
X563118D01*
X589280Y514350D02*
X636270D01*
X508508Y541020D02*
X538480D01*
X505968Y543560D02*
X508508Y541020D01*
X476250Y543560D02*
X505968D01*
X564388Y539750D02*
X589280D01*
X563118Y541020D02*
X564388Y539750D01*
X538480Y541020D02*
X563118D01*
X589280Y539750D02*
X636270D01*
X508508Y566420D02*
X538480D01*
X505968Y568960D02*
X508508Y566420D01*
X476250Y568960D02*
X505968D01*
X564388Y565150D02*
X589280D01*
X563118Y566420D02*
X564388Y565150D01*
X538480Y566420D02*
X563118D01*
X589280Y565150D02*
X636270D01*
D19*
X580000Y150000D02*
D03*
X200000D02*
D03*
X580000Y650000D02*
D03*
X200000D02*
D03*
D20*
X165100Y565150D02*
D03*
X218440Y567690D02*
D03*
X266700Y566420D02*
D03*
X636270Y565150D02*
D03*
X589280D02*
D03*
X538480Y566420D02*
D03*
D21*
X165100Y539750D02*
D03*
Y514350D02*
D03*
Y488950D02*
D03*
Y463550D02*
D03*
Y438150D02*
D03*
Y412750D02*
D03*
Y387350D02*
D03*
Y361950D02*
D03*
Y336550D02*
D03*
Y311150D02*
D03*
Y285750D02*
D03*
Y260350D02*
D03*
Y234950D02*
D03*
Y209550D02*
D03*
X218440Y542290D02*
D03*
Y516890D02*
D03*
Y491490D02*
D03*
Y466090D02*
D03*
Y440690D02*
D03*
Y415290D02*
D03*
Y389890D02*
D03*
Y364490D02*
D03*
Y339090D02*
D03*
Y313690D02*
D03*
Y288290D02*
D03*
Y262890D02*
D03*
Y237490D02*
D03*
Y212090D02*
D03*
X266700Y541020D02*
D03*
Y515620D02*
D03*
Y490220D02*
D03*
Y464820D02*
D03*
Y439420D02*
D03*
Y414020D02*
D03*
Y388620D02*
D03*
Y363220D02*
D03*
Y337820D02*
D03*
Y312420D02*
D03*
Y287020D02*
D03*
Y261620D02*
D03*
Y236220D02*
D03*
Y210820D02*
D03*
X636270Y539750D02*
D03*
Y514350D02*
D03*
Y488950D02*
D03*
Y463550D02*
D03*
Y438150D02*
D03*
Y412750D02*
D03*
Y387350D02*
D03*
Y361950D02*
D03*
Y336550D02*
D03*
Y311150D02*
D03*
Y285750D02*
D03*
Y260350D02*
D03*
Y234950D02*
D03*
Y209550D02*
D03*
X589280Y539750D02*
D03*
Y514350D02*
D03*
Y488950D02*
D03*
Y463550D02*
D03*
Y438150D02*
D03*
Y412750D02*
D03*
Y387350D02*
D03*
Y361950D02*
D03*
Y336550D02*
D03*
Y311150D02*
D03*
Y285750D02*
D03*
Y260350D02*
D03*
Y234950D02*
D03*
Y209550D02*
D03*
X538480Y541020D02*
D03*
Y515620D02*
D03*
Y490220D02*
D03*
Y464820D02*
D03*
Y439420D02*
D03*
Y414020D02*
D03*
Y388620D02*
D03*
Y363220D02*
D03*
Y337820D02*
D03*
Y312420D02*
D03*
Y287020D02*
D03*
Y261620D02*
D03*
Y236220D02*
D03*
Y210820D02*
D03*
D22*
X476250Y594360D02*
D03*
X323850D02*
D03*
X476250Y187960D02*
D03*
X323850D02*
D03*
D23*
X476250Y568960D02*
D03*
Y543560D02*
D03*
Y518160D02*
D03*
Y492760D02*
D03*
Y467360D02*
D03*
Y441960D02*
D03*
Y416560D02*
D03*
Y391160D02*
D03*
Y365760D02*
D03*
Y340360D02*
D03*
Y314960D02*
D03*
Y289560D02*
D03*
Y264160D02*
D03*
Y238760D02*
D03*
Y213360D02*
D03*
X323850D02*
D03*
Y238760D02*
D03*
Y264160D02*
D03*
Y289560D02*
D03*
Y314960D02*
D03*
Y340360D02*
D03*
Y365760D02*
D03*
Y391160D02*
D03*
Y416560D02*
D03*
Y441960D02*
D03*
Y467360D02*
D03*
Y492760D02*
D03*
Y518160D02*
D03*
Y543560D02*
D03*
D24*
Y568960D02*
D03*
M02*
