M48
;Layer_Color=9474304
;FILE_FORMAT=4:4
METRIC,LZ
;TYPE=PLATED
T01F00S00C1.0000
T02F00S00C1.0200
T03F00S00C3.1000
;TYPE=NON_PLATED
T04F00S00C1.6510
%
T01
X0032385Y0021336
Y0023876
Y0026416
Y0028956
Y0031496
Y0034036
Y0036576
Y0039116
X0047625
Y0036576
Y0034036
Y0031496
Y0028956
Y0026416
Y0023876
Y0021336
Y0041656
Y0044196
Y0046736
Y0049276
Y0051816
Y0054356
Y0056896
X0032385
Y0054356
Y0051816
Y0049276
Y0046736
Y0044196
Y0041656
T02
X001651Y0020955
Y0023495
Y0026035
Y0028575
Y0031115
Y0033655
Y0036195
Y0038735
X0021844Y0038989
Y0036449
Y0033909
Y0031369
Y0028829
Y0026289
Y0023749
Y0021209
X002667Y0021082
Y0023622
Y0026162
Y0028702
Y0031242
Y0033782
Y0036322
Y0038862
X0053848
Y0036322
Y0033782
Y0031242
Y0028702
Y0026162
Y0023622
Y0021082
X0058928Y0020955
Y0023495
Y0026035
Y0028575
Y0031115
Y0033655
Y0036195
Y0038735
X0063627
Y0036195
Y0033655
Y0031115
Y0028575
Y0026035
Y0023495
Y0020955
Y0041275
Y0043815
Y0046355
Y0048895
Y0051435
Y0053975
Y0056515
X0058928
Y0053975
Y0051435
Y0048895
Y0046355
Y0043815
Y0041275
X0053848Y0041402
Y0043942
Y0046482
Y0049022
Y0051562
Y0054102
Y0056642
X002667
Y0054102
Y0051562
Y0049022
Y0046482
Y0043942
Y0041402
X0021844Y0041529
Y0044069
Y0046609
Y0049149
Y0051689
Y0054229
Y0056769
X001651Y0056515
Y0053975
Y0051435
Y0048895
Y0046355
Y0043815
Y0041275
T03
X002Y0015
X0058
Y0065
X002
T04
X0032385Y0018796
X0047625
Y0059436
X0032385
M30
