G04*
G04 #@! TF.GenerationSoftware,Altium Limited,Altium Designer,24.1.2 (44)*
G04*
G04 Layer_Color=65535*
%FSLAX44Y44*%
%MOMM*%
G71*
G04*
G04 #@! TF.SameCoordinates,DA2C95F4-03E7-481E-B0F5-842642FF9007*
G04*
G04*
G04 #@! TF.FilePolarity,Positive*
G04*
G01*
G75*
%ADD10C,0.2000*%
%ADD11C,0.1270*%
%ADD12C,0.2540*%
G36*
X404958Y761074D02*
X407326D01*
Y760859D01*
X408402D01*
Y760644D01*
X409693D01*
Y760429D01*
X410770D01*
Y760213D01*
X411631D01*
Y759998D01*
X412492D01*
Y759783D01*
X413353D01*
Y759568D01*
X413998D01*
Y759352D01*
X414644D01*
Y759137D01*
X415290D01*
Y758922D01*
X415936D01*
Y758707D01*
X416581D01*
Y758491D01*
X417012D01*
Y758276D01*
X417658D01*
Y758061D01*
X418088D01*
Y757846D01*
X418519D01*
Y757630D01*
X419165D01*
Y757415D01*
X419595D01*
Y757200D01*
X420026D01*
Y756985D01*
X420456D01*
Y756769D01*
X420887D01*
Y756554D01*
X421317D01*
Y756339D01*
X421748D01*
Y756124D01*
X422178D01*
Y755908D01*
X422609D01*
Y755693D01*
X422824D01*
Y755478D01*
X423254D01*
Y755263D01*
X423685D01*
Y755047D01*
X423900D01*
Y754832D01*
X424331D01*
Y754617D01*
X424761D01*
Y754401D01*
X424976D01*
Y754186D01*
X425407D01*
Y753971D01*
X425622D01*
Y753756D01*
X426053D01*
Y753540D01*
X426268D01*
Y753325D01*
X426483D01*
Y753110D01*
X426914D01*
Y752895D01*
X427129D01*
Y752680D01*
X427560D01*
Y752464D01*
X427775D01*
Y752249D01*
X427990D01*
Y752034D01*
X428205D01*
Y751818D01*
X428420D01*
Y751603D01*
X428851D01*
Y751388D01*
X429066D01*
Y751173D01*
X429282D01*
Y750957D01*
X429497D01*
Y750742D01*
X429927D01*
Y750527D01*
X430143D01*
Y750312D01*
X430358D01*
Y750096D01*
X430573D01*
Y749881D01*
X430788D01*
Y749666D01*
X431004D01*
Y749451D01*
X431219D01*
Y749235D01*
X431434D01*
Y749020D01*
X431649D01*
Y748805D01*
X431865D01*
Y748590D01*
X432080D01*
Y748374D01*
X432295D01*
Y748159D01*
X432510D01*
Y747944D01*
X432726D01*
Y747729D01*
X432941D01*
Y747513D01*
X433156D01*
Y747298D01*
X433371D01*
Y747083D01*
X433587D01*
Y746868D01*
X433802D01*
Y746652D01*
X434017D01*
Y746437D01*
X434232D01*
Y746007D01*
X434448D01*
Y745791D01*
X434663D01*
Y745576D01*
X434878D01*
Y745361D01*
X435093D01*
Y744930D01*
X435309D01*
Y744715D01*
X435524D01*
Y744500D01*
X435739D01*
Y744285D01*
X435954D01*
Y743854D01*
X436170D01*
Y743639D01*
X436385D01*
Y743424D01*
X436600D01*
Y742993D01*
X436815D01*
Y742778D01*
X437031D01*
Y742347D01*
X437246D01*
Y742132D01*
X437461D01*
Y741702D01*
X437676D01*
Y741486D01*
X437892D01*
Y741056D01*
X438107D01*
Y740841D01*
X438322D01*
Y740410D01*
X438537D01*
Y739979D01*
X438753D01*
Y739764D01*
X438968D01*
Y739334D01*
X439183D01*
Y738903D01*
X439398D01*
Y738473D01*
X439614D01*
Y738042D01*
X439829D01*
Y737612D01*
X440044D01*
Y737396D01*
X440260D01*
Y736751D01*
X440475D01*
Y736320D01*
X440690D01*
Y735890D01*
X440905D01*
Y735459D01*
X441120D01*
Y734813D01*
X441336D01*
Y734383D01*
X441551D01*
Y733952D01*
X441766D01*
Y733307D01*
X441982D01*
Y732876D01*
X442197D01*
Y732015D01*
X442412D01*
Y731585D01*
X442627D01*
Y730939D01*
X442842D01*
Y730078D01*
X443058D01*
Y729432D01*
X443273D01*
Y728571D01*
X443488D01*
Y727710D01*
X443704D01*
Y726849D01*
X443919D01*
Y725557D01*
X444134D01*
Y724266D01*
X444349D01*
Y722759D01*
X444565D01*
Y719530D01*
X444780D01*
Y714149D01*
X444565D01*
Y711996D01*
X444349D01*
Y710920D01*
X444134D01*
Y709844D01*
X443919D01*
Y708768D01*
X443704D01*
Y708122D01*
X443488D01*
Y707046D01*
X443273D01*
Y706185D01*
X443058D01*
Y705539D01*
X442842D01*
Y704893D01*
X442627D01*
Y704247D01*
X442412D01*
Y703602D01*
X442197D01*
Y702956D01*
X441982D01*
Y702310D01*
X441766D01*
Y701880D01*
X441551D01*
Y701234D01*
X441336D01*
Y700803D01*
X441120D01*
Y700373D01*
X440905D01*
Y699727D01*
X440690D01*
Y699296D01*
X440475D01*
Y698866D01*
X440260D01*
Y698435D01*
X440044D01*
Y698005D01*
X439829D01*
Y697574D01*
X439614D01*
Y697144D01*
X439398D01*
Y696713D01*
X439183D01*
Y696283D01*
X438968D01*
Y696068D01*
X438753D01*
Y695637D01*
X438537D01*
Y695207D01*
X438322D01*
Y694991D01*
X438107D01*
Y694561D01*
X437892D01*
Y694130D01*
X437676D01*
Y693915D01*
X437461D01*
Y693700D01*
X437246D01*
Y693269D01*
X437031D01*
Y693054D01*
X436815D01*
Y692624D01*
X436600D01*
Y692408D01*
X436385D01*
Y691978D01*
X436170D01*
Y691762D01*
X435954D01*
Y691547D01*
X435739D01*
Y691117D01*
X435524D01*
Y690901D01*
X435309D01*
Y690686D01*
X435093D01*
Y690471D01*
X434878D01*
Y690256D01*
X434663D01*
Y689825D01*
X434448D01*
Y689610D01*
X434232D01*
Y689395D01*
X434017D01*
Y689180D01*
X433802D01*
Y688964D01*
X433587D01*
Y688749D01*
X433371D01*
Y688534D01*
X433156D01*
Y688103D01*
X432941D01*
Y687888D01*
X432726D01*
Y687673D01*
X432510D01*
Y687458D01*
X432295D01*
Y687242D01*
X432080D01*
Y687027D01*
X431865D01*
Y686812D01*
X431649D01*
Y686596D01*
X431434D01*
Y686381D01*
X431219D01*
Y686166D01*
X431004D01*
Y685951D01*
X430573D01*
Y685735D01*
X430358D01*
Y685520D01*
X430143D01*
Y685305D01*
X429927D01*
Y685090D01*
X429712D01*
Y684874D01*
X429497D01*
Y684659D01*
X429282D01*
Y684444D01*
X429066D01*
Y684229D01*
X428636D01*
Y684013D01*
X428420D01*
Y683798D01*
X428205D01*
Y683583D01*
X427775D01*
Y683368D01*
X427560D01*
Y683152D01*
X427344D01*
Y682937D01*
X427129D01*
Y682722D01*
X426698D01*
Y682507D01*
X426483D01*
Y682291D01*
X426053D01*
Y682076D01*
X425838D01*
Y681861D01*
X425622D01*
Y681646D01*
X425192D01*
Y681430D01*
X424976D01*
Y681215D01*
X424546D01*
Y681000D01*
X424115D01*
Y680785D01*
X423900D01*
Y680569D01*
X423470D01*
Y680354D01*
X423039D01*
Y680139D01*
X422824D01*
Y679924D01*
X422393D01*
Y679708D01*
X421963D01*
Y679493D01*
X421532D01*
Y679278D01*
X421102D01*
Y679062D01*
X420671D01*
Y678847D01*
X420241D01*
Y678632D01*
X419810D01*
Y678417D01*
X419380D01*
Y678202D01*
X418949D01*
Y677986D01*
X418519D01*
Y677771D01*
X417873D01*
Y677556D01*
X417443D01*
Y677340D01*
X416797D01*
Y677125D01*
X416366D01*
Y676910D01*
X415720D01*
Y676695D01*
X415075D01*
Y676479D01*
X414429D01*
Y676264D01*
X413568D01*
Y676049D01*
X412922D01*
Y675834D01*
X412276D01*
Y675619D01*
X411200D01*
Y675403D01*
X410554D01*
Y675188D01*
X409263D01*
Y674973D01*
X407971D01*
Y674758D01*
X406680D01*
Y674542D01*
X404097D01*
Y674327D01*
X398285D01*
Y674542D01*
X395702D01*
Y674758D01*
X394410D01*
Y674973D01*
X393119D01*
Y675188D01*
X391827D01*
Y675403D01*
X390966D01*
Y675619D01*
X390105D01*
Y675834D01*
X389459D01*
Y676049D01*
X388814D01*
Y676264D01*
X387953D01*
Y676479D01*
X387307D01*
Y676695D01*
X386661D01*
Y676910D01*
X386015D01*
Y677125D01*
X385585D01*
Y677340D01*
X384939D01*
Y677556D01*
X384509D01*
Y677771D01*
X383863D01*
Y677986D01*
X383432D01*
Y678202D01*
X383002D01*
Y678417D01*
X382571D01*
Y678632D01*
X382141D01*
Y678847D01*
X381710D01*
Y679062D01*
X381280D01*
Y679278D01*
X380849D01*
Y679493D01*
X380419D01*
Y679708D01*
X379988D01*
Y679924D01*
X379558D01*
Y680139D01*
X379342D01*
Y680354D01*
X378912D01*
Y680569D01*
X378481D01*
Y680785D01*
X378266D01*
Y681000D01*
X377836D01*
Y681215D01*
X377405D01*
Y681430D01*
X377190D01*
Y681646D01*
X376975D01*
Y681861D01*
X376544D01*
Y682076D01*
X376329D01*
Y682291D01*
X375899D01*
Y682507D01*
X375683D01*
Y682722D01*
X375253D01*
Y682937D01*
X375037D01*
Y683152D01*
X374822D01*
Y683368D01*
X374607D01*
Y683583D01*
X374176D01*
Y683798D01*
X373961D01*
Y684013D01*
X373746D01*
Y684229D01*
X373315D01*
Y684444D01*
X373100D01*
Y684659D01*
X372885D01*
Y684874D01*
X372670D01*
Y685090D01*
X372454D01*
Y685305D01*
X372239D01*
Y685520D01*
X372024D01*
Y685735D01*
X371593D01*
Y685951D01*
X371378D01*
Y686166D01*
X371163D01*
Y686381D01*
X370948D01*
Y686596D01*
X370732D01*
Y686812D01*
X370517D01*
Y687027D01*
X370302D01*
Y687242D01*
X370087D01*
Y687458D01*
X369871D01*
Y687673D01*
X369656D01*
Y687888D01*
X369441D01*
Y688103D01*
X369226D01*
Y688318D01*
X369010D01*
Y688749D01*
X368795D01*
Y688964D01*
X368580D01*
Y689180D01*
X368365D01*
Y689395D01*
X368149D01*
Y689610D01*
X367934D01*
Y689825D01*
X367719D01*
Y690256D01*
X367504D01*
Y690471D01*
X367288D01*
Y690686D01*
X367073D01*
Y690901D01*
X366858D01*
Y691117D01*
X366642D01*
Y691547D01*
X366427D01*
Y691762D01*
X366212D01*
Y691978D01*
X365997D01*
Y692408D01*
X365782D01*
Y692624D01*
X365566D01*
Y693054D01*
X365351D01*
Y693269D01*
X365136D01*
Y693700D01*
X364921D01*
Y693915D01*
X364705D01*
Y694346D01*
X364490D01*
Y694561D01*
X364275D01*
Y694991D01*
X364059D01*
Y695422D01*
X363844D01*
Y695637D01*
X363629D01*
Y696068D01*
X363414D01*
Y696498D01*
X363199D01*
Y696713D01*
X362983D01*
Y697144D01*
X362768D01*
Y697574D01*
X362553D01*
Y698005D01*
X362337D01*
Y698435D01*
X362122D01*
Y698866D01*
X361907D01*
Y699296D01*
X361692D01*
Y699727D01*
X361476D01*
Y700157D01*
X361261D01*
Y700588D01*
X361046D01*
Y701234D01*
X360831D01*
Y701664D01*
X360615D01*
Y702310D01*
X360400D01*
Y702956D01*
X360185D01*
Y703602D01*
X359970D01*
Y704032D01*
X359754D01*
Y704893D01*
X359539D01*
Y705539D01*
X359324D01*
Y706185D01*
X359109D01*
Y707046D01*
X358893D01*
Y707907D01*
X358678D01*
Y708983D01*
X358463D01*
Y710059D01*
X358248D01*
Y710920D01*
X358032D01*
Y712642D01*
X357817D01*
Y715225D01*
X357602D01*
Y719746D01*
X357817D01*
Y722544D01*
X358032D01*
Y724481D01*
X358248D01*
Y725557D01*
X358463D01*
Y726849D01*
X358678D01*
Y727710D01*
X358893D01*
Y728571D01*
X359109D01*
Y729432D01*
X359324D01*
Y730293D01*
X359539D01*
Y730939D01*
X359754D01*
Y731585D01*
X359970D01*
Y732230D01*
X360185D01*
Y732876D01*
X360400D01*
Y733307D01*
X360615D01*
Y733952D01*
X360831D01*
Y734383D01*
X361046D01*
Y735029D01*
X361261D01*
Y735459D01*
X361476D01*
Y735890D01*
X361692D01*
Y736320D01*
X361907D01*
Y736751D01*
X362122D01*
Y737181D01*
X362337D01*
Y737827D01*
X362553D01*
Y738042D01*
X362768D01*
Y738473D01*
X362983D01*
Y738903D01*
X363199D01*
Y739334D01*
X363414D01*
Y739764D01*
X363629D01*
Y739979D01*
X363844D01*
Y740410D01*
X364059D01*
Y740841D01*
X364275D01*
Y741056D01*
X364490D01*
Y741486D01*
X364705D01*
Y741702D01*
X364921D01*
Y742132D01*
X365136D01*
Y742347D01*
X365351D01*
Y742778D01*
X365566D01*
Y742993D01*
X365782D01*
Y743208D01*
X365997D01*
Y743639D01*
X366212D01*
Y743854D01*
X366427D01*
Y744285D01*
X366642D01*
Y744500D01*
X366858D01*
Y744715D01*
X367073D01*
Y745146D01*
X367288D01*
Y745361D01*
X367504D01*
Y745576D01*
X367719D01*
Y745791D01*
X367934D01*
Y746007D01*
X368149D01*
Y746437D01*
X368365D01*
Y746652D01*
X368580D01*
Y746868D01*
X368795D01*
Y747083D01*
X369010D01*
Y747298D01*
X369226D01*
Y747513D01*
X369441D01*
Y747729D01*
X369656D01*
Y747944D01*
X369871D01*
Y748159D01*
X370087D01*
Y748374D01*
X370302D01*
Y748590D01*
X370517D01*
Y748805D01*
X370732D01*
Y749020D01*
X370948D01*
Y749235D01*
X371163D01*
Y749451D01*
X371378D01*
Y749666D01*
X371593D01*
Y749881D01*
X371809D01*
Y750096D01*
X372024D01*
Y750312D01*
X372239D01*
Y750527D01*
X372454D01*
Y750742D01*
X372885D01*
Y750957D01*
X373100D01*
Y751173D01*
X373315D01*
Y751388D01*
X373531D01*
Y751603D01*
X373746D01*
Y751818D01*
X374176D01*
Y752034D01*
X374392D01*
Y752249D01*
X374607D01*
Y752464D01*
X374822D01*
Y752680D01*
X375253D01*
Y752895D01*
X375468D01*
Y753110D01*
X375899D01*
Y753325D01*
X376114D01*
Y753540D01*
X376329D01*
Y753756D01*
X376759D01*
Y753971D01*
X376975D01*
Y754186D01*
X377405D01*
Y754401D01*
X377621D01*
Y754617D01*
X378051D01*
Y754832D01*
X378266D01*
Y755047D01*
X378697D01*
Y755263D01*
X379127D01*
Y755478D01*
X379342D01*
Y755693D01*
X379988D01*
Y755908D01*
X380204D01*
Y756124D01*
X380634D01*
Y756339D01*
X381065D01*
Y756554D01*
X381495D01*
Y756769D01*
X381926D01*
Y756985D01*
X382356D01*
Y757200D01*
X382787D01*
Y757415D01*
X383217D01*
Y757630D01*
X383863D01*
Y757846D01*
X384293D01*
Y758061D01*
X384724D01*
Y758276D01*
X385370D01*
Y758491D01*
X385800D01*
Y758707D01*
X386446D01*
Y758922D01*
X387092D01*
Y759137D01*
X387738D01*
Y759352D01*
X388383D01*
Y759568D01*
X389029D01*
Y759783D01*
X389890D01*
Y759998D01*
X390751D01*
Y760213D01*
X391612D01*
Y760429D01*
X392688D01*
Y760644D01*
X393980D01*
Y760859D01*
X395056D01*
Y761074D01*
X397209D01*
Y761290D01*
X404958D01*
Y761074D01*
D02*
G37*
%LPC*%
G36*
X383432Y753540D02*
X381280D01*
Y753325D01*
X379988D01*
Y753110D01*
X378912D01*
Y752895D01*
X378266D01*
Y752680D01*
X377836D01*
Y752464D01*
X377190D01*
Y752249D01*
X376759D01*
Y752034D01*
X376329D01*
Y751818D01*
X375899D01*
Y751603D01*
X375683D01*
Y751388D01*
X375253D01*
Y751173D01*
X375037D01*
Y750957D01*
X374607D01*
Y750742D01*
X374392D01*
Y750527D01*
X374176D01*
Y750312D01*
X373746D01*
Y750096D01*
X373531D01*
Y749881D01*
X373315D01*
Y749666D01*
X373100D01*
Y749451D01*
X372670D01*
Y749235D01*
X372454D01*
Y749020D01*
X372239D01*
Y748805D01*
X372024D01*
Y748590D01*
X371809D01*
Y748374D01*
X371593D01*
Y748159D01*
X371378D01*
Y747944D01*
X371163D01*
Y747729D01*
X370948D01*
Y747298D01*
X370732D01*
Y747083D01*
X370517D01*
Y746868D01*
X370302D01*
Y746652D01*
X370087D01*
Y746222D01*
X369871D01*
Y746007D01*
X369656D01*
Y745791D01*
X369441D01*
Y745361D01*
X369226D01*
Y745146D01*
X369010D01*
Y744715D01*
X368795D01*
Y744285D01*
X368580D01*
Y743639D01*
X368365D01*
Y743208D01*
X368149D01*
Y742562D01*
X367934D01*
Y741486D01*
X367719D01*
Y738473D01*
X367934D01*
Y737612D01*
X368149D01*
Y737181D01*
X368365D01*
Y736751D01*
X368580D01*
Y736320D01*
X368795D01*
Y736105D01*
X369010D01*
Y735674D01*
X369226D01*
Y735459D01*
X369441D01*
Y735244D01*
X369656D01*
Y735029D01*
X369871D01*
Y734813D01*
X370087D01*
Y734598D01*
X370517D01*
Y734383D01*
X370732D01*
Y734168D01*
X371163D01*
Y733952D01*
X371593D01*
Y733737D01*
X372024D01*
Y733522D01*
X372885D01*
Y733307D01*
X374392D01*
Y733091D01*
X375899D01*
Y733307D01*
X377621D01*
Y733522D01*
X378481D01*
Y733737D01*
X379127D01*
Y733952D01*
X379773D01*
Y734168D01*
X380419D01*
Y734383D01*
X380849D01*
Y734598D01*
X381280D01*
Y734813D01*
X381710D01*
Y735029D01*
X382141D01*
Y735244D01*
X382356D01*
Y735459D01*
X382571D01*
Y735674D01*
X383002D01*
Y735890D01*
X383432D01*
Y736105D01*
X383648D01*
Y736320D01*
X383863D01*
Y736535D01*
X384293D01*
Y736751D01*
X384509D01*
Y736966D01*
X384724D01*
Y737181D01*
X384939D01*
Y737396D01*
X385154D01*
Y737612D01*
X385370D01*
Y737827D01*
X385585D01*
Y738042D01*
X385800D01*
Y738258D01*
X386015D01*
Y738473D01*
X386231D01*
Y738688D01*
X386446D01*
Y738903D01*
X386661D01*
Y739118D01*
X386876D01*
Y739334D01*
X387092D01*
Y739764D01*
X387307D01*
Y739979D01*
X387522D01*
Y740410D01*
X387738D01*
Y740625D01*
X387953D01*
Y741056D01*
X388168D01*
Y741486D01*
X388383D01*
Y741917D01*
X388599D01*
Y742132D01*
X388814D01*
Y742778D01*
X389029D01*
Y743208D01*
X389244D01*
Y744069D01*
X389459D01*
Y744930D01*
X389675D01*
Y748159D01*
X389459D01*
Y749020D01*
X389244D01*
Y749666D01*
X389029D01*
Y750096D01*
X388814D01*
Y750312D01*
X388599D01*
Y750742D01*
X388383D01*
Y750957D01*
X388168D01*
Y751173D01*
X387953D01*
Y751388D01*
X387738D01*
Y751603D01*
X387522D01*
Y751818D01*
X387307D01*
Y752034D01*
X387092D01*
Y752249D01*
X386661D01*
Y752464D01*
X386231D01*
Y752680D01*
X385800D01*
Y752895D01*
X385370D01*
Y753110D01*
X384724D01*
Y753325D01*
X383432D01*
Y753540D01*
D02*
G37*
G36*
X413353Y732446D02*
X409693D01*
Y732230D01*
X408832D01*
Y732015D01*
X408187D01*
Y731800D01*
X407541D01*
Y731585D01*
X407110D01*
Y731369D01*
X406680D01*
Y731154D01*
X406465D01*
Y730939D01*
X406034D01*
Y730724D01*
X405819D01*
Y730508D01*
X405604D01*
Y730293D01*
X405388D01*
Y730078D01*
X404958D01*
Y729863D01*
X404743D01*
Y729647D01*
X404527D01*
Y729217D01*
X404312D01*
Y729001D01*
X404097D01*
Y728786D01*
X403881D01*
Y728571D01*
X403666D01*
Y728140D01*
X403451D01*
Y727925D01*
X403236D01*
Y727495D01*
X403021D01*
Y727064D01*
X402805D01*
Y726419D01*
X402590D01*
Y725988D01*
X402375D01*
Y725127D01*
X402160D01*
Y723620D01*
X401944D01*
Y722329D01*
X402160D01*
Y720822D01*
X402375D01*
Y719961D01*
X402590D01*
Y719530D01*
X402805D01*
Y718885D01*
X403021D01*
Y718454D01*
X403236D01*
Y718024D01*
X403451D01*
Y717808D01*
X403666D01*
Y717378D01*
X403881D01*
Y717162D01*
X404097D01*
Y716947D01*
X404312D01*
Y716732D01*
X404527D01*
Y716517D01*
X404743D01*
Y716301D01*
X404958D01*
Y716086D01*
X405173D01*
Y715871D01*
X405388D01*
Y715656D01*
X405604D01*
Y715441D01*
X405819D01*
Y715225D01*
X406249D01*
Y715010D01*
X406465D01*
Y714795D01*
X406895D01*
Y714579D01*
X407326D01*
Y714364D01*
X407756D01*
Y714149D01*
X408187D01*
Y713934D01*
X408832D01*
Y713718D01*
X409693D01*
Y713503D01*
X413353D01*
Y713718D01*
X414214D01*
Y713934D01*
X414860D01*
Y714149D01*
X415505D01*
Y714364D01*
X415936D01*
Y714579D01*
X416151D01*
Y714795D01*
X416581D01*
Y715010D01*
X417012D01*
Y715225D01*
X417227D01*
Y715441D01*
X417443D01*
Y715656D01*
X417873D01*
Y715871D01*
X418088D01*
Y716086D01*
X418304D01*
Y716301D01*
X418519D01*
Y716517D01*
X418734D01*
Y716732D01*
X418949D01*
Y717162D01*
X419165D01*
Y717378D01*
X419380D01*
Y717593D01*
X419595D01*
Y718024D01*
X419810D01*
Y718454D01*
X420026D01*
Y718885D01*
X420241D01*
Y719315D01*
X420456D01*
Y719961D01*
X420671D01*
Y720607D01*
X420887D01*
Y721683D01*
X421102D01*
Y724266D01*
X420887D01*
Y725342D01*
X420671D01*
Y725988D01*
X420456D01*
Y726634D01*
X420241D01*
Y727064D01*
X420026D01*
Y727495D01*
X419810D01*
Y727925D01*
X419595D01*
Y728356D01*
X419380D01*
Y728571D01*
X419165D01*
Y728786D01*
X418949D01*
Y729217D01*
X418734D01*
Y729432D01*
X418519D01*
Y729647D01*
X418304D01*
Y729863D01*
X418088D01*
Y730078D01*
X417873D01*
Y730293D01*
X417443D01*
Y730508D01*
X417227D01*
Y730724D01*
X417012D01*
Y730939D01*
X416581D01*
Y731154D01*
X416366D01*
Y731369D01*
X415936D01*
Y731585D01*
X415505D01*
Y731800D01*
X414860D01*
Y732015D01*
X414214D01*
Y732230D01*
X413353D01*
Y732446D01*
D02*
G37*
G36*
X397424Y716947D02*
X394841D01*
Y716732D01*
X391612D01*
Y716517D01*
X389890D01*
Y716301D01*
X387522D01*
Y716086D01*
X386231D01*
Y715871D01*
X384724D01*
Y715656D01*
X383002D01*
Y715441D01*
X382141D01*
Y715225D01*
X380849D01*
Y715010D01*
X379558D01*
Y714795D01*
X378697D01*
Y714579D01*
X377836D01*
Y714364D01*
X376759D01*
Y714149D01*
X376114D01*
Y713934D01*
X375037D01*
Y713718D01*
X374176D01*
Y713503D01*
X373531D01*
Y713288D01*
X373100D01*
Y713073D01*
X372454D01*
Y712858D01*
X371809D01*
Y712642D01*
X370948D01*
Y712427D01*
X370302D01*
Y712212D01*
X369441D01*
Y711996D01*
X368795D01*
Y711781D01*
X368149D01*
Y711566D01*
X367504D01*
Y711351D01*
X366858D01*
Y711135D01*
X366212D01*
Y710920D01*
X365351D01*
Y710705D01*
X364921D01*
Y710490D01*
X364275D01*
Y710274D01*
X363629D01*
Y710059D01*
X363199D01*
Y709844D01*
X362553D01*
Y709629D01*
X361907D01*
Y709413D01*
X361476D01*
Y709198D01*
X360615D01*
Y708983D01*
X360185D01*
Y708768D01*
X359970D01*
Y708337D01*
X360185D01*
Y707261D01*
X360400D01*
Y706400D01*
X360615D01*
Y705754D01*
X360831D01*
Y705108D01*
X361046D01*
Y704463D01*
X361261D01*
Y703817D01*
X361476D01*
Y703171D01*
X361692D01*
Y702740D01*
X361907D01*
Y702310D01*
X362122D01*
Y701664D01*
X362337D01*
Y701234D01*
X362553D01*
Y700588D01*
X362768D01*
Y700157D01*
X362983D01*
Y699942D01*
X363199D01*
Y699296D01*
X363414D01*
Y698866D01*
X363629D01*
Y698435D01*
X363844D01*
Y698005D01*
X364059D01*
Y697574D01*
X364275D01*
Y697144D01*
X364490D01*
Y696929D01*
X364705D01*
Y696498D01*
X364921D01*
Y696283D01*
X365136D01*
Y695852D01*
X365351D01*
Y695422D01*
X365566D01*
Y695207D01*
X365782D01*
Y694776D01*
X365997D01*
Y694561D01*
X366212D01*
Y694130D01*
X366427D01*
Y693915D01*
X366642D01*
Y693700D01*
X366858D01*
Y693269D01*
X367073D01*
Y692839D01*
X367288D01*
Y692624D01*
X367504D01*
Y692408D01*
X367719D01*
Y692193D01*
X367934D01*
Y691978D01*
X368149D01*
Y691547D01*
X368365D01*
Y691332D01*
X368580D01*
Y691117D01*
X368795D01*
Y690686D01*
X369226D01*
Y690256D01*
X369441D01*
Y690041D01*
X369656D01*
Y689825D01*
X369871D01*
Y689610D01*
X370087D01*
Y689395D01*
X370302D01*
Y689180D01*
X370517D01*
Y688964D01*
X370732D01*
Y688749D01*
X370948D01*
Y688534D01*
X371163D01*
Y688318D01*
X371378D01*
Y688103D01*
X371593D01*
Y687888D01*
X371809D01*
Y687673D01*
X372024D01*
Y687458D01*
X372239D01*
Y687242D01*
X372454D01*
Y687027D01*
X372670D01*
Y686812D01*
X372885D01*
Y686596D01*
X373100D01*
Y686381D01*
X373315D01*
Y686166D01*
X373746D01*
Y685951D01*
X373961D01*
Y685735D01*
X374176D01*
Y685520D01*
X374392D01*
Y685305D01*
X374607D01*
Y685090D01*
X375037D01*
Y684874D01*
X375253D01*
Y684659D01*
X375468D01*
Y684444D01*
X375683D01*
Y684229D01*
X376114D01*
Y684013D01*
X376329D01*
Y683798D01*
X376759D01*
Y683583D01*
X376975D01*
Y683368D01*
X377405D01*
Y683152D01*
X377621D01*
Y682937D01*
X377836D01*
Y682722D01*
X378266D01*
Y682507D01*
X378481D01*
Y682291D01*
X378912D01*
Y682076D01*
X379342D01*
Y681861D01*
X379558D01*
Y681646D01*
X379988D01*
Y681430D01*
X380419D01*
Y681215D01*
X380634D01*
Y681000D01*
X381280D01*
Y680785D01*
X381495D01*
Y680569D01*
X381926D01*
Y680354D01*
X382356D01*
Y680139D01*
X382787D01*
Y679924D01*
X383217D01*
Y679708D01*
X383863D01*
Y679493D01*
X384293D01*
Y679278D01*
X384724D01*
Y679062D01*
X385370D01*
Y678847D01*
X385800D01*
Y678632D01*
X386446D01*
Y678417D01*
X386876D01*
Y678202D01*
X387522D01*
Y677986D01*
X388383D01*
Y677771D01*
X389029D01*
Y677556D01*
X389675D01*
Y677340D01*
X390536D01*
Y677125D01*
X391397D01*
Y676910D01*
X392258D01*
Y676695D01*
X393549D01*
Y676479D01*
X394626D01*
Y676264D01*
X395917D01*
Y676049D01*
X400438D01*
Y675834D01*
X401729D01*
Y676049D01*
X406034D01*
Y676264D01*
X407756D01*
Y676479D01*
X408832D01*
Y676695D01*
X410124D01*
Y676910D01*
X410985D01*
Y677125D01*
X411846D01*
Y677340D01*
X412707D01*
Y677556D01*
X413353D01*
Y677771D01*
X413998D01*
Y677986D01*
X414644D01*
Y678202D01*
X415290D01*
Y678417D01*
X415936D01*
Y678632D01*
X416581D01*
Y678847D01*
X417012D01*
Y679062D01*
X417443D01*
Y679278D01*
X418088D01*
Y679493D01*
X418519D01*
Y679708D01*
X418949D01*
Y679924D01*
X419380D01*
Y680139D01*
X420026D01*
Y680354D01*
X420456D01*
Y680569D01*
X420671D01*
Y680785D01*
X421102D01*
Y681000D01*
X421532D01*
Y681215D01*
X421963D01*
Y681430D01*
X422393D01*
Y681646D01*
X422609D01*
Y681861D01*
X423039D01*
Y682076D01*
X423470D01*
Y682291D01*
X423685D01*
Y682507D01*
X424115D01*
Y682722D01*
X424331D01*
Y682937D01*
X424761D01*
Y683152D01*
X424976D01*
Y683368D01*
X425407D01*
Y683583D01*
X425622D01*
Y683798D01*
X426053D01*
Y684013D01*
X426268D01*
Y684229D01*
X426483D01*
Y684444D01*
X426914D01*
Y684659D01*
X427129D01*
Y684874D01*
X427344D01*
Y685090D01*
X427560D01*
Y685305D01*
X427775D01*
Y685520D01*
X428205D01*
Y685735D01*
X428420D01*
Y685951D01*
X428636D01*
Y686166D01*
X428851D01*
Y686381D01*
X429066D01*
Y686596D01*
X429497D01*
Y686812D01*
X429712D01*
Y687027D01*
X429927D01*
Y687242D01*
X430143D01*
Y687458D01*
X430358D01*
Y687673D01*
X430573D01*
Y687888D01*
X430788D01*
Y688103D01*
X431004D01*
Y688318D01*
X431219D01*
Y688534D01*
X431434D01*
Y688749D01*
X431649D01*
Y688964D01*
X431865D01*
Y689180D01*
X432080D01*
Y689395D01*
X432295D01*
Y689610D01*
X432510D01*
Y690041D01*
X432726D01*
Y690256D01*
X432941D01*
Y690471D01*
X433156D01*
Y690686D01*
X433371D01*
Y690901D01*
X433587D01*
Y691117D01*
X433802D01*
Y691547D01*
X434017D01*
Y691762D01*
X434232D01*
Y691978D01*
X434448D01*
Y692193D01*
X434663D01*
Y692624D01*
X434878D01*
Y692839D01*
X435093D01*
Y693054D01*
X435309D01*
Y693485D01*
X435524D01*
Y693700D01*
X435739D01*
Y694130D01*
X435954D01*
Y694346D01*
X436170D01*
Y694561D01*
X436385D01*
Y694991D01*
X436600D01*
Y695207D01*
X436815D01*
Y695422D01*
X437031D01*
Y695852D01*
X437246D01*
Y696068D01*
X437461D01*
Y696498D01*
X437676D01*
Y696713D01*
X437892D01*
Y697144D01*
X438107D01*
Y697359D01*
X438322D01*
Y697790D01*
X438537D01*
Y698220D01*
X438753D01*
Y698651D01*
X438968D01*
Y699081D01*
X439183D01*
Y699512D01*
X439398D01*
Y699942D01*
X439614D01*
Y700373D01*
X439829D01*
Y701019D01*
X440044D01*
Y701449D01*
X440260D01*
Y701880D01*
X440475D01*
Y702525D01*
X440690D01*
Y702956D01*
X440905D01*
Y703602D01*
X441120D01*
Y704247D01*
X441336D01*
Y704893D01*
X441551D01*
Y705539D01*
X441766D01*
Y706185D01*
X441982D01*
Y707046D01*
X442197D01*
Y707907D01*
X442412D01*
Y708983D01*
X442197D01*
Y709198D01*
X441766D01*
Y709413D01*
X441336D01*
Y709629D01*
X440690D01*
Y709844D01*
X440260D01*
Y710059D01*
X439614D01*
Y710274D01*
X438968D01*
Y710490D01*
X438537D01*
Y710705D01*
X437892D01*
Y710920D01*
X437246D01*
Y711135D01*
X436600D01*
Y711351D01*
X435954D01*
Y711566D01*
X435309D01*
Y711781D01*
X434663D01*
Y711996D01*
X434017D01*
Y712212D01*
X433371D01*
Y712427D01*
X432726D01*
Y712642D01*
X431865D01*
Y712858D01*
X431219D01*
Y713073D01*
X430358D01*
Y713288D01*
X429497D01*
Y713503D01*
X428851D01*
Y713718D01*
X427990D01*
Y713934D01*
X426914D01*
Y714149D01*
X426053D01*
Y714364D01*
X425192D01*
Y714579D01*
X423685D01*
Y714364D01*
X423470D01*
Y713934D01*
X423254D01*
Y713718D01*
X423039D01*
Y713503D01*
X422824D01*
Y713073D01*
X422609D01*
Y712858D01*
X422393D01*
Y712642D01*
X422178D01*
Y712427D01*
X421963D01*
Y712212D01*
X421748D01*
Y711996D01*
X421532D01*
Y711781D01*
X421317D01*
Y711566D01*
X421102D01*
Y711351D01*
X420887D01*
Y711135D01*
X420671D01*
Y710920D01*
X420241D01*
Y710705D01*
X420026D01*
Y710490D01*
X419810D01*
Y710274D01*
X419380D01*
Y710059D01*
X419165D01*
Y709844D01*
X418734D01*
Y709629D01*
X418304D01*
Y709413D01*
X417873D01*
Y709198D01*
X417443D01*
Y708983D01*
X417012D01*
Y708768D01*
X416581D01*
Y708552D01*
X415936D01*
Y708337D01*
X415075D01*
Y708122D01*
X414429D01*
Y707907D01*
X412922D01*
Y707691D01*
X409478D01*
Y707907D01*
X407971D01*
Y708122D01*
X407326D01*
Y708337D01*
X406465D01*
Y708552D01*
X405819D01*
Y708768D01*
X405388D01*
Y708983D01*
X404958D01*
Y709198D01*
X404527D01*
Y709413D01*
X404097D01*
Y709629D01*
X403666D01*
Y709844D01*
X403236D01*
Y710059D01*
X403021D01*
Y710274D01*
X402590D01*
Y710490D01*
X402375D01*
Y710705D01*
X402160D01*
Y710920D01*
X401729D01*
Y711135D01*
X401514D01*
Y711351D01*
X401298D01*
Y711566D01*
X401083D01*
Y711781D01*
X400868D01*
Y711996D01*
X400653D01*
Y712212D01*
X400438D01*
Y712427D01*
X400222D01*
Y712642D01*
X400007D01*
Y712858D01*
X399792D01*
Y713073D01*
X399576D01*
Y713288D01*
X399361D01*
Y713718D01*
X399146D01*
Y713934D01*
X398931D01*
Y714149D01*
X398715D01*
Y714579D01*
X398500D01*
Y715010D01*
X398285D01*
Y715225D01*
X398070D01*
Y715656D01*
X397854D01*
Y716086D01*
X397639D01*
Y716517D01*
X397424D01*
Y716947D01*
D02*
G37*
%LPD*%
G36*
X412922Y730078D02*
X413783D01*
Y729863D01*
X414214D01*
Y729647D01*
X414860D01*
Y729432D01*
X415290D01*
Y729217D01*
X415505D01*
Y729001D01*
X415936D01*
Y728786D01*
X416151D01*
Y728571D01*
X416366D01*
Y728356D01*
X416581D01*
Y728140D01*
X416797D01*
Y727925D01*
X417012D01*
Y727710D01*
X417227D01*
Y727495D01*
X417443D01*
Y727280D01*
X417658D01*
Y726849D01*
X417873D01*
Y726419D01*
X418088D01*
Y725988D01*
X418304D01*
Y725557D01*
X418519D01*
Y724696D01*
X418734D01*
Y723405D01*
X418949D01*
Y722329D01*
X418734D01*
Y721252D01*
X418519D01*
Y720391D01*
X418304D01*
Y719961D01*
X418088D01*
Y719530D01*
X417873D01*
Y719100D01*
X417658D01*
Y718885D01*
X417443D01*
Y718454D01*
X417227D01*
Y718239D01*
X417012D01*
Y718024D01*
X416797D01*
Y717808D01*
X416581D01*
Y717593D01*
X416366D01*
Y717378D01*
X416151D01*
Y717162D01*
X415720D01*
Y716947D01*
X415505D01*
Y716732D01*
X415075D01*
Y716517D01*
X414860D01*
Y716301D01*
X414214D01*
Y716086D01*
X413568D01*
Y715871D01*
X412707D01*
Y715656D01*
X410339D01*
Y715871D01*
X409478D01*
Y716086D01*
X408832D01*
Y716301D01*
X408402D01*
Y716517D01*
X407971D01*
Y716732D01*
X407541D01*
Y716947D01*
X407326D01*
Y717162D01*
X406895D01*
Y717378D01*
X406680D01*
Y717593D01*
X406465D01*
Y717808D01*
X406249D01*
Y718024D01*
X406034D01*
Y718239D01*
X405819D01*
Y718669D01*
X405604D01*
Y718885D01*
X405388D01*
Y719100D01*
X405173D01*
Y719530D01*
X404958D01*
Y719961D01*
X404743D01*
Y720607D01*
X404527D01*
Y721468D01*
X404312D01*
Y722759D01*
X404097D01*
Y723190D01*
X404312D01*
Y724696D01*
X404527D01*
Y725342D01*
X404743D01*
Y725988D01*
X404958D01*
Y726419D01*
X405173D01*
Y726849D01*
X405388D01*
Y727064D01*
X405604D01*
Y727280D01*
X405819D01*
Y727710D01*
X406034D01*
Y727925D01*
X406249D01*
Y728140D01*
X406465D01*
Y728356D01*
X406680D01*
Y728571D01*
X406895D01*
Y728786D01*
X407326D01*
Y729001D01*
X407541D01*
Y729217D01*
X407971D01*
Y729432D01*
X408187D01*
Y729647D01*
X408832D01*
Y729863D01*
X409263D01*
Y730078D01*
X410124D01*
Y730293D01*
X412922D01*
Y730078D01*
D02*
G37*
%LPC*%
G36*
X413138Y729647D02*
X409909D01*
Y729432D01*
X409263D01*
Y729217D01*
X408832D01*
Y729001D01*
X408187D01*
Y728786D01*
X407971D01*
Y728571D01*
X407541D01*
Y728356D01*
X407326D01*
Y728140D01*
X407110D01*
Y727925D01*
X406895D01*
Y727710D01*
X406680D01*
Y727495D01*
X406465D01*
Y727280D01*
X406249D01*
Y727064D01*
X406034D01*
Y726634D01*
X405819D01*
Y726419D01*
X405604D01*
Y725988D01*
X405388D01*
Y725557D01*
X405173D01*
Y724696D01*
X404958D01*
Y724051D01*
X404743D01*
Y721898D01*
X404958D01*
Y721252D01*
X405173D01*
Y720391D01*
X405388D01*
Y719961D01*
X405604D01*
Y719530D01*
X405819D01*
Y719315D01*
X406034D01*
Y718885D01*
X406249D01*
Y718669D01*
X406465D01*
Y718454D01*
X406680D01*
Y718239D01*
X406895D01*
Y718024D01*
X407110D01*
Y717808D01*
X407326D01*
Y717593D01*
X407541D01*
Y717378D01*
X407971D01*
Y717162D01*
X408402D01*
Y716947D01*
X408832D01*
Y716732D01*
X409263D01*
Y716517D01*
X409909D01*
Y716301D01*
X413138D01*
Y716517D01*
X413783D01*
Y716732D01*
X414429D01*
Y716947D01*
X414860D01*
Y717162D01*
X415075D01*
Y717378D01*
X415505D01*
Y717593D01*
X415720D01*
Y717808D01*
X415936D01*
Y718024D01*
X416151D01*
Y718239D01*
X416366D01*
Y718454D01*
X416581D01*
Y718669D01*
X416797D01*
Y718885D01*
X417012D01*
Y719100D01*
X417227D01*
Y719530D01*
X417443D01*
Y719961D01*
X417658D01*
Y720391D01*
X417873D01*
Y721037D01*
X418088D01*
Y721898D01*
X418304D01*
Y724051D01*
X418088D01*
Y725127D01*
X417873D01*
Y725557D01*
X417658D01*
Y725988D01*
X417443D01*
Y726419D01*
X417227D01*
Y726849D01*
X417012D01*
Y727064D01*
X416797D01*
Y727280D01*
X416581D01*
Y727495D01*
X416366D01*
Y727925D01*
X415936D01*
Y728140D01*
X415720D01*
Y728356D01*
X415505D01*
Y728571D01*
X415075D01*
Y728786D01*
X414860D01*
Y729001D01*
X414429D01*
Y729217D01*
X413998D01*
Y729432D01*
X413138D01*
Y729647D01*
D02*
G37*
%LPD*%
D10*
X166100Y584350D02*
G03*
X166100Y584350I-1000J0D01*
G01*
X219440Y586890D02*
G03*
X219440Y586890I-1000J0D01*
G01*
X267700Y585620D02*
G03*
X267700Y585620I-1000J0D01*
G01*
X637270Y584350D02*
G03*
X637270Y584350I-1000J0D01*
G01*
X590280D02*
G03*
X590280Y584350I-1000J0D01*
G01*
X539480Y585620D02*
G03*
X539480Y585620I-1000J0D01*
G01*
X303550Y571160D02*
G03*
X303550Y571160I-1000J0D01*
G01*
X152400Y577850D02*
X177800D01*
X152400Y196850D02*
X177800D01*
Y577850D01*
X152400Y196850D02*
Y577850D01*
X205740Y580390D02*
X231140D01*
X205740Y199390D02*
X231140D01*
Y580390D01*
X205740Y199390D02*
Y580390D01*
X254000Y579120D02*
X279400D01*
X254000Y198120D02*
X279400D01*
Y579120D01*
X254000Y198120D02*
Y579120D01*
X623570Y577850D02*
X648970D01*
X623570Y196850D02*
X648970D01*
Y577850D01*
X623570Y196850D02*
Y577850D01*
X576580D02*
X601980D01*
X576580Y196850D02*
X601980D01*
Y577850D01*
X576580Y196850D02*
Y577850D01*
X525780Y579120D02*
X551180D01*
X525780Y198120D02*
X551180D01*
Y579120D01*
X525780Y198120D02*
Y579120D01*
D11*
X311150Y175260D02*
Y607060D01*
Y175260D02*
X488950D01*
Y607060D01*
X311150D02*
X488950D01*
D12*
X633473Y606548D02*
X630933Y609087D01*
X625855D01*
X623316Y606548D01*
Y596391D01*
X625855Y593852D01*
X630933D01*
X633473Y596391D01*
X648708Y609087D02*
X643629Y606548D01*
X638551Y601469D01*
Y596391D01*
X641090Y593852D01*
X646169D01*
X648708Y596391D01*
Y598930D01*
X646169Y601469D01*
X638551D01*
X586483Y606548D02*
X583943Y609087D01*
X578865D01*
X576326Y606548D01*
Y596391D01*
X578865Y593852D01*
X583943D01*
X586483Y596391D01*
X601718Y609087D02*
X591561D01*
Y601469D01*
X596639Y604009D01*
X599179D01*
X601718Y601469D01*
Y596391D01*
X599179Y593852D01*
X594100D01*
X591561Y596391D01*
X535683Y607818D02*
X533144Y610357D01*
X528065D01*
X525526Y607818D01*
Y597661D01*
X528065Y595122D01*
X533144D01*
X535683Y597661D01*
X548379Y595122D02*
Y610357D01*
X540761Y602739D01*
X550918D01*
X162303Y606548D02*
X159763Y609087D01*
X154685D01*
X152146Y606548D01*
Y596391D01*
X154685Y593852D01*
X159763D01*
X162303Y596391D01*
X167381Y606548D02*
X169920Y609087D01*
X174999D01*
X177538Y606548D01*
Y604009D01*
X174999Y601469D01*
X172459D01*
X174999D01*
X177538Y598930D01*
Y596391D01*
X174999Y593852D01*
X169920D01*
X167381Y596391D01*
X215643Y609088D02*
X213104Y611627D01*
X208025D01*
X205486Y609088D01*
Y598931D01*
X208025Y596392D01*
X213104D01*
X215643Y598931D01*
X230878Y596392D02*
X220721D01*
X230878Y606549D01*
Y609088D01*
X228339Y611627D01*
X223260D01*
X220721Y609088D01*
X263903Y607818D02*
X261364Y610357D01*
X256285D01*
X253746Y607818D01*
Y597661D01*
X256285Y595122D01*
X261364D01*
X263903Y597661D01*
X268981Y595122D02*
X274059D01*
X271520D01*
Y610357D01*
X268981Y607818D01*
X303022Y632714D02*
Y642871D01*
X308100Y647949D01*
X313179Y642871D01*
Y632714D01*
Y640331D01*
X303022D01*
X318257Y642871D02*
Y632714D01*
Y637792D01*
X320796Y640331D01*
X323335Y642871D01*
X325875D01*
X343649Y647949D02*
Y632714D01*
X336031D01*
X333492Y635253D01*
Y640331D01*
X336031Y642871D01*
X343649D01*
X348727D02*
Y635253D01*
X351266Y632714D01*
X358884D01*
Y642871D01*
X363962Y632714D02*
X369041D01*
X366502D01*
Y642871D01*
X363962D01*
X376658Y632714D02*
Y642871D01*
X384276D01*
X386815Y640331D01*
Y632714D01*
X394432D02*
X399511D01*
X402050Y635253D01*
Y640331D01*
X399511Y642871D01*
X394432D01*
X391893Y640331D01*
Y635253D01*
X394432Y632714D01*
X407128D02*
X412207D01*
X409668D01*
Y647949D01*
X407128Y645410D01*
M02*
