M48
;Layer_Color=9474304
;FILE_FORMAT=4:4
METRIC,LZ
;TYPE=PLATED
T01F00S00C0.8128
T02F00S00C0.8890
T03F00S00C0.9000
T04F00S00C0.9906
T05F00S00C1.1000
T06F00S00C1.2446
T07F00S00C3.1000
%
T01
X0015113Y003972
Y004172
Y004372
Y004572
Y004772
T02
X0053975Y0027686
Y0032004
X0053848Y0036322
X0053975Y0040259
X0065405
X0065278Y0036322
X0065405Y0032004
Y0027686
X0034925Y0028575
X0030607
X0026543
X0022479Y0028702
Y0040132
X0026543Y0040005
X0030607
X0034925
Y0047625
X0031115Y0047752
X0027305
X0023368
Y0059182
X0027305
X0031115
X0034925Y0059055
T03
X0040894Y0029083
Y0031623
Y0034163
Y0036703
Y0039243
Y0041783
Y0044323
X0048514
Y0041783
Y0039243
Y0036703
Y0034163
Y0031623
Y0029083
T04
X0061341Y0050459
Y0052959
X0034036Y0019939
X0031536
T05
X0043815Y0054737
X0046355
X0048895
T06
X0043641Y0019685
X0046141
X0048641
X0051141
T07
X0058Y0015
X002
Y0065
X0058
M30
