G04*
G04 #@! TF.GenerationSoftware,Altium Limited,Altium Designer,24.1.2 (44)*
G04*
G04 Layer_Physical_Order=2*
G04 Layer_Color=16711680*
%FSLAX44Y44*%
%MOMM*%
G71*
G04*
G04 #@! TF.SameCoordinates,5ACB85F1-2223-4C92-A2CF-7EEF7C6C753D*
G04*
G04*
G04 #@! TF.FilePolarity,Positive*
G04*
G01*
G75*
%ADD15C,0.2540*%
%ADD17C,1.3970*%
%ADD18R,1.3970X1.3970*%
%ADD19R,1.3970X1.3970*%
%ADD20C,1.7526*%
%ADD21C,1.4986*%
%ADD26C,1.3208*%
%ADD27C,3.1000*%
%ADD28C,1.5000*%
%ADD29R,1.5000X1.5000*%
%ADD30R,1.7000X1.7000*%
%ADD31C,1.7000*%
D15*
X529590Y550672D02*
X617728D01*
X629920Y521100D02*
Y538480D01*
X617728Y550672D02*
X629920Y538480D01*
X613410Y504590D02*
X629920Y521100D01*
X311150Y591820D02*
X392430Y510540D01*
X594360D02*
X613410Y529590D01*
X392430Y510540D02*
X594360D01*
X337185Y412115D02*
X349250Y400050D01*
X166045Y412115D02*
X337185D01*
X151130Y397200D02*
X166045Y412115D01*
X463550Y547370D02*
X475996Y534924D01*
X513842D01*
X529590Y550672D01*
X196530Y477200D02*
X311150Y591820D01*
X151130Y477200D02*
X196530D01*
X473710Y355600D02*
X485140Y367030D01*
X393700Y355600D02*
X473710D01*
X349250Y400050D02*
X393700Y355600D01*
X358770Y417200D02*
X408940Y367030D01*
X151130Y417200D02*
X358770D01*
X392430Y547370D02*
X438150D01*
X349250Y590550D02*
X392430Y547370D01*
X408940Y367030D02*
X420370Y378460D01*
X595630D01*
X654050Y320040D01*
X265430Y285750D02*
X278638Y272542D01*
X429006D01*
X458724Y302260D01*
X657352D01*
X664972Y309880D01*
Y351028D01*
X652780Y363220D02*
X664972Y351028D01*
X311150Y477520D02*
X329438D01*
X330708Y476250D01*
X349250D01*
X233680Y591820D02*
X273050D01*
X306070Y400050D02*
X364490Y341630D01*
X408940D01*
X224790Y401320D02*
X244348D01*
X245618Y400050D01*
X265430D01*
X349250Y316230D01*
X408940D01*
X485140Y341630D02*
X506730Y363220D01*
X538480D01*
X485140Y316230D02*
X510540D01*
X514350Y320040D01*
X539750D01*
X267970Y443230D02*
X408940D01*
X233680Y477520D02*
X267970Y443230D01*
X224790Y287020D02*
X234442Y296672D01*
X403098D01*
X408940Y290830D01*
X485140D02*
X640080D01*
X654050Y276860D01*
D17*
X539750D02*
D03*
Y320040D02*
D03*
Y402590D02*
D03*
X538480Y363220D02*
D03*
X349250Y590550D02*
D03*
X311150Y477520D02*
D03*
X273050Y591820D02*
D03*
X233680D02*
D03*
X349250Y400050D02*
D03*
X306070D02*
D03*
X265430D02*
D03*
X224790Y401320D02*
D03*
D18*
X654050Y276860D02*
D03*
Y320040D02*
D03*
Y402590D02*
D03*
X652780Y363220D02*
D03*
D19*
X349250Y476250D02*
D03*
X311150Y591820D02*
D03*
X273050Y477520D02*
D03*
X233680D02*
D03*
X349250Y285750D02*
D03*
X306070D02*
D03*
X265430D02*
D03*
X224790Y287020D02*
D03*
D20*
X511410Y196850D02*
D03*
X486410D02*
D03*
X461410D02*
D03*
X436410D02*
D03*
D21*
X613410Y529590D02*
D03*
Y504590D02*
D03*
X315360Y199390D02*
D03*
X340360D02*
D03*
D26*
X151130Y397200D02*
D03*
Y417200D02*
D03*
Y437200D02*
D03*
Y457200D02*
D03*
Y477200D02*
D03*
D27*
X580000Y150000D02*
D03*
X200000D02*
D03*
X580000Y650000D02*
D03*
X200000D02*
D03*
D28*
X485140Y290830D02*
D03*
Y316230D02*
D03*
Y341630D02*
D03*
Y367030D02*
D03*
Y392430D02*
D03*
Y417830D02*
D03*
Y443230D02*
D03*
X408940Y290830D02*
D03*
Y316230D02*
D03*
Y341630D02*
D03*
Y367030D02*
D03*
Y392430D02*
D03*
Y417830D02*
D03*
D29*
Y443230D02*
D03*
D30*
X488950Y547370D02*
D03*
D31*
X463550D02*
D03*
X438150D02*
D03*
M02*
