G04*
G04 #@! TF.GenerationSoftware,Altium Limited,Altium Designer,24.1.2 (44)*
G04*
G04 Layer_Color=65535*
%FSLAX44Y44*%
%MOMM*%
G71*
G04*
G04 #@! TF.SameCoordinates,5ACB85F1-2223-4C92-A2CF-7EEF7C6C753D*
G04*
G04*
G04 #@! TF.FilePolarity,Positive*
G04*
G01*
G75*
%ADD10C,0.5080*%
%ADD11C,0.6000*%
%ADD12C,0.2500*%
%ADD13C,0.2000*%
%ADD14C,0.1524*%
%ADD15C,0.2540*%
G36*
X390626Y717158D02*
X391496D01*
Y716984D01*
X392366D01*
Y716810D01*
X392888D01*
Y716636D01*
X393584D01*
Y716462D01*
X394106D01*
Y716288D01*
X394802D01*
Y716114D01*
X395324D01*
Y715940D01*
X395672D01*
Y715766D01*
X396194D01*
Y715592D01*
X396542D01*
Y715418D01*
X397064D01*
Y715244D01*
X397412D01*
Y715070D01*
X397760D01*
Y714896D01*
X398282D01*
Y714722D01*
X398630D01*
Y714548D01*
X398978D01*
Y714374D01*
X399326D01*
Y714200D01*
X399674D01*
Y714026D01*
X400022D01*
Y713852D01*
X400370D01*
Y713678D01*
X400718D01*
Y713504D01*
X401066D01*
Y713330D01*
X401240D01*
Y713156D01*
X401588D01*
Y712982D01*
X401936D01*
Y712808D01*
X402284D01*
Y712634D01*
X402632D01*
Y712460D01*
X402806D01*
Y712286D01*
X403154D01*
Y712112D01*
X403502D01*
Y711938D01*
X403676D01*
Y711764D01*
X404024D01*
Y711590D01*
X404198D01*
Y711416D01*
X404546D01*
Y711242D01*
X404720D01*
Y711068D01*
X405068D01*
Y710894D01*
X405242D01*
Y710720D01*
X405416D01*
Y710546D01*
X405764D01*
Y710372D01*
X405938D01*
Y710198D01*
X406286D01*
Y710024D01*
X406460D01*
Y709850D01*
X406634D01*
Y709676D01*
X406982D01*
Y709502D01*
X407156D01*
Y709328D01*
X407330D01*
Y709154D01*
X407678D01*
Y708980D01*
X407852D01*
Y708806D01*
X408026D01*
Y708632D01*
X408200D01*
Y708458D01*
X408548D01*
Y708284D01*
X408722D01*
Y708110D01*
X408896D01*
Y707936D01*
X409070D01*
Y707762D01*
X409244D01*
Y707588D01*
X409418D01*
Y707414D01*
X409592D01*
Y707240D01*
X409766D01*
Y707066D01*
X410114D01*
Y706892D01*
X410288D01*
Y706718D01*
X410462D01*
Y706544D01*
X410636D01*
Y706370D01*
X410810D01*
Y706196D01*
X410984D01*
Y706022D01*
X411158D01*
Y705848D01*
X411332D01*
Y705674D01*
X411506D01*
Y705500D01*
X411680D01*
Y705326D01*
X411854D01*
Y705152D01*
X412028D01*
Y704978D01*
X412202D01*
Y704804D01*
X412376D01*
Y704630D01*
X412550D01*
Y704282D01*
X412724D01*
Y704108D01*
X412898D01*
Y703934D01*
X413072D01*
Y703760D01*
X413246D01*
Y703586D01*
X413420D01*
Y703412D01*
X413594D01*
Y703238D01*
X413768D01*
Y703064D01*
X413942D01*
Y702716D01*
X414116D01*
Y702542D01*
X414290D01*
Y702368D01*
X414464D01*
Y702020D01*
X414638D01*
Y701846D01*
X414812D01*
Y701672D01*
X414986D01*
Y701498D01*
X415160D01*
Y701150D01*
X415334D01*
Y700976D01*
X415508D01*
Y700802D01*
X415682D01*
Y700454D01*
X415856D01*
Y700280D01*
X416030D01*
Y699932D01*
X416204D01*
Y699758D01*
X416378D01*
Y699410D01*
X416552D01*
Y699236D01*
X416726D01*
Y699062D01*
X416900D01*
Y698714D01*
X417074D01*
Y698366D01*
X417248D01*
Y698192D01*
X417422D01*
Y697844D01*
X417596D01*
Y697670D01*
X417770D01*
Y697322D01*
X417944D01*
Y696974D01*
X418118D01*
Y696800D01*
X418292D01*
Y696452D01*
X418466D01*
Y696104D01*
X418640D01*
Y695756D01*
X418814D01*
Y695582D01*
X419162D01*
Y695756D01*
X419336D01*
Y695930D01*
X419684D01*
Y696104D01*
X420032D01*
Y696278D01*
X420380D01*
Y696452D01*
X420554D01*
Y696626D01*
X420902D01*
Y696800D01*
X421250D01*
Y696974D01*
X421772D01*
Y697148D01*
X422120D01*
Y697322D01*
X422642D01*
Y697496D01*
X422990D01*
Y697670D01*
X423512D01*
Y697844D01*
X424034D01*
Y698018D01*
X424556D01*
Y698192D01*
X425078D01*
Y698366D01*
X425774D01*
Y698540D01*
X426644D01*
Y698714D01*
X427688D01*
Y698888D01*
X429254D01*
Y699062D01*
X435866D01*
Y698888D01*
X437606D01*
Y698714D01*
X438824D01*
Y698540D01*
X439346D01*
Y698366D01*
X440216D01*
Y698192D01*
X440912D01*
Y698018D01*
X441434D01*
Y697844D01*
X442130D01*
Y697670D01*
X442478D01*
Y697496D01*
X443000D01*
Y697322D01*
X443522D01*
Y697148D01*
X443870D01*
Y696974D01*
X444218D01*
Y696800D01*
X444740D01*
Y696626D01*
X444914D01*
Y696452D01*
X445262D01*
Y696278D01*
X445610D01*
Y696452D01*
X445784D01*
Y696626D01*
X445958D01*
Y696800D01*
X446132D01*
Y697148D01*
X446306D01*
Y697322D01*
X446480D01*
Y697496D01*
X446654D01*
Y697670D01*
X446828D01*
Y698018D01*
X447002D01*
Y698192D01*
X447176D01*
Y698366D01*
X447350D01*
Y698540D01*
X447524D01*
Y698714D01*
X447698D01*
Y698888D01*
X447872D01*
Y699062D01*
X448046D01*
Y699410D01*
X448220D01*
Y699584D01*
X448394D01*
Y699758D01*
X448568D01*
Y699932D01*
X448742D01*
Y700106D01*
X448916D01*
Y700280D01*
X449090D01*
Y700454D01*
X449264D01*
Y700628D01*
X449438D01*
Y700802D01*
X449612D01*
Y700976D01*
X449786D01*
Y701150D01*
X449960D01*
Y701324D01*
X450134D01*
Y701498D01*
X450308D01*
Y701672D01*
X450482D01*
Y701846D01*
X450656D01*
Y702020D01*
X450830D01*
Y702194D01*
X451004D01*
Y702368D01*
X451178D01*
Y702542D01*
X451352D01*
Y702716D01*
X451700D01*
Y702890D01*
X451874D01*
Y703064D01*
X452048D01*
Y703238D01*
X452222D01*
Y703412D01*
X452396D01*
Y703586D01*
X452570D01*
Y703760D01*
X452744D01*
Y703934D01*
X453092D01*
Y704108D01*
X453266D01*
Y704282D01*
X453440D01*
Y704456D01*
X453614D01*
Y704630D01*
X453788D01*
Y704804D01*
X454136D01*
Y704978D01*
X454310D01*
Y705152D01*
X454484D01*
Y705326D01*
X454832D01*
Y705500D01*
X455006D01*
Y705674D01*
X455180D01*
Y705848D01*
X455528D01*
Y706022D01*
X455702D01*
Y706196D01*
X455876D01*
Y706370D01*
X456050D01*
Y706544D01*
X456398D01*
Y706718D01*
X456572D01*
Y706892D01*
X456920D01*
Y707066D01*
X457094D01*
Y707240D01*
X457442D01*
Y707414D01*
X457616D01*
Y707588D01*
X457964D01*
Y707762D01*
X458138D01*
Y707936D01*
X458486D01*
Y708110D01*
X458660D01*
Y708284D01*
X459008D01*
Y708458D01*
X459356D01*
Y708632D01*
X459530D01*
Y708806D01*
X459878D01*
Y708980D01*
X460226D01*
Y709154D01*
X460400D01*
Y709328D01*
X460748D01*
Y709502D01*
X461096D01*
Y709676D01*
X461444D01*
Y709850D01*
X461792D01*
Y710024D01*
X462140D01*
Y710198D01*
X462488D01*
Y710372D01*
X462836D01*
Y710546D01*
X463184D01*
Y710720D01*
X463532D01*
Y710894D01*
X463880D01*
Y711068D01*
X464228D01*
Y711242D01*
X464576D01*
Y711416D01*
X465098D01*
Y711590D01*
X465446D01*
Y711764D01*
X465968D01*
Y711938D01*
X466316D01*
Y712112D01*
X466838D01*
Y712286D01*
X467186D01*
Y712460D01*
X467708D01*
Y712634D01*
X468056D01*
Y712808D01*
X468578D01*
Y712982D01*
X469100D01*
Y713156D01*
X469796D01*
Y713330D01*
X470318D01*
Y713504D01*
X471014D01*
Y713678D01*
X471710D01*
Y713852D01*
X472580D01*
Y714026D01*
X473624D01*
Y714200D01*
X475016D01*
Y714374D01*
X475538D01*
Y714200D01*
X475712D01*
Y714374D01*
X475886D01*
Y714200D01*
X476930D01*
Y714026D01*
X477104D01*
Y712982D01*
X476930D01*
Y712460D01*
X476756D01*
Y712112D01*
X476582D01*
Y711764D01*
X476408D01*
Y711416D01*
X476234D01*
Y711068D01*
X476060D01*
Y710720D01*
X475886D01*
Y710372D01*
X475712D01*
Y710198D01*
X475538D01*
Y709850D01*
X475364D01*
Y709502D01*
X475190D01*
Y709154D01*
X475016D01*
Y708806D01*
X474842D01*
Y708632D01*
X474668D01*
Y708284D01*
X474494D01*
Y707936D01*
X474320D01*
Y707762D01*
X474146D01*
Y707414D01*
X473972D01*
Y707240D01*
X473798D01*
Y706892D01*
X473624D01*
Y706718D01*
X473450D01*
Y706370D01*
X473276D01*
Y706196D01*
X473102D01*
Y706022D01*
X472928D01*
Y705674D01*
X472754D01*
Y705500D01*
X472580D01*
Y705152D01*
X472406D01*
Y704978D01*
X472232D01*
Y704804D01*
X472058D01*
Y704630D01*
X471884D01*
Y704282D01*
X471710D01*
Y704108D01*
X471536D01*
Y703934D01*
X471362D01*
Y703760D01*
X471188D01*
Y703586D01*
X471014D01*
Y703238D01*
X470840D01*
Y703064D01*
X470666D01*
Y702890D01*
X470492D01*
Y702716D01*
X470318D01*
Y702542D01*
X470144D01*
Y702368D01*
X469970D01*
Y702194D01*
X469796D01*
Y702020D01*
X469622D01*
Y701846D01*
X469448D01*
Y701672D01*
X469274D01*
Y701498D01*
X469100D01*
Y701324D01*
X468926D01*
Y701150D01*
X468752D01*
Y700976D01*
X468578D01*
Y700802D01*
X468404D01*
Y700628D01*
X468230D01*
Y700454D01*
X468056D01*
Y700280D01*
X467882D01*
Y700106D01*
X467708D01*
Y699932D01*
X467534D01*
Y699758D01*
X467360D01*
Y699584D01*
X467186D01*
Y699410D01*
X467012D01*
Y699236D01*
X466838D01*
Y699062D01*
X466490D01*
Y698888D01*
X466316D01*
Y698714D01*
X466142D01*
Y698540D01*
X465968D01*
Y698366D01*
X465794D01*
Y698192D01*
X465446D01*
Y698018D01*
X465272D01*
Y697844D01*
X465098D01*
Y697670D01*
X464924D01*
Y697496D01*
X464576D01*
Y697322D01*
X464402D01*
Y697148D01*
X464228D01*
Y696974D01*
X463880D01*
Y696800D01*
X463706D01*
Y696626D01*
X463358D01*
Y696452D01*
X463184D01*
Y696278D01*
X463010D01*
Y696104D01*
X462662D01*
Y695930D01*
X462488D01*
Y695756D01*
X462314D01*
Y695582D01*
X461966D01*
Y695408D01*
X461792D01*
Y695234D01*
X461444D01*
Y695060D01*
X461270D01*
Y694886D01*
X460922D01*
Y694712D01*
X460748D01*
Y694538D01*
X460400D01*
Y694364D01*
X460226D01*
Y694190D01*
X459878D01*
Y694016D01*
X459530D01*
Y693842D01*
X459182D01*
Y693668D01*
X459008D01*
Y693494D01*
X458660D01*
Y693320D01*
X458312D01*
Y693146D01*
X457964D01*
Y692972D01*
X457790D01*
Y692798D01*
X457442D01*
Y692624D01*
X457094D01*
Y692450D01*
X456920D01*
Y692276D01*
X456572D01*
Y692102D01*
X456224D01*
Y691928D01*
X455876D01*
Y691754D01*
X455528D01*
Y691580D01*
X455180D01*
Y691406D01*
X454832D01*
Y691232D01*
X454658D01*
Y691058D01*
X454310D01*
Y690884D01*
X453962D01*
Y690710D01*
X453614D01*
Y690536D01*
X453266D01*
Y690362D01*
X452918D01*
Y690188D01*
X452744D01*
Y689840D01*
X452918D01*
Y689666D01*
X453092D01*
Y689318D01*
X453266D01*
Y689144D01*
X453440D01*
Y688796D01*
X453614D01*
Y688622D01*
X453788D01*
Y688448D01*
X453962D01*
Y688274D01*
X454484D01*
Y688448D01*
X454832D01*
Y688622D01*
X455180D01*
Y688796D01*
X455528D01*
Y688970D01*
X456050D01*
Y689144D01*
X456224D01*
Y689318D01*
X456572D01*
Y689492D01*
X457094D01*
Y689666D01*
X457442D01*
Y689840D01*
X457790D01*
Y690014D01*
X458138D01*
Y690188D01*
X458486D01*
Y690362D01*
X458834D01*
Y690536D01*
X459182D01*
Y690710D01*
X459530D01*
Y690884D01*
X459878D01*
Y691058D01*
X460226D01*
Y691232D01*
X460748D01*
Y691406D01*
X461096D01*
Y691580D01*
X461444D01*
Y691754D01*
X461792D01*
Y691928D01*
X462140D01*
Y692102D01*
X462488D01*
Y692276D01*
X463010D01*
Y692450D01*
X463358D01*
Y692624D01*
X463706D01*
Y692798D01*
X464228D01*
Y692972D01*
X464576D01*
Y693146D01*
X464924D01*
Y693320D01*
X465272D01*
Y693494D01*
X465794D01*
Y693668D01*
X466142D01*
Y693842D01*
X466490D01*
Y694016D01*
X467012D01*
Y694190D01*
X467360D01*
Y694364D01*
X467882D01*
Y694538D01*
X468230D01*
Y694712D01*
X468578D01*
Y694886D01*
X469100D01*
Y695060D01*
X469622D01*
Y695234D01*
X469970D01*
Y695408D01*
X470492D01*
Y695582D01*
X470840D01*
Y695756D01*
X471362D01*
Y695930D01*
X471884D01*
Y696104D01*
X472232D01*
Y696278D01*
X472754D01*
Y696452D01*
X473276D01*
Y696626D01*
X473624D01*
Y696800D01*
X474146D01*
Y696974D01*
X474668D01*
Y697148D01*
X475190D01*
Y697322D01*
X475712D01*
Y697496D01*
X476234D01*
Y697670D01*
X476756D01*
Y697844D01*
X477278D01*
Y698018D01*
X477626D01*
Y698192D01*
X478322D01*
Y698366D01*
X478844D01*
Y698540D01*
X479366D01*
Y698714D01*
X480062D01*
Y698888D01*
X480584D01*
Y699062D01*
X481280D01*
Y699236D01*
X481976D01*
Y699410D01*
X482498D01*
Y699584D01*
X483194D01*
Y699758D01*
X483890D01*
Y699932D01*
X484760D01*
Y700106D01*
X485630D01*
Y700280D01*
X487022D01*
Y700106D01*
X487196D01*
Y699584D01*
X487022D01*
Y697496D01*
X486848D01*
Y695756D01*
X486674D01*
Y694364D01*
X486500D01*
Y693146D01*
X486326D01*
Y691928D01*
X486152D01*
Y690884D01*
X485978D01*
Y689840D01*
X485804D01*
Y688796D01*
X485630D01*
Y687926D01*
X485456D01*
Y686882D01*
X485282D01*
Y686012D01*
X485108D01*
Y685142D01*
X484934D01*
Y684446D01*
X484760D01*
Y683576D01*
X484586D01*
Y682880D01*
X484412D01*
Y682184D01*
X484238D01*
Y681488D01*
X484064D01*
Y680792D01*
X483890D01*
Y680096D01*
X483716D01*
Y679400D01*
X483542D01*
Y678704D01*
X483368D01*
Y678182D01*
X483194D01*
Y677660D01*
X483020D01*
Y677312D01*
X482846D01*
Y677138D01*
X482672D01*
Y676964D01*
X481976D01*
Y676790D01*
X481280D01*
Y676616D01*
X480758D01*
Y676442D01*
X480062D01*
Y676268D01*
X479366D01*
Y676094D01*
X478670D01*
Y675920D01*
X477974D01*
Y675746D01*
X477278D01*
Y675572D01*
X476582D01*
Y675398D01*
X475886D01*
Y675224D01*
X475190D01*
Y675050D01*
X474668D01*
Y674876D01*
X473972D01*
Y674702D01*
X473276D01*
Y674528D01*
X472580D01*
Y674354D01*
X471884D01*
Y674180D01*
X471362D01*
Y674006D01*
X470666D01*
Y673832D01*
X469970D01*
Y673658D01*
X469448D01*
Y673484D01*
X468752D01*
Y673310D01*
X468056D01*
Y673136D01*
X467534D01*
Y672962D01*
X466838D01*
Y672788D01*
X466142D01*
Y672614D01*
X465446D01*
Y672440D01*
X464924D01*
Y672266D01*
X464228D01*
Y672092D01*
X463706D01*
Y671918D01*
X463184D01*
Y671744D01*
X462836D01*
Y671570D01*
X463010D01*
Y671396D01*
X463184D01*
Y671048D01*
X463358D01*
Y670874D01*
X463532D01*
Y670700D01*
X463706D01*
Y670526D01*
X463880D01*
Y670352D01*
X464054D01*
Y670178D01*
X464228D01*
Y670004D01*
X464402D01*
Y669830D01*
X464576D01*
Y669656D01*
X464750D01*
Y669308D01*
X464924D01*
Y669134D01*
X465098D01*
Y668960D01*
X465272D01*
Y668786D01*
X465446D01*
Y668612D01*
X465620D01*
Y668438D01*
X465794D01*
Y668264D01*
X465968D01*
Y668090D01*
X466142D01*
Y667916D01*
X466316D01*
Y667568D01*
X466490D01*
Y667394D01*
X466664D01*
Y667220D01*
X466838D01*
Y667046D01*
X467012D01*
Y666872D01*
X467186D01*
Y666698D01*
X467360D01*
Y666524D01*
X467534D01*
Y666350D01*
X467708D01*
Y666002D01*
X467882D01*
Y665828D01*
X468056D01*
Y665654D01*
X468230D01*
Y665480D01*
X468404D01*
Y665306D01*
X468578D01*
Y665132D01*
X468752D01*
Y664958D01*
X468926D01*
Y664784D01*
X469100D01*
Y664436D01*
X469274D01*
Y664262D01*
X469448D01*
Y664088D01*
X469622D01*
Y663914D01*
X469796D01*
Y663740D01*
X469970D01*
Y663566D01*
X470144D01*
Y663392D01*
X470318D01*
Y663218D01*
X470492D01*
Y663044D01*
X470666D01*
Y662696D01*
X470840D01*
Y662522D01*
X471014D01*
Y662348D01*
X471188D01*
Y662174D01*
X471362D01*
Y662000D01*
X471536D01*
Y661826D01*
X471710D01*
Y661652D01*
X471884D01*
Y661478D01*
X472058D01*
Y661130D01*
X472232D01*
Y660956D01*
X472406D01*
Y660782D01*
X472580D01*
Y660608D01*
X472754D01*
Y660434D01*
X472928D01*
Y660260D01*
X473102D01*
Y660086D01*
X473276D01*
Y659912D01*
X473450D01*
Y659216D01*
X473102D01*
Y659042D01*
X472754D01*
Y658868D01*
X472406D01*
Y658694D01*
X472058D01*
Y658520D01*
X471536D01*
Y658346D01*
X471188D01*
Y658172D01*
X470666D01*
Y657998D01*
X470318D01*
Y657824D01*
X469970D01*
Y657650D01*
X469622D01*
Y657476D01*
X469100D01*
Y657302D01*
X468752D01*
Y657128D01*
X468404D01*
Y656954D01*
X468056D01*
Y656780D01*
X467534D01*
Y656606D01*
X467186D01*
Y656432D01*
X466664D01*
Y656258D01*
X466316D01*
Y656084D01*
X465968D01*
Y655910D01*
X465446D01*
Y655736D01*
X465098D01*
Y655562D01*
X464750D01*
Y655388D01*
X464402D01*
Y655214D01*
X463880D01*
Y655040D01*
X463532D01*
Y654866D01*
X463010D01*
Y654692D01*
X462662D01*
Y654518D01*
X462314D01*
Y654344D01*
X461966D01*
Y654170D01*
X461444D01*
Y653996D01*
X461096D01*
Y653822D01*
X460748D01*
Y653648D01*
X460400D01*
Y653474D01*
X460052D01*
Y653300D01*
X460226D01*
Y653126D01*
X460400D01*
Y652778D01*
X460574D01*
Y652604D01*
X460748D01*
Y652430D01*
X460922D01*
Y652256D01*
X461096D01*
Y651908D01*
X461270D01*
Y651734D01*
X461444D01*
Y651560D01*
X461618D01*
Y651386D01*
X461792D01*
Y651212D01*
X461966D01*
Y651038D01*
X462140D01*
Y650690D01*
X462314D01*
Y650516D01*
X462488D01*
Y650342D01*
X462662D01*
Y650168D01*
X462836D01*
Y649994D01*
X463010D01*
Y649646D01*
X463184D01*
Y649472D01*
X463358D01*
Y648950D01*
X463184D01*
Y648776D01*
X462836D01*
Y648602D01*
X462314D01*
Y648428D01*
X461966D01*
Y648254D01*
X461444D01*
Y648080D01*
X461096D01*
Y647906D01*
X460574D01*
Y647732D01*
X460226D01*
Y647558D01*
X459878D01*
Y647384D01*
X459356D01*
Y647210D01*
X459008D01*
Y647036D01*
X458486D01*
Y646862D01*
X458138D01*
Y646688D01*
X457790D01*
Y646340D01*
X457964D01*
Y645992D01*
X458138D01*
Y645644D01*
X458312D01*
Y645470D01*
X458486D01*
Y645122D01*
X458660D01*
Y644774D01*
X458834D01*
Y644426D01*
X459008D01*
Y644078D01*
X459182D01*
Y643904D01*
X459356D01*
Y643556D01*
X459530D01*
Y643208D01*
X459704D01*
Y642860D01*
X459878D01*
Y642512D01*
X460052D01*
Y642164D01*
X460226D01*
Y641816D01*
X460400D01*
Y641468D01*
X460574D01*
Y641120D01*
X460748D01*
Y640598D01*
X460922D01*
Y640250D01*
X461096D01*
Y639728D01*
X461270D01*
Y639206D01*
X461444D01*
Y635726D01*
X461270D01*
Y635552D01*
X461618D01*
Y635726D01*
X461966D01*
Y635900D01*
X462140D01*
Y636074D01*
X462488D01*
Y636248D01*
X462836D01*
Y636422D01*
X463010D01*
Y636596D01*
X463358D01*
Y636770D01*
X463706D01*
Y636944D01*
X464054D01*
Y637118D01*
X464402D01*
Y637292D01*
X465794D01*
Y637118D01*
X467186D01*
Y636944D01*
X467360D01*
Y636422D01*
X467534D01*
Y636074D01*
X467708D01*
Y635900D01*
X467882D01*
Y634682D01*
X467708D01*
Y634160D01*
X467534D01*
Y633986D01*
X467360D01*
Y633638D01*
X467186D01*
Y633290D01*
X467012D01*
Y633116D01*
X466838D01*
Y632768D01*
X466664D01*
Y632594D01*
X466490D01*
Y632420D01*
X466316D01*
Y632072D01*
X466142D01*
Y631898D01*
X465968D01*
Y631724D01*
X465794D01*
Y631376D01*
X465620D01*
Y631202D01*
X465446D01*
Y631028D01*
X465272D01*
Y630680D01*
X465098D01*
Y630506D01*
X464924D01*
Y630332D01*
X464750D01*
Y630158D01*
X464576D01*
Y629984D01*
X464402D01*
Y629636D01*
X464228D01*
Y629462D01*
X464054D01*
Y629288D01*
X463880D01*
Y629114D01*
X463706D01*
Y628940D01*
X463532D01*
Y628766D01*
X463358D01*
Y628418D01*
X463184D01*
Y628244D01*
X463010D01*
Y628070D01*
X462836D01*
Y627896D01*
X462662D01*
Y627722D01*
X462488D01*
Y627548D01*
X462314D01*
Y627374D01*
X462140D01*
Y627200D01*
X461966D01*
Y627026D01*
X461792D01*
Y626852D01*
X461618D01*
Y626504D01*
X461444D01*
Y626330D01*
X461270D01*
Y626156D01*
X461096D01*
Y625982D01*
X460922D01*
Y625808D01*
X460748D01*
Y625634D01*
X460574D01*
Y625460D01*
X460226D01*
Y625286D01*
X460052D01*
Y625112D01*
X459878D01*
Y624938D01*
X459704D01*
Y624764D01*
X459530D01*
Y624590D01*
X459356D01*
Y624416D01*
X459182D01*
Y624242D01*
X459008D01*
Y624068D01*
X458834D01*
Y623894D01*
X458486D01*
Y623720D01*
X458312D01*
Y623546D01*
X458138D01*
Y623372D01*
X457964D01*
Y623198D01*
X457616D01*
Y623024D01*
X457442D01*
Y622850D01*
X457268D01*
Y622676D01*
X456920D01*
Y622502D01*
X456746D01*
Y622328D01*
X456398D01*
Y622154D01*
X456224D01*
Y621980D01*
X456050D01*
Y621806D01*
X455702D01*
Y621632D01*
X455528D01*
Y621458D01*
X455180D01*
Y621284D01*
X454832D01*
Y621110D01*
X454484D01*
Y620936D01*
X454136D01*
Y620762D01*
X453788D01*
Y620588D01*
X453440D01*
Y620414D01*
X452918D01*
Y620240D01*
X452222D01*
Y620066D01*
X451178D01*
Y620240D01*
X450656D01*
Y620414D01*
X450482D01*
Y620588D01*
X450134D01*
Y620936D01*
X449960D01*
Y621110D01*
X449786D01*
Y621284D01*
X448394D01*
Y621458D01*
X447698D01*
Y621632D01*
X447002D01*
Y621806D01*
X446654D01*
Y621980D01*
X446306D01*
Y622154D01*
X445784D01*
Y622328D01*
X445436D01*
Y622502D01*
X444914D01*
Y622328D01*
X444740D01*
Y621806D01*
X444566D01*
Y620762D01*
X444392D01*
Y620414D01*
X443522D01*
Y620588D01*
X443348D01*
Y620762D01*
X443000D01*
Y620588D01*
X442652D01*
Y620414D01*
X441782D01*
Y620588D01*
X441608D01*
Y620762D01*
X441434D01*
Y621110D01*
X440912D01*
Y620936D01*
X439694D01*
Y621110D01*
X439520D01*
Y621284D01*
X439346D01*
Y621632D01*
X438998D01*
Y621458D01*
X438650D01*
Y621284D01*
X437954D01*
Y621458D01*
X437780D01*
Y621632D01*
X437606D01*
Y621806D01*
X437432D01*
Y621980D01*
X437258D01*
Y622328D01*
X437084D01*
Y622502D01*
X436910D01*
Y622676D01*
X436388D01*
Y622850D01*
X436040D01*
Y623024D01*
X435866D01*
Y623198D01*
X435692D01*
Y623546D01*
X435866D01*
Y623894D01*
X436040D01*
Y624416D01*
X435518D01*
Y624242D01*
X435344D01*
Y624416D01*
X435170D01*
Y624242D01*
X434996D01*
Y624416D01*
X431690D01*
Y624242D01*
X429950D01*
Y623024D01*
X429776D01*
Y622850D01*
X428732D01*
Y622676D01*
X428558D01*
Y622154D01*
X428384D01*
Y621980D01*
X428210D01*
Y621806D01*
X427688D01*
Y621980D01*
X427340D01*
Y622154D01*
X427166D01*
Y622328D01*
X426992D01*
Y622154D01*
X426818D01*
Y621806D01*
X426644D01*
Y621458D01*
X426470D01*
Y621284D01*
X426296D01*
Y621110D01*
X426122D01*
Y620936D01*
X425774D01*
Y621110D01*
X425426D01*
Y621284D01*
X425252D01*
Y621458D01*
X425078D01*
Y621632D01*
X424556D01*
Y621458D01*
X424382D01*
Y621284D01*
X424208D01*
Y621110D01*
X424034D01*
Y620936D01*
X423860D01*
Y620762D01*
X423164D01*
Y620936D01*
X422990D01*
Y621110D01*
X422816D01*
Y621284D01*
X422642D01*
Y621458D01*
X422120D01*
Y621284D01*
X421424D01*
Y621110D01*
X420554D01*
Y622676D01*
X419858D01*
Y622502D01*
X419162D01*
Y622328D01*
X418292D01*
Y622154D01*
X416726D01*
Y621980D01*
X416204D01*
Y622154D01*
X416030D01*
Y621980D01*
X415508D01*
Y622154D01*
X414812D01*
Y622328D01*
X414116D01*
Y622154D01*
X413942D01*
Y621806D01*
X413768D01*
Y621632D01*
X413594D01*
Y621458D01*
X413420D01*
Y621284D01*
X413072D01*
Y621110D01*
X412724D01*
Y620936D01*
X410984D01*
Y621110D01*
X410462D01*
Y621284D01*
X410114D01*
Y621458D01*
X409766D01*
Y621632D01*
X409592D01*
Y621806D01*
X409244D01*
Y621980D01*
X408896D01*
Y622154D01*
X408722D01*
Y622328D01*
X408548D01*
Y622502D01*
X408374D01*
Y622676D01*
X408026D01*
Y622850D01*
X407852D01*
Y623024D01*
X407678D01*
Y623198D01*
X407504D01*
Y623372D01*
X407330D01*
Y623546D01*
X407156D01*
Y623720D01*
X406982D01*
Y623894D01*
X406808D01*
Y624068D01*
X406634D01*
Y624242D01*
X406460D01*
Y624416D01*
X406286D01*
Y624590D01*
X406112D01*
Y624764D01*
X405938D01*
Y624938D01*
X405764D01*
Y625112D01*
X405590D01*
Y625286D01*
X405416D01*
Y625460D01*
X405242D01*
Y625634D01*
X405068D01*
Y625808D01*
X404894D01*
Y625982D01*
X404720D01*
Y626156D01*
X404546D01*
Y626330D01*
X404372D01*
Y626678D01*
X404198D01*
Y626852D01*
X404024D01*
Y627026D01*
X403850D01*
Y627200D01*
X403676D01*
Y627374D01*
X403502D01*
Y627548D01*
X403328D01*
Y627722D01*
X403154D01*
Y628070D01*
X402980D01*
Y628244D01*
X402806D01*
Y628418D01*
X402632D01*
Y628592D01*
X402458D01*
Y628940D01*
X402284D01*
Y629114D01*
X402110D01*
Y629288D01*
X401936D01*
Y629462D01*
X401762D01*
Y629636D01*
X401588D01*
Y629984D01*
X401414D01*
Y630158D01*
X401240D01*
Y630332D01*
X401066D01*
Y630506D01*
X400892D01*
Y630854D01*
X400718D01*
Y631028D01*
X400544D01*
Y631202D01*
X400370D01*
Y631376D01*
X400196D01*
Y631724D01*
X400022D01*
Y631898D01*
X399848D01*
Y632072D01*
X399674D01*
Y632420D01*
X399500D01*
Y632594D01*
X399326D01*
Y632942D01*
X399152D01*
Y633116D01*
X398978D01*
Y633464D01*
X398804D01*
Y633812D01*
X398630D01*
Y634160D01*
X398456D01*
Y634334D01*
X398282D01*
Y634856D01*
X398108D01*
Y635204D01*
X397934D01*
Y636074D01*
X397760D01*
Y636248D01*
X397934D01*
Y636944D01*
X398108D01*
Y637292D01*
X398282D01*
Y637466D01*
X398630D01*
Y637814D01*
X398804D01*
Y638162D01*
X399152D01*
Y638336D01*
X400196D01*
Y638510D01*
X400370D01*
Y638684D01*
X400718D01*
Y638858D01*
X401936D01*
Y638684D01*
X402284D01*
Y638510D01*
X402632D01*
Y638336D01*
X402980D01*
Y638162D01*
X403154D01*
Y637988D01*
X403502D01*
Y637814D01*
X403676D01*
Y637640D01*
X403850D01*
Y637466D01*
X404198D01*
Y637292D01*
X404546D01*
Y637118D01*
X404894D01*
Y637814D01*
X404720D01*
Y638336D01*
X404894D01*
Y640076D01*
X405068D01*
Y640946D01*
X405242D01*
Y641468D01*
X405416D01*
Y641990D01*
X405590D01*
Y642512D01*
X405764D01*
Y642860D01*
X405938D01*
Y643208D01*
X406112D01*
Y643556D01*
X406286D01*
Y643904D01*
X406460D01*
Y644252D01*
X406634D01*
Y644426D01*
X406808D01*
Y644774D01*
X406982D01*
Y644948D01*
X407156D01*
Y645122D01*
X407330D01*
Y645470D01*
X407504D01*
Y645644D01*
X407678D01*
Y645992D01*
X407852D01*
Y646340D01*
X408026D01*
Y646514D01*
X408200D01*
Y646688D01*
X408374D01*
Y647036D01*
X408548D01*
Y647210D01*
X408722D01*
Y647558D01*
X408896D01*
Y647906D01*
X409070D01*
Y648080D01*
X409244D01*
Y648254D01*
X409418D01*
Y648602D01*
X409592D01*
Y648950D01*
X409766D01*
Y649124D01*
X409940D01*
Y649472D01*
X410114D01*
Y649646D01*
X410288D01*
Y649994D01*
X410462D01*
Y650168D01*
X410636D01*
Y650516D01*
X410810D01*
Y650864D01*
X410984D01*
Y651038D01*
X411158D01*
Y651386D01*
X411332D01*
Y651734D01*
X411506D01*
Y652082D01*
X411680D01*
Y652604D01*
X411854D01*
Y652952D01*
X412028D01*
Y653300D01*
X412202D01*
Y653822D01*
X412376D01*
Y654344D01*
X412550D01*
Y654866D01*
X412724D01*
Y655388D01*
X412898D01*
Y656084D01*
X413072D01*
Y656954D01*
X413246D01*
Y658172D01*
X413420D01*
Y660260D01*
X413594D01*
Y660782D01*
X413420D01*
Y660956D01*
X413246D01*
Y661130D01*
X413072D01*
Y661304D01*
X412898D01*
Y661478D01*
X412724D01*
Y661652D01*
X412550D01*
Y661826D01*
X412376D01*
Y662000D01*
X412202D01*
Y662174D01*
X412028D01*
Y662348D01*
X411854D01*
Y662522D01*
X411680D01*
Y662870D01*
X411506D01*
Y663044D01*
X411332D01*
Y663218D01*
X411158D01*
Y663566D01*
X410984D01*
Y663740D01*
X410810D01*
Y664088D01*
X410636D01*
Y664262D01*
X410462D01*
Y664610D01*
X410288D01*
Y664784D01*
X410114D01*
Y665132D01*
X409940D01*
Y665480D01*
X409766D01*
Y666002D01*
X409592D01*
Y666524D01*
X409418D01*
Y667046D01*
X409244D01*
Y668090D01*
X409070D01*
Y670004D01*
X409244D01*
Y670874D01*
X409418D01*
Y671744D01*
X409592D01*
Y672266D01*
X409766D01*
Y672962D01*
X409940D01*
Y673484D01*
X410114D01*
Y674180D01*
X410288D01*
Y674702D01*
X410462D01*
Y675224D01*
X410636D01*
Y675920D01*
X410810D01*
Y676442D01*
X410984D01*
Y685316D01*
X411158D01*
Y686186D01*
X411332D01*
Y686708D01*
X411506D01*
Y687230D01*
X411680D01*
Y687578D01*
X411854D01*
Y687926D01*
X412028D01*
Y688274D01*
X412202D01*
Y688622D01*
X412376D01*
Y688970D01*
X412550D01*
Y689144D01*
X412724D01*
Y689492D01*
X412898D01*
Y689666D01*
X413072D01*
Y689840D01*
X412898D01*
Y690014D01*
X412724D01*
Y690188D01*
X412376D01*
Y690362D01*
X412028D01*
Y690536D01*
X411680D01*
Y690710D01*
X411506D01*
Y690884D01*
X411158D01*
Y691058D01*
X410810D01*
Y691232D01*
X410636D01*
Y691406D01*
X410288D01*
Y691580D01*
X410114D01*
Y691754D01*
X409766D01*
Y691928D01*
X409592D01*
Y692102D01*
X409244D01*
Y692276D01*
X408896D01*
Y692450D01*
X408722D01*
Y692624D01*
X408374D01*
Y692798D01*
X408200D01*
Y692972D01*
X408026D01*
Y693146D01*
X407678D01*
Y693320D01*
X407504D01*
Y693494D01*
X407156D01*
Y693668D01*
X406982D01*
Y693842D01*
X406808D01*
Y694016D01*
X406460D01*
Y694190D01*
X406286D01*
Y694364D01*
X405938D01*
Y694538D01*
X405764D01*
Y694712D01*
X405590D01*
Y694886D01*
X405416D01*
Y695060D01*
X405068D01*
Y695234D01*
X404894D01*
Y695408D01*
X404720D01*
Y695582D01*
X404546D01*
Y695756D01*
X404198D01*
Y695930D01*
X404024D01*
Y696104D01*
X403850D01*
Y696278D01*
X403676D01*
Y696452D01*
X403502D01*
Y696626D01*
X403328D01*
Y696800D01*
X402980D01*
Y696974D01*
X402806D01*
Y697148D01*
X402632D01*
Y697322D01*
X402458D01*
Y697496D01*
X402284D01*
Y697670D01*
X402110D01*
Y697844D01*
X401936D01*
Y698018D01*
X401762D01*
Y698192D01*
X401588D01*
Y698366D01*
X401240D01*
Y698540D01*
X401066D01*
Y698714D01*
X400892D01*
Y698888D01*
X400718D01*
Y699062D01*
X400544D01*
Y699236D01*
X400370D01*
Y699410D01*
X400196D01*
Y699584D01*
X400022D01*
Y699758D01*
X399848D01*
Y699932D01*
X399674D01*
Y700106D01*
X399500D01*
Y700280D01*
X399326D01*
Y700454D01*
X399152D01*
Y700802D01*
X398978D01*
Y700976D01*
X398804D01*
Y701150D01*
X398630D01*
Y701324D01*
X398456D01*
Y701498D01*
X398282D01*
Y701672D01*
X398108D01*
Y701846D01*
X397934D01*
Y702020D01*
X397760D01*
Y702194D01*
X397586D01*
Y702368D01*
X397412D01*
Y702716D01*
X397238D01*
Y702890D01*
X397064D01*
Y703064D01*
X396890D01*
Y703238D01*
X396716D01*
Y703412D01*
X396542D01*
Y703586D01*
X396368D01*
Y703760D01*
X396194D01*
Y704108D01*
X396020D01*
Y704282D01*
X395846D01*
Y704456D01*
X395672D01*
Y704630D01*
X395498D01*
Y704978D01*
X395324D01*
Y705152D01*
X395150D01*
Y705326D01*
X394976D01*
Y705500D01*
X394802D01*
Y705848D01*
X394628D01*
Y706022D01*
X394454D01*
Y706196D01*
X394280D01*
Y706544D01*
X394106D01*
Y706718D01*
X393932D01*
Y706892D01*
X393758D01*
Y707240D01*
X393584D01*
Y707414D01*
X393410D01*
Y707588D01*
X393236D01*
Y707936D01*
X393062D01*
Y708110D01*
X392888D01*
Y708458D01*
X392714D01*
Y708632D01*
X392540D01*
Y708980D01*
X392366D01*
Y709154D01*
X392192D01*
Y709502D01*
X392018D01*
Y709676D01*
X391844D01*
Y710024D01*
X391670D01*
Y710198D01*
X391496D01*
Y710546D01*
X391322D01*
Y710894D01*
X391148D01*
Y711068D01*
X390974D01*
Y711416D01*
X390800D01*
Y711764D01*
X390626D01*
Y711938D01*
X390452D01*
Y712286D01*
X390278D01*
Y712634D01*
X390104D01*
Y712982D01*
X389930D01*
Y713330D01*
X389756D01*
Y713678D01*
X389582D01*
Y714026D01*
X389408D01*
Y714374D01*
X389234D01*
Y714896D01*
X389060D01*
Y715244D01*
X388886D01*
Y715766D01*
X388712D01*
Y716288D01*
X388538D01*
Y716984D01*
X388712D01*
Y717158D01*
X389060D01*
Y717332D01*
X390626D01*
Y717158D01*
D02*
G37*
%LPC*%
G36*
X396542Y714896D02*
X396368D01*
Y712460D01*
X396542D01*
Y711068D01*
X396716D01*
Y710024D01*
X396890D01*
Y708980D01*
X397064D01*
Y708110D01*
X397238D01*
Y707414D01*
X397412D01*
Y706544D01*
X397586D01*
Y705848D01*
X397760D01*
Y705152D01*
X397934D01*
Y704630D01*
X398108D01*
Y704108D01*
X398282D01*
Y703760D01*
X398456D01*
Y703238D01*
X398630D01*
Y702716D01*
X398804D01*
Y702368D01*
X398978D01*
Y702020D01*
X399152D01*
Y701672D01*
X399326D01*
Y701498D01*
X399500D01*
Y701324D01*
X399674D01*
Y700976D01*
X399848D01*
Y700802D01*
X400022D01*
Y700628D01*
X400196D01*
Y700454D01*
X400370D01*
Y700280D01*
X400544D01*
Y700106D01*
X400718D01*
Y699932D01*
X400892D01*
Y699758D01*
X401066D01*
Y699584D01*
X401240D01*
Y699410D01*
X401414D01*
Y699236D01*
X401588D01*
Y699062D01*
X401762D01*
Y698888D01*
X401936D01*
Y698714D01*
X402110D01*
Y698540D01*
X402284D01*
Y698366D01*
X402458D01*
Y698192D01*
X402632D01*
Y698018D01*
X402806D01*
Y697844D01*
X402980D01*
Y697670D01*
X403154D01*
Y697496D01*
X403502D01*
Y697322D01*
X403676D01*
Y697148D01*
X403850D01*
Y696974D01*
X404024D01*
Y696800D01*
X404198D01*
Y696626D01*
X404372D01*
Y696452D01*
X404546D01*
Y696278D01*
X404894D01*
Y696104D01*
X405068D01*
Y695930D01*
X405242D01*
Y695756D01*
X405416D01*
Y695582D01*
X405764D01*
Y695408D01*
X405938D01*
Y695234D01*
X406112D01*
Y695060D01*
X406286D01*
Y694886D01*
X406634D01*
Y694712D01*
X406808D01*
Y694538D01*
X406982D01*
Y694364D01*
X407156D01*
Y694190D01*
X407504D01*
Y694016D01*
X407678D01*
Y693842D01*
X408026D01*
Y693668D01*
X408200D01*
Y693494D01*
X408374D01*
Y693320D01*
X408722D01*
Y693146D01*
X408896D01*
Y692972D01*
X409070D01*
Y692798D01*
X409418D01*
Y692624D01*
X409766D01*
Y692450D01*
X409940D01*
Y692276D01*
X410288D01*
Y692102D01*
X410462D01*
Y691928D01*
X410810D01*
Y691754D01*
X410984D01*
Y691580D01*
X411332D01*
Y691406D01*
X411506D01*
Y691232D01*
X411854D01*
Y691058D01*
X412202D01*
Y690884D01*
X412550D01*
Y690710D01*
X412724D01*
Y690536D01*
X413072D01*
Y690362D01*
X413594D01*
Y690536D01*
X413768D01*
Y690710D01*
X413942D01*
Y690884D01*
X414116D01*
Y691058D01*
X414290D01*
Y691232D01*
X414464D01*
Y691406D01*
X414638D01*
Y691754D01*
X414812D01*
Y691928D01*
X415160D01*
Y692102D01*
X415334D01*
Y692276D01*
X415508D01*
Y691928D01*
X415334D01*
Y691754D01*
X415160D01*
Y691580D01*
X414986D01*
Y691406D01*
X414812D01*
Y691058D01*
X414638D01*
Y690884D01*
X414464D01*
Y690710D01*
X414290D01*
Y690536D01*
X414116D01*
Y690362D01*
X413942D01*
Y690014D01*
X413768D01*
Y689840D01*
X413594D01*
Y689666D01*
X413420D01*
Y689318D01*
X413246D01*
Y688970D01*
X413072D01*
Y688796D01*
X412898D01*
Y688448D01*
X412724D01*
Y688100D01*
X412550D01*
Y687752D01*
X412376D01*
Y687230D01*
X412202D01*
Y686708D01*
X412028D01*
Y686186D01*
X411854D01*
Y685316D01*
X411680D01*
Y683750D01*
X411506D01*
Y683402D01*
X411680D01*
Y677834D01*
X411506D01*
Y676268D01*
X411332D01*
Y675920D01*
Y675746D01*
Y675572D01*
X411158D01*
Y674702D01*
X410984D01*
Y674006D01*
X410810D01*
Y673136D01*
X410636D01*
Y672440D01*
X410462D01*
Y671744D01*
X410810D01*
Y671918D01*
X411158D01*
Y672092D01*
X411506D01*
Y672266D01*
X412376D01*
Y672440D01*
X413768D01*
Y672266D01*
X414464D01*
Y672092D01*
X414986D01*
Y671918D01*
X415334D01*
Y671744D01*
X415508D01*
Y671570D01*
X415856D01*
Y671396D01*
X416030D01*
Y671222D01*
X416378D01*
Y671048D01*
X416552D01*
Y670874D01*
X416726D01*
Y670700D01*
X416900D01*
Y670526D01*
X417074D01*
Y670352D01*
X417248D01*
Y670178D01*
X417422D01*
Y670004D01*
X417596D01*
Y669830D01*
X417770D01*
Y669482D01*
X417944D01*
Y669134D01*
X418118D01*
Y668786D01*
X418292D01*
Y668438D01*
X418466D01*
Y667916D01*
X418640D01*
Y667394D01*
X418814D01*
Y664784D01*
X418640D01*
Y664262D01*
X418466D01*
Y663914D01*
X418292D01*
Y663566D01*
X418118D01*
Y663392D01*
X417944D01*
Y663044D01*
X417770D01*
Y662870D01*
X417596D01*
Y662696D01*
X417422D01*
Y662522D01*
X417248D01*
Y662348D01*
X417074D01*
Y662174D01*
X416900D01*
Y662000D01*
X416552D01*
Y661826D01*
X416378D01*
Y661652D01*
X416030D01*
Y661478D01*
X415508D01*
Y661304D01*
X415160D01*
Y661130D01*
X414464D01*
Y660956D01*
X414638D01*
Y660782D01*
X414812D01*
Y660608D01*
X414986D01*
Y660434D01*
X415160D01*
Y660260D01*
X415334D01*
Y660086D01*
X415508D01*
Y659912D01*
X415856D01*
Y659738D01*
X416030D01*
Y659564D01*
X416204D01*
Y659390D01*
X416552D01*
Y659216D01*
X416726D01*
Y659042D01*
X416900D01*
Y658868D01*
X417074D01*
Y658694D01*
X417422D01*
Y658520D01*
X417596D01*
Y658346D01*
X417944D01*
Y658172D01*
X418118D01*
Y657998D01*
X418466D01*
Y657824D01*
X418640D01*
Y657650D01*
X418814D01*
Y657476D01*
X419162D01*
Y657302D01*
X419510D01*
Y657128D01*
X419684D01*
Y656954D01*
X420032D01*
Y656780D01*
X420206D01*
Y656606D01*
X420554D01*
Y656432D01*
X420902D01*
Y656258D01*
X421076D01*
Y656084D01*
X421424D01*
Y655910D01*
X421772D01*
Y655736D01*
X422120D01*
Y655562D01*
X422468D01*
Y655388D01*
X422816D01*
Y655214D01*
X423164D01*
Y655040D01*
X423512D01*
Y654866D01*
X423686D01*
Y654692D01*
X424034D01*
Y654518D01*
X423338D01*
Y654692D01*
X422990D01*
Y654866D01*
X422642D01*
Y655040D01*
X422294D01*
Y655214D01*
X421772D01*
Y655388D01*
X421424D01*
Y655562D01*
X421250D01*
Y655736D01*
X420902D01*
Y655910D01*
X420554D01*
Y656084D01*
X420206D01*
Y656258D01*
X419858D01*
Y656432D01*
X419510D01*
Y656606D01*
X419162D01*
Y656780D01*
X418814D01*
Y656954D01*
X418640D01*
Y657128D01*
X418292D01*
Y657302D01*
X418118D01*
Y657476D01*
X417770D01*
Y657650D01*
X417422D01*
Y657824D01*
X417248D01*
Y657998D01*
X416900D01*
Y658172D01*
X416726D01*
Y658346D01*
X416378D01*
Y658520D01*
X416204D01*
Y658694D01*
X415856D01*
Y658868D01*
X415682D01*
Y659042D01*
X415508D01*
Y659216D01*
X415334D01*
Y659390D01*
X414986D01*
Y659564D01*
X414812D01*
Y659738D01*
X414638D01*
Y659912D01*
X414290D01*
Y660086D01*
X414116D01*
Y658694D01*
X413942D01*
Y657302D01*
X413768D01*
Y656432D01*
X413594D01*
Y655736D01*
X413420D01*
Y655040D01*
X413246D01*
Y654518D01*
X413072D01*
Y653996D01*
X412898D01*
Y653474D01*
X412724D01*
Y652952D01*
X412550D01*
Y652604D01*
X412376D01*
Y652256D01*
X412202D01*
Y651908D01*
X412028D01*
Y651560D01*
X411854D01*
Y651212D01*
X411680D01*
Y650864D01*
X411506D01*
Y650516D01*
X411332D01*
Y650168D01*
X411158D01*
Y649994D01*
X410984D01*
Y649646D01*
X410810D01*
Y649298D01*
X410636D01*
Y649124D01*
X410462D01*
Y648776D01*
X410288D01*
Y648428D01*
X410114D01*
Y648254D01*
X409940D01*
Y647906D01*
X409766D01*
Y647558D01*
X409592D01*
Y647384D01*
X409418D01*
Y647036D01*
X409244D01*
Y646688D01*
X409070D01*
Y646514D01*
X408896D01*
Y646166D01*
X408722D01*
Y645992D01*
X408548D01*
Y645644D01*
X408374D01*
Y645470D01*
X408200D01*
Y645122D01*
X408026D01*
Y644774D01*
X407852D01*
Y644600D01*
X407678D01*
Y644252D01*
X407504D01*
Y644078D01*
X407330D01*
Y643730D01*
X407156D01*
Y643556D01*
X406982D01*
Y643208D01*
X406808D01*
Y642860D01*
X406634D01*
Y642512D01*
X406460D01*
Y642164D01*
X406286D01*
Y641642D01*
X406112D01*
Y641120D01*
X405938D01*
Y640598D01*
X405764D01*
Y639728D01*
X405590D01*
Y638336D01*
X405416D01*
Y636770D01*
X405590D01*
Y636422D01*
X405764D01*
Y636074D01*
X405938D01*
Y635900D01*
X406286D01*
Y635726D01*
X406460D01*
Y635552D01*
X406634D01*
Y635378D01*
X406808D01*
Y635204D01*
X406982D01*
Y635030D01*
X407156D01*
Y634856D01*
X407330D01*
Y634682D01*
X407504D01*
Y634508D01*
X407678D01*
Y634334D01*
X407852D01*
Y634160D01*
X408026D01*
Y633986D01*
X408200D01*
Y633812D01*
X408374D01*
Y633464D01*
X408200D01*
Y633638D01*
X407852D01*
Y633812D01*
X407678D01*
Y633986D01*
X407504D01*
Y634160D01*
X407330D01*
Y634334D01*
X407156D01*
Y634508D01*
X406982D01*
Y634682D01*
X406634D01*
Y634856D01*
X406460D01*
Y635030D01*
X406286D01*
Y635204D01*
X406112D01*
Y635378D01*
X405938D01*
Y635552D01*
X405590D01*
Y635726D01*
X405416D01*
Y635900D01*
X405242D01*
Y636074D01*
X405068D01*
Y636248D01*
X404720D01*
Y636422D01*
X404546D01*
Y636596D01*
X404372D01*
Y636770D01*
X404024D01*
Y636944D01*
X403850D01*
Y637118D01*
X403502D01*
Y637292D01*
X403328D01*
Y637466D01*
X402980D01*
Y637640D01*
X402806D01*
Y637814D01*
X402458D01*
Y637988D01*
X402284D01*
Y638162D01*
X401936D01*
Y638336D01*
X401414D01*
Y638510D01*
X400892D01*
Y638336D01*
X400718D01*
Y637118D01*
X400892D01*
Y636770D01*
X401066D01*
Y636422D01*
X401240D01*
Y636074D01*
X401414D01*
Y635900D01*
X401588D01*
Y635552D01*
X401762D01*
Y635378D01*
X401936D01*
Y635030D01*
X402110D01*
Y634856D01*
X402284D01*
Y634682D01*
X402458D01*
Y634334D01*
X402632D01*
Y634160D01*
X402806D01*
Y633986D01*
X402980D01*
Y633638D01*
X403154D01*
Y633464D01*
X403502D01*
Y633116D01*
X403676D01*
Y632942D01*
X403850D01*
Y632768D01*
X404024D01*
Y632246D01*
X403850D01*
Y632420D01*
X403502D01*
Y632594D01*
X403328D01*
Y632768D01*
X403154D01*
Y632942D01*
X402980D01*
Y633290D01*
X402806D01*
Y633464D01*
X402632D01*
Y633638D01*
X402458D01*
Y633986D01*
X402284D01*
Y634160D01*
X402110D01*
Y634334D01*
X401936D01*
Y634682D01*
X401762D01*
Y634856D01*
X401588D01*
Y635030D01*
X401414D01*
Y635378D01*
X401240D01*
Y635552D01*
X401066D01*
Y635900D01*
X400892D01*
Y636074D01*
X400718D01*
Y636422D01*
X400544D01*
Y636770D01*
X400370D01*
Y637292D01*
X400196D01*
Y637814D01*
X400022D01*
Y637988D01*
X399674D01*
Y637814D01*
X399326D01*
Y637640D01*
X399152D01*
Y637292D01*
X398978D01*
Y636944D01*
X399152D01*
Y636422D01*
X399326D01*
Y635900D01*
X399500D01*
Y635726D01*
X399674D01*
Y635378D01*
X399848D01*
Y635204D01*
X400022D01*
Y634856D01*
X400196D01*
Y634682D01*
X400370D01*
Y634334D01*
X400544D01*
Y634160D01*
X400718D01*
Y633986D01*
X400892D01*
Y633638D01*
X401066D01*
Y633464D01*
X401240D01*
Y633290D01*
X401414D01*
Y633116D01*
X401588D01*
Y632942D01*
X401762D01*
Y632768D01*
X401936D01*
Y632594D01*
X402110D01*
Y632246D01*
X402284D01*
Y632072D01*
X401762D01*
Y632246D01*
X401588D01*
Y632420D01*
X401414D01*
Y632594D01*
X401240D01*
Y632768D01*
X401066D01*
Y632942D01*
X400892D01*
Y633290D01*
X400718D01*
Y633464D01*
X400544D01*
Y633638D01*
X400370D01*
Y633812D01*
X400196D01*
Y634160D01*
X400022D01*
Y634334D01*
X399848D01*
Y634508D01*
X399674D01*
Y634682D01*
X399500D01*
Y635030D01*
X399326D01*
Y635204D01*
X399152D01*
Y635552D01*
X398978D01*
Y635726D01*
X398804D01*
Y636248D01*
X398630D01*
Y636596D01*
X398456D01*
Y635552D01*
X398630D01*
Y635030D01*
X398804D01*
Y634682D01*
X398978D01*
Y634334D01*
X399152D01*
Y633986D01*
X399326D01*
Y633638D01*
X399500D01*
Y633464D01*
X399674D01*
Y633116D01*
X399848D01*
Y632942D01*
X400022D01*
Y632594D01*
X400196D01*
Y632420D01*
X400370D01*
Y632246D01*
X400544D01*
Y632072D01*
X400718D01*
Y631898D01*
X400892D01*
Y631550D01*
X401066D01*
Y631376D01*
X401240D01*
Y631028D01*
X401414D01*
Y630854D01*
X401588D01*
Y630680D01*
X401762D01*
Y630506D01*
X401936D01*
Y630332D01*
X402110D01*
Y630158D01*
X402284D01*
Y629984D01*
X402458D01*
Y629636D01*
X402632D01*
Y629462D01*
X402806D01*
Y629288D01*
X402980D01*
Y629114D01*
X403154D01*
Y628940D01*
X403328D01*
Y628766D01*
X403502D01*
Y628418D01*
X403676D01*
Y628244D01*
X403850D01*
Y628070D01*
X404024D01*
Y627896D01*
X404198D01*
Y627722D01*
X404372D01*
Y627548D01*
X404546D01*
Y627200D01*
X404894D01*
Y626852D01*
X405068D01*
Y626678D01*
X405242D01*
Y626504D01*
X405416D01*
Y626330D01*
X405590D01*
Y626156D01*
X405764D01*
Y625982D01*
X405938D01*
Y625808D01*
X406112D01*
Y625634D01*
X406286D01*
Y625460D01*
X406460D01*
Y625286D01*
X406634D01*
Y625112D01*
X406808D01*
Y624938D01*
X406982D01*
Y624764D01*
X407156D01*
Y624590D01*
X407330D01*
Y624416D01*
X407504D01*
Y624242D01*
X407678D01*
Y624068D01*
X407852D01*
Y623894D01*
X408026D01*
Y623720D01*
X408200D01*
Y623546D01*
X408374D01*
Y623372D01*
X408548D01*
Y623198D01*
X408722D01*
Y623024D01*
X409070D01*
Y622850D01*
X409244D01*
Y622676D01*
X409418D01*
Y622502D01*
X409766D01*
Y622328D01*
X409940D01*
Y622154D01*
X410288D01*
Y621980D01*
X410636D01*
Y621806D01*
X410984D01*
Y621632D01*
X411506D01*
Y621458D01*
X412550D01*
Y621632D01*
X412898D01*
Y621806D01*
X413072D01*
Y621980D01*
X413246D01*
Y622154D01*
X413420D01*
Y622328D01*
X413594D01*
Y622676D01*
X413768D01*
Y623024D01*
X413942D01*
Y624416D01*
X414116D01*
Y624590D01*
X413942D01*
Y625460D01*
X414116D01*
Y625808D01*
X414464D01*
Y625286D01*
X414638D01*
Y623198D01*
X414464D01*
Y623024D01*
X414638D01*
Y622850D01*
X414986D01*
Y622676D01*
X417770D01*
Y622850D01*
X418814D01*
Y623024D01*
X419684D01*
Y623198D01*
X419858D01*
Y623372D01*
X419684D01*
Y623546D01*
X419510D01*
Y623720D01*
X419336D01*
Y623894D01*
X419162D01*
Y624068D01*
X418988D01*
Y624242D01*
X418814D01*
Y624590D01*
X418640D01*
Y624764D01*
X418466D01*
Y624938D01*
X418292D01*
Y625112D01*
X418118D01*
Y625286D01*
X417944D01*
Y625460D01*
X417770D01*
Y625634D01*
X417596D01*
Y625982D01*
X417422D01*
Y626156D01*
X417248D01*
Y626504D01*
X417074D01*
Y626678D01*
X416900D01*
Y626852D01*
X416726D01*
Y627026D01*
X416552D01*
Y627374D01*
X416378D01*
Y627548D01*
X416204D01*
Y627896D01*
X416030D01*
Y628070D01*
X415856D01*
Y628418D01*
X415682D01*
Y628592D01*
X415508D01*
Y628940D01*
X415334D01*
Y629288D01*
X415160D01*
Y629462D01*
X414986D01*
Y629810D01*
X414812D01*
Y630158D01*
X414638D01*
Y630332D01*
X414464D01*
Y630680D01*
X414290D01*
Y631028D01*
X414116D01*
Y631376D01*
X413942D01*
Y631724D01*
X413768D01*
Y632072D01*
X413594D01*
Y632420D01*
X413420D01*
Y632768D01*
X413246D01*
Y633290D01*
X413072D01*
Y633638D01*
X412898D01*
Y634160D01*
X412724D01*
Y634682D01*
X412550D01*
Y635204D01*
X412376D01*
Y635900D01*
X412202D01*
Y636596D01*
X412028D01*
Y637292D01*
X411854D01*
Y638510D01*
X411680D01*
Y640076D01*
X411854D01*
Y639902D01*
X412028D01*
Y639380D01*
X412202D01*
Y638336D01*
X412376D01*
Y637640D01*
X412550D01*
Y636944D01*
X412724D01*
Y636248D01*
X412898D01*
Y635726D01*
X413072D01*
Y635204D01*
X413246D01*
Y634856D01*
X413420D01*
Y634334D01*
X413594D01*
Y633986D01*
X413768D01*
Y633638D01*
X413942D01*
Y633116D01*
X414116D01*
Y632768D01*
X414290D01*
Y632420D01*
X414464D01*
Y632072D01*
X414638D01*
Y631724D01*
X414812D01*
Y631376D01*
X414986D01*
Y631028D01*
X415160D01*
Y630854D01*
X415334D01*
Y630506D01*
X415508D01*
Y630158D01*
X415682D01*
Y629810D01*
X415856D01*
Y629636D01*
X416030D01*
Y629288D01*
X416204D01*
Y629114D01*
X416378D01*
Y628766D01*
X416552D01*
Y628418D01*
X416726D01*
Y628244D01*
X416900D01*
Y627896D01*
X417074D01*
Y627722D01*
X417248D01*
Y627374D01*
X417422D01*
Y627200D01*
X417596D01*
Y627026D01*
X417770D01*
Y626678D01*
X417944D01*
Y626504D01*
X418118D01*
Y626156D01*
X418292D01*
Y625982D01*
X418466D01*
Y625808D01*
X418640D01*
Y625460D01*
X418814D01*
Y625286D01*
X418988D01*
Y625112D01*
X419162D01*
Y624938D01*
X419336D01*
Y624590D01*
X419510D01*
Y624416D01*
X419684D01*
Y624242D01*
X419858D01*
Y624068D01*
X420032D01*
Y623894D01*
X420206D01*
Y623546D01*
X420380D01*
Y623372D01*
X420554D01*
Y623198D01*
X420728D01*
Y623024D01*
X420902D01*
Y622676D01*
X421076D01*
Y621632D01*
X421772D01*
Y621806D01*
X422294D01*
Y621980D01*
X422642D01*
Y621806D01*
X422990D01*
Y621632D01*
X423164D01*
Y621284D01*
X423686D01*
Y621458D01*
X423860D01*
Y621632D01*
X424034D01*
Y621806D01*
X424382D01*
Y621980D01*
X424556D01*
Y622154D01*
X424730D01*
Y622328D01*
X425078D01*
Y622154D01*
X425252D01*
Y621980D01*
X425426D01*
Y621806D01*
X425600D01*
Y621632D01*
X426122D01*
Y621980D01*
X426296D01*
Y622154D01*
X426470D01*
Y622328D01*
X426644D01*
Y622676D01*
X426818D01*
Y622850D01*
X427166D01*
Y622676D01*
X427514D01*
Y622502D01*
X427688D01*
Y622328D01*
X428036D01*
Y622502D01*
X428210D01*
Y622850D01*
X428384D01*
Y623024D01*
X428558D01*
Y623198D01*
X429254D01*
Y623372D01*
X429428D01*
Y624764D01*
X429602D01*
Y626852D01*
X429776D01*
Y628940D01*
X429950D01*
Y631724D01*
X430124D01*
Y636770D01*
X429950D01*
Y639554D01*
X429776D01*
Y641294D01*
X429602D01*
Y642512D01*
X429428D01*
Y643556D01*
X429254D01*
Y644600D01*
X429080D01*
Y645296D01*
X428906D01*
Y646166D01*
X428732D01*
Y646862D01*
X428558D01*
Y647558D01*
X428384D01*
Y648254D01*
X428210D01*
Y648950D01*
X428558D01*
Y648428D01*
X428732D01*
Y647906D01*
X428906D01*
Y647384D01*
X429080D01*
Y646862D01*
X429254D01*
Y646166D01*
X429428D01*
Y645470D01*
X429602D01*
Y644774D01*
X429776D01*
Y643904D01*
X429950D01*
Y643034D01*
X430124D01*
Y641990D01*
X430298D01*
Y640772D01*
X430472D01*
Y639206D01*
X430646D01*
Y636596D01*
X430820D01*
Y631550D01*
X430646D01*
Y631376D01*
X430820D01*
Y631202D01*
X430646D01*
Y628940D01*
X430472D01*
Y627200D01*
X430298D01*
Y625808D01*
X430124D01*
Y624938D01*
X431516D01*
Y625112D01*
X436562D01*
Y626156D01*
X436388D01*
Y627200D01*
X436214D01*
Y628418D01*
X436040D01*
Y630332D01*
X435866D01*
Y633986D01*
X436040D01*
Y636596D01*
X436214D01*
Y638684D01*
X436388D01*
Y640076D01*
X436562D01*
Y641120D01*
X436736D01*
Y642164D01*
X436910D01*
Y643034D01*
X437084D01*
Y643730D01*
X437258D01*
Y644426D01*
X437432D01*
Y645122D01*
X437606D01*
Y645644D01*
X437780D01*
Y646166D01*
X437954D01*
Y646688D01*
X438128D01*
Y647210D01*
X438302D01*
Y647732D01*
X438476D01*
Y648080D01*
X438650D01*
Y648428D01*
X438824D01*
Y648950D01*
X438998D01*
Y649298D01*
X439172D01*
Y649472D01*
X439520D01*
Y649124D01*
X439346D01*
Y648602D01*
X439172D01*
Y648080D01*
X438998D01*
Y647558D01*
X438824D01*
Y647036D01*
X438650D01*
Y646340D01*
X438476D01*
Y645818D01*
X438302D01*
Y645122D01*
X438128D01*
Y644426D01*
X437954D01*
Y643904D01*
X437780D01*
Y643034D01*
X437606D01*
Y641990D01*
X437432D01*
Y641120D01*
X437258D01*
Y639728D01*
X437084D01*
Y638510D01*
X436910D01*
Y637118D01*
X436736D01*
Y635378D01*
X436562D01*
Y628940D01*
X436736D01*
Y627548D01*
X436910D01*
Y626678D01*
X437084D01*
Y624590D01*
X436910D01*
Y624242D01*
X436736D01*
Y624068D01*
X436562D01*
Y623720D01*
X436388D01*
Y623372D01*
X436562D01*
Y623198D01*
X436910D01*
Y623024D01*
X437258D01*
Y622850D01*
X437432D01*
Y622676D01*
X437606D01*
Y622328D01*
X437780D01*
Y621980D01*
X437954D01*
Y621806D01*
X438824D01*
Y621980D01*
X439520D01*
Y621806D01*
X439694D01*
Y621632D01*
X439868D01*
Y621458D01*
X440042D01*
Y621284D01*
X440738D01*
Y621458D01*
X440912D01*
Y621632D01*
X441260D01*
Y621806D01*
X441434D01*
Y621632D01*
X441608D01*
Y621284D01*
X441782D01*
Y621110D01*
X441956D01*
Y620936D01*
X442478D01*
Y621110D01*
X442826D01*
Y621284D01*
X443522D01*
Y621110D01*
X444044D01*
Y621980D01*
X444218D01*
Y622502D01*
X444392D01*
Y622676D01*
X444566D01*
Y622850D01*
X444740D01*
Y623024D01*
X444914D01*
Y623198D01*
X445088D01*
Y623546D01*
X445262D01*
Y623720D01*
X445436D01*
Y623894D01*
X445610D01*
Y624242D01*
X445784D01*
Y624416D01*
X445958D01*
Y624764D01*
X446132D01*
Y624938D01*
X446306D01*
Y625286D01*
X446480D01*
Y625460D01*
X446654D01*
Y625808D01*
X446828D01*
Y625982D01*
X447002D01*
Y626330D01*
X447176D01*
Y626504D01*
X447350D01*
Y626852D01*
X447524D01*
Y627200D01*
X447698D01*
Y627374D01*
X447872D01*
Y627722D01*
X448046D01*
Y628070D01*
X448220D01*
Y628418D01*
X448394D01*
Y628592D01*
X448568D01*
Y628940D01*
X448742D01*
Y629288D01*
X448916D01*
Y629636D01*
X449090D01*
Y629810D01*
X449264D01*
Y630332D01*
X449438D01*
Y630506D01*
X449612D01*
Y630854D01*
X449786D01*
Y631202D01*
X449960D01*
Y631550D01*
X450134D01*
Y631898D01*
X450308D01*
Y632246D01*
X450482D01*
Y632594D01*
X450656D01*
Y633116D01*
X450830D01*
Y633464D01*
X451004D01*
Y633812D01*
X451178D01*
Y634160D01*
X451352D01*
Y634682D01*
X451526D01*
Y635030D01*
X451700D01*
Y635552D01*
X451874D01*
Y635900D01*
X452048D01*
Y636422D01*
X452222D01*
Y636944D01*
X452396D01*
Y637292D01*
X452570D01*
Y637814D01*
X452744D01*
Y638336D01*
X452918D01*
Y639032D01*
X453092D01*
Y639728D01*
X453266D01*
Y640424D01*
X453440D01*
Y641120D01*
X453614D01*
Y641816D01*
X453788D01*
Y642338D01*
X454136D01*
Y641120D01*
X453962D01*
Y640076D01*
X453788D01*
Y639206D01*
X453614D01*
Y638510D01*
X453440D01*
Y637814D01*
X453266D01*
Y637292D01*
X453092D01*
Y636770D01*
X452918D01*
Y636248D01*
X452744D01*
Y635726D01*
X452570D01*
Y635204D01*
X452396D01*
Y634682D01*
X452222D01*
Y634334D01*
X452048D01*
Y633986D01*
X451874D01*
Y633464D01*
X451700D01*
Y633116D01*
X451526D01*
Y632768D01*
X451352D01*
Y632420D01*
X451178D01*
Y631898D01*
X451004D01*
Y631550D01*
X450830D01*
Y631376D01*
X450656D01*
Y630854D01*
X450482D01*
Y630506D01*
X450308D01*
Y630158D01*
X450134D01*
Y629984D01*
X449960D01*
Y629636D01*
X449786D01*
Y629288D01*
X449612D01*
Y628766D01*
X449438D01*
Y628592D01*
X449264D01*
Y628244D01*
X449090D01*
Y627896D01*
X448916D01*
Y627722D01*
X448742D01*
Y627374D01*
X448568D01*
Y627200D01*
X448394D01*
Y626852D01*
X448220D01*
Y626504D01*
X448046D01*
Y626330D01*
X447872D01*
Y625982D01*
X447698D01*
Y625808D01*
X447524D01*
Y625460D01*
X447350D01*
Y625286D01*
X447176D01*
Y625112D01*
X447002D01*
Y624764D01*
X446828D01*
Y624590D01*
X446654D01*
Y624242D01*
X446480D01*
Y624068D01*
X446306D01*
Y623894D01*
X446132D01*
Y623546D01*
X445958D01*
Y623372D01*
X445784D01*
Y623024D01*
X445958D01*
Y622850D01*
X446306D01*
Y622676D01*
X446654D01*
Y622502D01*
X447002D01*
Y622328D01*
X447350D01*
Y622154D01*
X447872D01*
Y621980D01*
X448394D01*
Y621806D01*
X449612D01*
Y621980D01*
X449786D01*
Y622676D01*
X449960D01*
Y623198D01*
X450134D01*
Y623546D01*
X450308D01*
Y623894D01*
X450482D01*
Y624242D01*
X450656D01*
Y624416D01*
X451004D01*
Y623720D01*
X450830D01*
Y623372D01*
X450656D01*
Y623024D01*
X450482D01*
Y622502D01*
X450308D01*
Y621632D01*
X450482D01*
Y621284D01*
X450656D01*
Y621110D01*
X450830D01*
Y620936D01*
X452570D01*
Y621110D01*
X453092D01*
Y621284D01*
X453614D01*
Y621458D01*
X453788D01*
Y621632D01*
X454136D01*
Y621806D01*
X454484D01*
Y621980D01*
X454832D01*
Y622154D01*
X455006D01*
Y622328D01*
X455354D01*
Y622502D01*
X455528D01*
Y622676D01*
X455702D01*
Y622850D01*
X456050D01*
Y623024D01*
X456398D01*
Y623198D01*
X456572D01*
Y623372D01*
X456746D01*
Y623546D01*
X457094D01*
Y623720D01*
X457268D01*
Y623894D01*
X457442D01*
Y624068D01*
X457790D01*
Y624242D01*
X457964D01*
Y624416D01*
X458138D01*
Y624590D01*
X458312D01*
Y624764D01*
X458486D01*
Y624938D01*
X458834D01*
Y625112D01*
X459008D01*
Y625286D01*
X459182D01*
Y625460D01*
X459356D01*
Y625634D01*
X459530D01*
Y625808D01*
X459704D01*
Y625982D01*
X459878D01*
Y626156D01*
X460052D01*
Y626330D01*
X460226D01*
Y626504D01*
X460400D01*
Y626678D01*
X460574D01*
Y626852D01*
X460748D01*
Y627026D01*
X460922D01*
Y627200D01*
X461096D01*
Y627374D01*
X461270D01*
Y627548D01*
X461444D01*
Y627722D01*
X461618D01*
Y627896D01*
X461792D01*
Y628070D01*
X461966D01*
Y628244D01*
X462140D01*
Y628418D01*
X462314D01*
Y628592D01*
X462488D01*
Y628940D01*
X462662D01*
Y629114D01*
X462836D01*
Y629288D01*
X463010D01*
Y629462D01*
X463184D01*
Y629636D01*
X463358D01*
Y629810D01*
X463532D01*
Y629984D01*
X463706D01*
Y630158D01*
X463880D01*
Y630332D01*
X464054D01*
Y630506D01*
X464228D01*
Y630680D01*
X464402D01*
Y630854D01*
X464576D01*
Y631028D01*
X464750D01*
Y631376D01*
X464924D01*
Y631550D01*
X465098D01*
Y631724D01*
X465272D01*
Y631898D01*
X465446D01*
Y632246D01*
X465620D01*
Y632420D01*
X465794D01*
Y632594D01*
X465968D01*
Y632768D01*
X466142D01*
Y633116D01*
X466316D01*
Y633290D01*
X466490D01*
Y633464D01*
X466664D01*
Y633812D01*
X466838D01*
Y633986D01*
X467012D01*
Y634334D01*
X467186D01*
Y634508D01*
X467360D01*
Y635030D01*
X467534D01*
Y635726D01*
X467186D01*
Y635378D01*
X467012D01*
Y635030D01*
X466838D01*
Y634682D01*
X466664D01*
Y634508D01*
X466490D01*
Y634334D01*
X466316D01*
Y633986D01*
X466142D01*
Y633812D01*
X465968D01*
Y633638D01*
X465794D01*
Y633464D01*
X465620D01*
Y633290D01*
X465446D01*
Y633116D01*
X465272D01*
Y632768D01*
X465098D01*
Y632594D01*
X464924D01*
Y632420D01*
X464750D01*
Y632246D01*
X464576D01*
Y632072D01*
X464402D01*
Y631898D01*
X464228D01*
Y631724D01*
X464054D01*
Y631550D01*
X463880D01*
Y631376D01*
X463706D01*
Y631028D01*
X463532D01*
Y630854D01*
X463184D01*
Y630680D01*
X463010D01*
Y631028D01*
X463184D01*
Y631202D01*
X463358D01*
Y631376D01*
X463532D01*
Y631724D01*
X463706D01*
Y631898D01*
X463880D01*
Y632072D01*
X464054D01*
Y632246D01*
X464228D01*
Y632420D01*
X464402D01*
Y632594D01*
X464576D01*
Y632768D01*
X464750D01*
Y632942D01*
X464924D01*
Y633290D01*
X465098D01*
Y633464D01*
X465272D01*
Y633638D01*
X465446D01*
Y633812D01*
X465620D01*
Y633986D01*
X465794D01*
Y634334D01*
X465968D01*
Y634508D01*
X466142D01*
Y634856D01*
X466316D01*
Y635030D01*
X466490D01*
Y635378D01*
X466664D01*
Y635726D01*
X466838D01*
Y636770D01*
X465968D01*
Y636248D01*
X465794D01*
Y635726D01*
X465620D01*
Y635378D01*
X465446D01*
Y635204D01*
X465272D01*
Y634856D01*
X465098D01*
Y634682D01*
X464924D01*
Y634508D01*
X464750D01*
Y634334D01*
X464576D01*
Y633986D01*
X464402D01*
Y633812D01*
X464228D01*
Y633638D01*
X464054D01*
Y633464D01*
X463880D01*
Y633290D01*
X463706D01*
Y633116D01*
X463532D01*
Y632942D01*
X463358D01*
Y632768D01*
X463010D01*
Y632594D01*
Y632420D01*
X462836D01*
Y632768D01*
X463010D01*
Y632942D01*
X463184D01*
Y633290D01*
X463358D01*
Y633464D01*
X463532D01*
Y633638D01*
X463706D01*
Y633812D01*
X463880D01*
Y633986D01*
X464054D01*
Y634160D01*
X464228D01*
Y634508D01*
X464402D01*
Y634682D01*
X464576D01*
Y634856D01*
X464750D01*
Y635204D01*
X464924D01*
Y635552D01*
X465098D01*
Y635726D01*
X465272D01*
Y636074D01*
X465446D01*
Y636770D01*
X465272D01*
Y636944D01*
X465098D01*
Y636770D01*
X464576D01*
Y636596D01*
X464228D01*
Y636422D01*
X463880D01*
Y636248D01*
X463532D01*
Y636074D01*
X463358D01*
Y635900D01*
X463010D01*
Y635726D01*
X462836D01*
Y635552D01*
X462488D01*
Y635378D01*
X462140D01*
Y635204D01*
X461966D01*
Y635030D01*
X461618D01*
Y634856D01*
X461444D01*
Y634682D01*
X461096D01*
Y634508D01*
X460922D01*
Y634334D01*
X460748D01*
Y634160D01*
X460400D01*
Y633986D01*
X460226D01*
Y633812D01*
X460052D01*
Y633638D01*
X459704D01*
Y633464D01*
X459530D01*
Y633290D01*
X459356D01*
Y633116D01*
X459008D01*
Y632942D01*
X458834D01*
Y632768D01*
X458660D01*
Y632594D01*
X458486D01*
Y632420D01*
X458138D01*
Y632246D01*
X457964D01*
Y632072D01*
X457790D01*
Y631898D01*
X457616D01*
Y631724D01*
X457268D01*
Y631550D01*
X456920D01*
Y631376D01*
X456572D01*
Y631550D01*
X456746D01*
Y631724D01*
X456920D01*
Y631898D01*
X457094D01*
Y632072D01*
X457268D01*
Y632246D01*
X457442D01*
Y632420D01*
X457616D01*
Y632594D01*
X457790D01*
Y632768D01*
X458138D01*
Y632942D01*
X458312D01*
Y633116D01*
X458486D01*
Y633290D01*
X458660D01*
Y633464D01*
X458834D01*
Y633638D01*
X459008D01*
Y633812D01*
X459356D01*
Y633986D01*
X459530D01*
Y634160D01*
X459704D01*
Y634334D01*
X460052D01*
Y634508D01*
X460226D01*
Y634682D01*
X460400D01*
Y634856D01*
X460574D01*
Y635204D01*
X460748D01*
Y638684D01*
X460574D01*
Y639380D01*
X460400D01*
Y639902D01*
X460226D01*
Y640424D01*
X460052D01*
Y640772D01*
X459878D01*
Y641294D01*
X459704D01*
Y641642D01*
X459530D01*
Y641990D01*
X459356D01*
Y642512D01*
X459182D01*
Y642860D01*
X459008D01*
Y643208D01*
X458834D01*
Y643556D01*
X458660D01*
Y643904D01*
X458486D01*
Y644078D01*
X458312D01*
Y644426D01*
X458138D01*
Y644774D01*
X457964D01*
Y645122D01*
X457790D01*
Y645470D01*
X457616D01*
Y645644D01*
X457442D01*
Y645992D01*
X457268D01*
Y646340D01*
X457094D01*
Y646688D01*
X456920D01*
Y647036D01*
X456746D01*
Y647384D01*
X456572D01*
Y647732D01*
X456398D01*
Y647906D01*
X456224D01*
Y648254D01*
X456050D01*
Y648602D01*
X455876D01*
Y649124D01*
X455702D01*
Y649472D01*
X455528D01*
Y649820D01*
X455354D01*
Y650168D01*
X455180D01*
Y650690D01*
X455006D01*
Y651038D01*
X454832D01*
Y651386D01*
X454658D01*
Y651908D01*
X454484D01*
Y652430D01*
X454310D01*
Y652778D01*
X454136D01*
Y653300D01*
X453962D01*
Y653996D01*
X453788D01*
Y654518D01*
X453614D01*
Y655214D01*
X453440D01*
Y655910D01*
X453266D01*
Y656606D01*
X453092D01*
Y657476D01*
X452918D01*
Y658868D01*
X452744D01*
Y659738D01*
X452570D01*
Y659564D01*
X452396D01*
Y659390D01*
X452048D01*
Y659216D01*
X451874D01*
Y659042D01*
X451700D01*
Y658868D01*
X451526D01*
Y658694D01*
X451352D01*
Y658520D01*
X451004D01*
Y658346D01*
X450830D01*
Y658172D01*
X450656D01*
Y657998D01*
X450308D01*
Y657824D01*
X450134D01*
Y657650D01*
X449786D01*
Y657476D01*
X449612D01*
Y657302D01*
X449264D01*
Y657128D01*
X449090D01*
Y656954D01*
X448742D01*
Y656780D01*
X448568D01*
Y656606D01*
X448220D01*
Y656432D01*
X447872D01*
Y656258D01*
X447698D01*
Y656084D01*
X447350D01*
Y655910D01*
X447002D01*
Y655736D01*
X446654D01*
Y655562D01*
X446306D01*
Y655388D01*
X445958D01*
Y655214D01*
X445610D01*
Y655040D01*
X445262D01*
Y654866D01*
X444740D01*
Y654692D01*
X444392D01*
Y654518D01*
X443870D01*
Y654344D01*
X443348D01*
Y654170D01*
X443000D01*
Y653996D01*
X442478D01*
Y653822D01*
X441956D01*
Y653648D01*
X441434D01*
Y653822D01*
X441782D01*
Y653996D01*
X442130D01*
Y654170D01*
X442478D01*
Y654344D01*
X442826D01*
Y654518D01*
X443348D01*
Y654692D01*
X443696D01*
Y654866D01*
X444044D01*
Y655040D01*
X444566D01*
Y655214D01*
X444914D01*
Y655388D01*
X445262D01*
Y655562D01*
X445610D01*
Y655736D01*
X445958D01*
Y655910D01*
X446132D01*
Y656084D01*
X446480D01*
Y656258D01*
X446828D01*
Y656432D01*
X447176D01*
Y656606D01*
X447350D01*
Y656780D01*
X447698D01*
Y656954D01*
X448046D01*
Y657128D01*
X448220D01*
Y657302D01*
X448568D01*
Y657476D01*
X448742D01*
Y657650D01*
X449090D01*
Y657824D01*
X449264D01*
Y657998D01*
X449612D01*
Y658172D01*
X449786D01*
Y658346D01*
X449960D01*
Y658520D01*
X450308D01*
Y658694D01*
X450482D01*
Y658868D01*
X450656D01*
Y659042D01*
X450830D01*
Y659216D01*
X451178D01*
Y659390D01*
X451352D01*
Y659564D01*
X451526D01*
Y659738D01*
X451700D01*
Y659912D01*
X451874D01*
Y660086D01*
X452048D01*
Y660260D01*
X452222D01*
Y660434D01*
X452396D01*
Y660608D01*
X452570D01*
Y660782D01*
X452744D01*
Y661130D01*
X452570D01*
Y660956D01*
X450308D01*
Y661130D01*
X449786D01*
Y661304D01*
X449438D01*
Y661478D01*
X449090D01*
Y661652D01*
X448742D01*
Y661826D01*
X448568D01*
Y662000D01*
X448394D01*
Y662174D01*
X448220D01*
Y662348D01*
X448046D01*
Y662696D01*
X447872D01*
Y662870D01*
X447698D01*
Y663392D01*
X447524D01*
Y663740D01*
X447350D01*
Y666524D01*
X447524D01*
Y667046D01*
X447698D01*
Y667568D01*
X447872D01*
Y667916D01*
X448046D01*
Y668264D01*
X448220D01*
Y668612D01*
X448394D01*
Y668786D01*
X448568D01*
Y668960D01*
X448742D01*
Y669308D01*
X448916D01*
Y669482D01*
X449090D01*
Y669656D01*
X449264D01*
Y669830D01*
X449438D01*
Y670004D01*
X449612D01*
Y670178D01*
X449786D01*
Y670352D01*
X449960D01*
Y670526D01*
X450134D01*
Y670700D01*
X450482D01*
Y670874D01*
X450656D01*
Y671048D01*
X451004D01*
Y671222D01*
X451526D01*
Y671396D01*
X452048D01*
Y671570D01*
X452744D01*
Y671744D01*
X454136D01*
Y671570D01*
X454832D01*
Y671396D01*
X455180D01*
Y671222D01*
X455354D01*
Y671048D01*
X455702D01*
Y670874D01*
X455876D01*
Y671744D01*
X455702D01*
Y672440D01*
X455528D01*
Y673310D01*
X455354D01*
Y674006D01*
X455180D01*
Y674702D01*
X455006D01*
Y675746D01*
X454832D01*
Y677660D01*
X454658D01*
Y682532D01*
X454484D01*
Y683924D01*
X454310D01*
Y684968D01*
X454136D01*
Y685838D01*
X453962D01*
Y686534D01*
X453788D01*
Y686882D01*
X453614D01*
Y687404D01*
X453440D01*
Y687752D01*
X453266D01*
Y688100D01*
X453092D01*
Y688448D01*
X452918D01*
Y688796D01*
X452744D01*
Y689144D01*
X452570D01*
Y689492D01*
X452396D01*
Y689666D01*
X452222D01*
Y690014D01*
X452048D01*
Y690188D01*
X451874D01*
Y690536D01*
X451700D01*
Y690710D01*
X451526D01*
Y690884D01*
X451352D01*
Y691232D01*
X451178D01*
Y691406D01*
X451004D01*
Y691580D01*
X451352D01*
Y691406D01*
X451526D01*
Y691232D01*
X451874D01*
Y691058D01*
X452048D01*
Y690884D01*
X452222D01*
Y690710D01*
X452744D01*
Y690884D01*
X453092D01*
Y691058D01*
X453440D01*
Y691232D01*
X453788D01*
Y691406D01*
X454136D01*
Y691580D01*
X454310D01*
Y691754D01*
X454832D01*
Y691928D01*
X455006D01*
Y692102D01*
X455354D01*
Y692276D01*
X455702D01*
Y692450D01*
X456050D01*
Y692624D01*
X456398D01*
Y692798D01*
X456572D01*
Y692972D01*
X456920D01*
Y693146D01*
X457268D01*
Y693320D01*
X457442D01*
Y693494D01*
X457790D01*
Y693668D01*
X458138D01*
Y693842D01*
X458312D01*
Y694016D01*
X458660D01*
Y694190D01*
X459008D01*
Y694364D01*
X459182D01*
Y694538D01*
X459530D01*
Y694712D01*
X459704D01*
Y694886D01*
X460052D01*
Y695060D01*
X460226D01*
Y695234D01*
X460574D01*
Y695408D01*
X460748D01*
Y695582D01*
X461096D01*
Y695756D01*
X461270D01*
Y695930D01*
X461618D01*
Y696104D01*
X461792D01*
Y696278D01*
X461966D01*
Y696452D01*
X462314D01*
Y696626D01*
X462488D01*
Y696800D01*
X462662D01*
Y696974D01*
X463010D01*
Y697148D01*
X463184D01*
Y697322D01*
X463358D01*
Y697496D01*
X463706D01*
Y697670D01*
X463880D01*
Y697844D01*
X464054D01*
Y698018D01*
X464402D01*
Y698192D01*
X464576D01*
Y698366D01*
X464750D01*
Y698540D01*
X464924D01*
Y698714D01*
X465098D01*
Y698888D01*
X465446D01*
Y699062D01*
X465620D01*
Y699236D01*
X465794D01*
Y699410D01*
X465968D01*
Y699758D01*
X466142D01*
Y700106D01*
X466316D01*
Y700628D01*
X466490D01*
Y701150D01*
X466664D01*
Y701672D01*
X466838D01*
Y702368D01*
X467012D01*
Y702890D01*
X467186D01*
Y703586D01*
X467360D01*
Y704282D01*
X467534D01*
Y704978D01*
X467708D01*
Y705674D01*
X467882D01*
Y706544D01*
X468056D01*
Y707588D01*
X468230D01*
Y708632D01*
X468404D01*
Y709676D01*
X468578D01*
Y710894D01*
X468752D01*
Y712112D01*
X468578D01*
Y711938D01*
X468056D01*
Y711764D01*
X467534D01*
Y711590D01*
X466838D01*
Y711416D01*
X466490D01*
Y711242D01*
X465968D01*
Y711068D01*
X465446D01*
Y710894D01*
X465098D01*
Y710720D01*
X464750D01*
Y710546D01*
X464402D01*
Y710372D01*
X463880D01*
Y710198D01*
X463532D01*
Y710024D01*
X463184D01*
Y709850D01*
X462836D01*
Y709676D01*
X462488D01*
Y709502D01*
X462140D01*
Y709328D01*
X461792D01*
Y709154D01*
X461444D01*
Y708980D01*
X461096D01*
Y708806D01*
X460748D01*
Y708632D01*
X460574D01*
Y708458D01*
X460226D01*
Y708284D01*
X459878D01*
Y708110D01*
X459530D01*
Y707936D01*
X459356D01*
Y707762D01*
X459008D01*
Y707588D01*
X458834D01*
Y707414D01*
X458486D01*
Y707240D01*
X458312D01*
Y707066D01*
X457964D01*
Y706892D01*
X457790D01*
Y706718D01*
X457442D01*
Y706544D01*
X457268D01*
Y706370D01*
X456920D01*
Y706196D01*
X456746D01*
Y706022D01*
X456398D01*
Y705848D01*
X456224D01*
Y705674D01*
X456050D01*
Y705500D01*
X455876D01*
Y705326D01*
X455528D01*
Y705152D01*
X455354D01*
Y704978D01*
X455006D01*
Y704804D01*
X454832D01*
Y704630D01*
X454658D01*
Y704456D01*
X454484D01*
Y704282D01*
X454136D01*
Y704108D01*
X453962D01*
Y703934D01*
X453788D01*
Y703760D01*
X453614D01*
Y703586D01*
X453266D01*
Y703412D01*
X453092D01*
Y703238D01*
X452918D01*
Y703064D01*
X452744D01*
Y702890D01*
X452570D01*
Y702716D01*
X452396D01*
Y702542D01*
X452048D01*
Y702368D01*
X451874D01*
Y702194D01*
X451700D01*
Y702020D01*
X451526D01*
Y701846D01*
X451352D01*
Y701672D01*
X451178D01*
Y701498D01*
X451004D01*
Y701324D01*
X450830D01*
Y701150D01*
X450656D01*
Y700976D01*
X450482D01*
Y700802D01*
X450308D01*
Y700628D01*
X450134D01*
Y700454D01*
X449960D01*
Y700280D01*
X449786D01*
Y700106D01*
X449612D01*
Y699932D01*
X449438D01*
Y699758D01*
X449264D01*
Y699584D01*
X449090D01*
Y699410D01*
X448916D01*
Y699236D01*
X448742D01*
Y699062D01*
X448568D01*
Y698888D01*
X448394D01*
Y698714D01*
X448220D01*
Y698540D01*
X448046D01*
Y698366D01*
X447872D01*
Y698192D01*
X447698D01*
Y698018D01*
X447524D01*
Y697670D01*
X447350D01*
Y697496D01*
X447176D01*
Y697322D01*
X447002D01*
Y697148D01*
X446828D01*
Y696974D01*
X446654D01*
Y696800D01*
X446480D01*
Y696626D01*
X446306D01*
Y696278D01*
X446132D01*
Y696104D01*
X445958D01*
Y695930D01*
X446132D01*
Y695756D01*
X446306D01*
Y695582D01*
X445958D01*
Y695756D01*
X445436D01*
Y695930D01*
X445088D01*
Y696104D01*
X444740D01*
Y696278D01*
X444392D01*
Y696452D01*
X443870D01*
Y696626D01*
X443522D01*
Y696800D01*
X443000D01*
Y696974D01*
X442478D01*
Y697148D01*
X441956D01*
Y697322D01*
X441260D01*
Y697496D01*
X440738D01*
Y697670D01*
X439868D01*
Y697844D01*
X439172D01*
Y698018D01*
X438476D01*
Y698192D01*
X436736D01*
Y698366D01*
X434300D01*
Y698540D01*
X430646D01*
Y698366D01*
X428210D01*
Y698192D01*
X427166D01*
Y698018D01*
X426122D01*
Y697844D01*
X425426D01*
Y697670D01*
X424730D01*
Y697496D01*
X424034D01*
Y697322D01*
X423512D01*
Y697148D01*
X422990D01*
Y696974D01*
X422642D01*
Y696800D01*
X422120D01*
Y696626D01*
X421598D01*
Y696452D01*
X421250D01*
Y696278D01*
X420902D01*
Y696104D01*
X420554D01*
Y695930D01*
X420206D01*
Y695756D01*
X419858D01*
Y695582D01*
X419684D01*
Y695408D01*
X419336D01*
Y695234D01*
X419162D01*
Y695060D01*
X418466D01*
Y695234D01*
X418292D01*
Y695582D01*
X418118D01*
Y695756D01*
X417944D01*
Y696104D01*
X417770D01*
Y696452D01*
X417596D01*
Y696626D01*
X417422D01*
Y696974D01*
X417248D01*
Y697148D01*
X417074D01*
Y697496D01*
X416900D01*
Y697670D01*
X416726D01*
Y698018D01*
X416552D01*
Y698192D01*
X416378D01*
Y698366D01*
X416204D01*
Y698714D01*
X416030D01*
Y698888D01*
X415856D01*
Y699236D01*
X415682D01*
Y699410D01*
X415508D01*
Y699584D01*
X415334D01*
Y699932D01*
X415160D01*
Y700106D01*
X414986D01*
Y700280D01*
X414812D01*
Y700628D01*
X414638D01*
Y700802D01*
X414464D01*
Y700976D01*
X414290D01*
Y701324D01*
X414116D01*
Y701498D01*
X413942D01*
Y701672D01*
X413768D01*
Y701846D01*
X413594D01*
Y702020D01*
X413420D01*
Y702368D01*
X413246D01*
Y702542D01*
X413072D01*
Y702716D01*
X412898D01*
Y702890D01*
X412724D01*
Y703064D01*
X412550D01*
Y703238D01*
X412376D01*
Y703412D01*
X412202D01*
Y703760D01*
X412028D01*
Y703934D01*
X411854D01*
Y704108D01*
X411680D01*
Y704282D01*
X411506D01*
Y704456D01*
X411332D01*
Y704630D01*
X411158D01*
Y704804D01*
X410984D01*
Y704978D01*
X410810D01*
Y705152D01*
X410636D01*
Y705326D01*
X410462D01*
Y705500D01*
X410288D01*
Y705674D01*
X410114D01*
Y705848D01*
X409940D01*
Y706022D01*
X409766D01*
Y706196D01*
X409592D01*
Y706370D01*
X409418D01*
Y706544D01*
X409244D01*
Y706718D01*
X409070D01*
Y706892D01*
X408722D01*
Y707240D01*
X408374D01*
Y707414D01*
X408200D01*
Y707588D01*
X408026D01*
Y707762D01*
X407852D01*
Y707936D01*
X407678D01*
Y708110D01*
X407504D01*
Y708284D01*
X407156D01*
Y708458D01*
X406982D01*
Y708632D01*
X406808D01*
Y708806D01*
X406634D01*
Y708980D01*
X406286D01*
Y709154D01*
X406112D01*
Y709328D01*
X405938D01*
Y709502D01*
X405590D01*
Y709676D01*
X405416D01*
Y709850D01*
X405242D01*
Y710024D01*
X404894D01*
Y710198D01*
X404720D01*
Y710372D01*
X404546D01*
Y710546D01*
X404198D01*
Y710720D01*
X404024D01*
Y710894D01*
X403676D01*
Y711068D01*
X403502D01*
Y711242D01*
X403154D01*
Y711416D01*
X402806D01*
Y711590D01*
X402632D01*
Y711764D01*
X402284D01*
Y711938D01*
X402110D01*
Y712112D01*
X401762D01*
Y712286D01*
X401414D01*
Y712460D01*
X401240D01*
Y712634D01*
X400892D01*
Y712808D01*
X400544D01*
Y712982D01*
X400196D01*
Y713156D01*
X399848D01*
Y713330D01*
X399500D01*
Y713504D01*
X399152D01*
Y713678D01*
X398804D01*
Y713852D01*
X398456D01*
Y714026D01*
X398282D01*
Y714200D01*
X397760D01*
Y714374D01*
X397412D01*
Y714548D01*
X397064D01*
Y714722D01*
X396542D01*
Y714896D01*
D02*
G37*
G36*
X455702Y662870D02*
X455354D01*
Y662696D01*
X455180D01*
Y662522D01*
X455006D01*
Y662348D01*
X454832D01*
Y662000D01*
X454658D01*
Y661826D01*
X454484D01*
Y661652D01*
X454310D01*
Y661478D01*
X454136D01*
Y661304D01*
X453962D01*
Y660956D01*
X453788D01*
Y660782D01*
X453614D01*
Y660608D01*
X453440D01*
Y660434D01*
X453266D01*
Y659042D01*
X453440D01*
Y657824D01*
X453614D01*
Y656954D01*
X453788D01*
Y656432D01*
X454310D01*
Y656606D01*
X454484D01*
Y656780D01*
X454832D01*
Y656954D01*
X455180D01*
Y657128D01*
X455354D01*
Y657302D01*
X455702D01*
Y657476D01*
X456050D01*
Y657650D01*
X456224D01*
Y657824D01*
X456572D01*
Y657998D01*
X456920D01*
Y658172D01*
X457268D01*
Y658346D01*
X457442D01*
Y658520D01*
X457790D01*
Y658694D01*
X458138D01*
Y658868D01*
X458312D01*
Y659042D01*
X458660D01*
Y659216D01*
X459008D01*
Y659390D01*
X459182D01*
Y659564D01*
X459530D01*
Y659738D01*
X459878D01*
Y659912D01*
X460052D01*
Y660260D01*
X459704D01*
Y660434D01*
X459530D01*
Y660608D01*
X459182D01*
Y660782D01*
X458834D01*
Y660956D01*
X458660D01*
Y661130D01*
X458312D01*
Y661304D01*
X457964D01*
Y661478D01*
X457790D01*
Y661652D01*
X457442D01*
Y661826D01*
X457094D01*
Y662000D01*
X456920D01*
Y662174D01*
X456572D01*
Y662348D01*
X456398D01*
Y662522D01*
X456050D01*
Y662696D01*
X455702D01*
Y662870D01*
D02*
G37*
G36*
X486326Y699410D02*
X485630D01*
Y699236D01*
X484760D01*
Y699062D01*
X484064D01*
Y698888D01*
X483368D01*
Y698714D01*
X482498D01*
Y698540D01*
X481802D01*
Y698366D01*
X481106D01*
Y698192D01*
X480584D01*
Y698018D01*
X479888D01*
Y697844D01*
X479366D01*
Y697670D01*
X478844D01*
Y697496D01*
X478322D01*
Y697322D01*
X477626D01*
Y697148D01*
X477104D01*
Y696974D01*
X476582D01*
Y696800D01*
X476060D01*
Y696626D01*
X475538D01*
Y696452D01*
X475016D01*
Y696278D01*
X474494D01*
Y696104D01*
X474146D01*
Y695930D01*
X473624D01*
Y695756D01*
X473102D01*
Y695582D01*
X472580D01*
Y695408D01*
X472232D01*
Y695234D01*
X471710D01*
Y695060D01*
X471188D01*
Y694886D01*
X470840D01*
Y694712D01*
X470318D01*
Y694538D01*
X469970D01*
Y694364D01*
X469448D01*
Y694190D01*
X469100D01*
Y694016D01*
X468578D01*
Y693842D01*
X468230D01*
Y693668D01*
X467708D01*
Y693494D01*
X467360D01*
Y693320D01*
X466838D01*
Y693146D01*
X466490D01*
Y692972D01*
X466142D01*
Y692798D01*
X465620D01*
Y692624D01*
X465272D01*
Y692450D01*
X464750D01*
Y692276D01*
X464402D01*
Y692102D01*
X464054D01*
Y691928D01*
X463532D01*
Y691754D01*
X463184D01*
Y691580D01*
X462836D01*
Y691406D01*
X462314D01*
Y691232D01*
X461966D01*
Y691058D01*
X461618D01*
Y690884D01*
X461270D01*
Y690710D01*
X460922D01*
Y690536D01*
X460574D01*
Y690362D01*
X460052D01*
Y690188D01*
X459704D01*
Y690014D01*
X459356D01*
Y689840D01*
X459008D01*
Y689666D01*
X458660D01*
Y689492D01*
X458312D01*
Y689318D01*
X457964D01*
Y689144D01*
X457616D01*
Y688970D01*
X457094D01*
Y688796D01*
X456746D01*
Y688622D01*
X456398D01*
Y688448D01*
X456050D01*
Y688274D01*
X455702D01*
Y688100D01*
X455354D01*
Y687926D01*
X455006D01*
Y687752D01*
X454658D01*
Y687578D01*
X454310D01*
Y687230D01*
X454484D01*
Y686534D01*
X454658D01*
Y685838D01*
X454832D01*
Y684794D01*
X455006D01*
Y683576D01*
X455180D01*
Y680966D01*
X455354D01*
Y676964D01*
X455528D01*
Y675920D01*
X455702D01*
Y675050D01*
X455876D01*
Y674180D01*
X456050D01*
Y673658D01*
X456224D01*
Y672962D01*
X456398D01*
Y672266D01*
X456572D01*
Y671744D01*
X456746D01*
Y670700D01*
X456920D01*
Y669482D01*
X457094D01*
Y667046D01*
X456920D01*
Y666176D01*
X456746D01*
Y665654D01*
X456572D01*
Y665132D01*
X456398D01*
Y664784D01*
X456224D01*
Y664262D01*
X456050D01*
Y663914D01*
X455876D01*
Y663392D01*
X456224D01*
Y663218D01*
X456572D01*
Y663044D01*
X456746D01*
Y662870D01*
X457094D01*
Y662696D01*
X457268D01*
Y662522D01*
X457616D01*
Y662348D01*
X457790D01*
Y662174D01*
X457964D01*
Y662000D01*
X458312D01*
Y661826D01*
X458660D01*
Y661652D01*
X458834D01*
Y661478D01*
X459182D01*
Y661304D01*
X459356D01*
Y661130D01*
X459704D01*
Y660956D01*
X459878D01*
Y660782D01*
X460226D01*
Y660608D01*
X460400D01*
Y660434D01*
X460748D01*
Y660260D01*
X460922D01*
Y660086D01*
X461096D01*
Y659912D01*
X460922D01*
Y659738D01*
X460748D01*
Y659564D01*
X460400D01*
Y659390D01*
X460052D01*
Y659216D01*
X459704D01*
Y659042D01*
X459530D01*
Y658868D01*
X459182D01*
Y658694D01*
X458834D01*
Y658520D01*
X458660D01*
Y658346D01*
X458312D01*
Y658172D01*
X457964D01*
Y657998D01*
X457616D01*
Y657824D01*
X457442D01*
Y657650D01*
X457094D01*
Y657476D01*
X456746D01*
Y657302D01*
X456398D01*
Y657128D01*
X456224D01*
Y656954D01*
X455876D01*
Y656780D01*
X455528D01*
Y656606D01*
X455354D01*
Y656432D01*
X455006D01*
Y656258D01*
X454658D01*
Y656084D01*
X454310D01*
Y655910D01*
X454136D01*
Y655040D01*
X454310D01*
Y654344D01*
X454484D01*
Y653822D01*
X454658D01*
Y653300D01*
X454832D01*
Y652778D01*
X455006D01*
Y652256D01*
X455180D01*
Y651908D01*
X455354D01*
Y651386D01*
X455528D01*
Y651038D01*
X455702D01*
Y650690D01*
X455876D01*
Y650342D01*
X456050D01*
Y650168D01*
X456224D01*
Y650342D01*
X456398D01*
Y650516D01*
X457268D01*
Y650864D01*
X457094D01*
Y651212D01*
X456920D01*
Y651734D01*
X456746D01*
Y652082D01*
X456920D01*
Y651908D01*
X457094D01*
Y651734D01*
X457442D01*
Y651560D01*
X457790D01*
Y651386D01*
X457964D01*
Y651212D01*
X458312D01*
Y651908D01*
X458138D01*
Y652256D01*
X457964D01*
Y652778D01*
X457790D01*
Y653126D01*
X457964D01*
Y652952D01*
X458312D01*
Y652778D01*
X458660D01*
Y652604D01*
X459008D01*
Y652430D01*
X459182D01*
Y652256D01*
X459356D01*
Y652082D01*
X459704D01*
Y651908D01*
X459878D01*
Y651734D01*
X460400D01*
Y652256D01*
X460226D01*
Y652430D01*
X460052D01*
Y652604D01*
X459878D01*
Y652952D01*
X459704D01*
Y653126D01*
X459530D01*
Y653300D01*
X459356D01*
Y653648D01*
X459530D01*
Y653822D01*
X459878D01*
Y653996D01*
X460226D01*
Y654170D01*
X460574D01*
Y654344D01*
X460922D01*
Y654518D01*
X461444D01*
Y654692D01*
X461792D01*
Y654866D01*
X462140D01*
Y655040D01*
X462488D01*
Y655214D01*
X463010D01*
Y655388D01*
X463358D01*
Y655562D01*
X463706D01*
Y655736D01*
X464054D01*
Y655910D01*
X464402D01*
Y656084D01*
X464750D01*
Y656258D01*
X465272D01*
Y656432D01*
X465620D01*
Y656606D01*
X465968D01*
Y656780D01*
X466316D01*
Y656954D01*
X466664D01*
Y657128D01*
X467186D01*
Y657302D01*
X467534D01*
Y657476D01*
X467882D01*
Y657650D01*
X468230D01*
Y657824D01*
X468578D01*
Y657998D01*
X469100D01*
Y658172D01*
X469448D01*
Y658346D01*
X469796D01*
Y658520D01*
X470144D01*
Y658694D01*
X470492D01*
Y658868D01*
X471014D01*
Y659042D01*
X471362D01*
Y659216D01*
X471710D01*
Y659390D01*
X472058D01*
Y659564D01*
X472406D01*
Y659912D01*
X472232D01*
Y660086D01*
X472058D01*
Y660260D01*
X471884D01*
Y660434D01*
X471710D01*
Y660608D01*
X471536D01*
Y660956D01*
X471362D01*
Y661130D01*
X471188D01*
Y661304D01*
X471014D01*
Y661478D01*
X470840D01*
Y661652D01*
X470666D01*
Y661826D01*
X470492D01*
Y662000D01*
X470318D01*
Y662348D01*
X470144D01*
Y662522D01*
X469970D01*
Y662696D01*
X469796D01*
Y662870D01*
X469622D01*
Y663044D01*
X469448D01*
Y663218D01*
X469274D01*
Y663392D01*
X469100D01*
Y663740D01*
X468926D01*
Y663914D01*
X468752D01*
Y664088D01*
X468578D01*
Y664262D01*
X468404D01*
Y664436D01*
X468230D01*
Y664610D01*
X468056D01*
Y664784D01*
X467882D01*
Y665132D01*
X467708D01*
Y665306D01*
X467534D01*
Y665480D01*
X467360D01*
Y665654D01*
X467186D01*
Y665828D01*
X467012D01*
Y666002D01*
X466838D01*
Y666176D01*
X466664D01*
Y666524D01*
X466490D01*
Y666698D01*
X466316D01*
Y666872D01*
X466142D01*
Y667046D01*
X465968D01*
Y667220D01*
X465794D01*
Y667394D01*
X465620D01*
Y667568D01*
X465446D01*
Y667916D01*
X465272D01*
Y668090D01*
X465098D01*
Y668264D01*
X464924D01*
Y668438D01*
X464750D01*
Y668612D01*
X464576D01*
Y668786D01*
X464402D01*
Y668960D01*
X464228D01*
Y669308D01*
X464054D01*
Y669482D01*
X463880D01*
Y669656D01*
X463706D01*
Y669830D01*
X463532D01*
Y670004D01*
X463358D01*
Y670178D01*
X463184D01*
Y670352D01*
X463010D01*
Y670700D01*
X462836D01*
Y670874D01*
X462662D01*
Y671048D01*
X462488D01*
Y671222D01*
X462314D01*
Y671396D01*
X462140D01*
Y671570D01*
X461966D01*
Y672092D01*
X462314D01*
Y672266D01*
X462836D01*
Y672440D01*
X463532D01*
Y672614D01*
X464054D01*
Y672788D01*
X464750D01*
Y672962D01*
X465446D01*
Y673136D01*
X465968D01*
Y673310D01*
X466664D01*
Y673484D01*
X467186D01*
Y673658D01*
X467882D01*
Y673832D01*
X468404D01*
Y674006D01*
X468926D01*
Y674180D01*
X469622D01*
Y674354D01*
X470318D01*
Y674528D01*
X471014D01*
Y674702D01*
X471536D01*
Y674876D01*
X472232D01*
Y675050D01*
X472928D01*
Y675224D01*
X473450D01*
Y675398D01*
X474146D01*
Y675572D01*
X474842D01*
Y675746D01*
X475364D01*
Y675920D01*
X476060D01*
Y676094D01*
X476756D01*
Y676268D01*
X477278D01*
Y676442D01*
X477974D01*
Y676616D01*
X478670D01*
Y676790D01*
X479192D01*
Y676964D01*
X479888D01*
Y677138D01*
X480584D01*
Y677312D01*
X481106D01*
Y677486D01*
X481976D01*
Y677660D01*
X482498D01*
Y678182D01*
X482672D01*
Y678878D01*
X482846D01*
Y679400D01*
X483020D01*
Y679922D01*
X483194D01*
Y680792D01*
X483368D01*
Y681488D01*
X483542D01*
Y682184D01*
X483716D01*
Y682880D01*
X483890D01*
Y683750D01*
X484064D01*
Y684446D01*
X484238D01*
Y685316D01*
X484412D01*
Y686012D01*
X484586D01*
Y686882D01*
X484760D01*
Y687752D01*
X484934D01*
Y688796D01*
X485108D01*
Y689840D01*
X485282D01*
Y691058D01*
X485456D01*
Y692276D01*
X485630D01*
Y693668D01*
X485804D01*
Y693842D01*
Y694016D01*
Y695060D01*
X485978D01*
Y696626D01*
X486152D01*
Y698366D01*
X486326D01*
Y699410D01*
D02*
G37*
%LPD*%
G36*
X447002Y682010D02*
X447524D01*
Y681836D01*
X447872D01*
Y681662D01*
X448046D01*
Y681488D01*
X448394D01*
Y681314D01*
X448568D01*
Y681140D01*
X448742D01*
Y680966D01*
X448916D01*
Y680792D01*
X449090D01*
Y680618D01*
X449264D01*
Y680444D01*
X449438D01*
Y680096D01*
X449612D01*
Y679748D01*
X449786D01*
Y679226D01*
X449960D01*
Y676790D01*
X449786D01*
Y676268D01*
X449612D01*
Y675920D01*
X449438D01*
Y675572D01*
X449264D01*
Y675398D01*
X449090D01*
Y675224D01*
X448916D01*
Y675050D01*
X448742D01*
Y674876D01*
X448568D01*
Y674702D01*
X448220D01*
Y674528D01*
X448046D01*
Y674354D01*
X447698D01*
Y674180D01*
X447002D01*
Y674006D01*
X445088D01*
Y674180D01*
X444566D01*
Y674354D01*
X444218D01*
Y674528D01*
X443870D01*
Y674702D01*
X443522D01*
Y674876D01*
X443348D01*
Y675050D01*
X443174D01*
Y675224D01*
X443000D01*
Y675398D01*
X442826D01*
Y675572D01*
X442652D01*
Y675920D01*
X442478D01*
Y676094D01*
X442304D01*
Y676442D01*
X442130D01*
Y677138D01*
X441956D01*
Y679226D01*
X442130D01*
Y679748D01*
X442304D01*
Y680096D01*
X442478D01*
Y680444D01*
X442652D01*
Y680618D01*
X442826D01*
Y680966D01*
X443000D01*
Y681140D01*
X443174D01*
Y681314D01*
X443348D01*
Y681488D01*
X443696D01*
Y681662D01*
X443870D01*
Y681836D01*
X444218D01*
Y682010D01*
X444740D01*
Y682184D01*
X447002D01*
Y682010D01*
D02*
G37*
G36*
X434300Y674876D02*
X434474D01*
Y674528D01*
X434300D01*
Y674354D01*
X434126D01*
Y674180D01*
X433778D01*
Y674006D01*
X433430D01*
Y674180D01*
X433256D01*
Y674006D01*
X432908D01*
Y674180D01*
X432386D01*
Y674528D01*
X432212D01*
Y674876D01*
X432560D01*
Y675050D01*
X434300D01*
Y674876D01*
D02*
G37*
G36*
X420728Y682010D02*
X421250D01*
Y681836D01*
X421772D01*
Y681662D01*
X421946D01*
Y681488D01*
X422294D01*
Y681314D01*
X422468D01*
Y681140D01*
X422642D01*
Y680966D01*
X422816D01*
Y680792D01*
X422990D01*
Y680618D01*
X423164D01*
Y680270D01*
X423338D01*
Y679922D01*
X423512D01*
Y679574D01*
X423686D01*
Y678878D01*
X423860D01*
Y677138D01*
X423686D01*
Y676616D01*
X423512D01*
Y676094D01*
X423338D01*
Y675746D01*
X423164D01*
Y675572D01*
X422990D01*
Y675398D01*
X422816D01*
Y675224D01*
X422642D01*
Y675050D01*
X422468D01*
Y674876D01*
X422294D01*
Y674702D01*
X422120D01*
Y674528D01*
X421946D01*
Y674354D01*
X421598D01*
Y674180D01*
X421076D01*
Y674006D01*
X420380D01*
Y673832D01*
X418988D01*
Y674006D01*
X418292D01*
Y674180D01*
X417770D01*
Y674354D01*
X417596D01*
Y674528D01*
X417248D01*
Y674702D01*
X417074D01*
Y674876D01*
X416900D01*
Y675050D01*
X416726D01*
Y675224D01*
X416552D01*
Y675398D01*
X416378D01*
Y675746D01*
X416204D01*
Y675920D01*
X416030D01*
Y676442D01*
X415856D01*
Y676964D01*
X415682D01*
Y677138D01*
Y678878D01*
X415856D01*
Y679400D01*
X416030D01*
Y679922D01*
X416204D01*
Y680096D01*
X416378D01*
Y680444D01*
X416552D01*
Y680618D01*
X416726D01*
Y680792D01*
X416900D01*
Y680966D01*
X417074D01*
Y681140D01*
X417248D01*
Y681314D01*
X417422D01*
Y681488D01*
X417770D01*
Y681662D01*
X417944D01*
Y681836D01*
X418466D01*
Y682010D01*
X418988D01*
Y682184D01*
X420728D01*
Y682010D01*
D02*
G37*
G36*
X433778Y670004D02*
X434126D01*
Y669830D01*
X434474D01*
Y669656D01*
X434822D01*
Y669482D01*
X435170D01*
Y669308D01*
X435518D01*
Y669134D01*
X435866D01*
Y668960D01*
X436388D01*
Y668786D01*
X436736D01*
Y668612D01*
X437432D01*
Y668438D01*
X439172D01*
Y668612D01*
X439694D01*
Y668786D01*
X439868D01*
Y668960D01*
X440216D01*
Y669308D01*
X440390D01*
Y669482D01*
X440564D01*
Y669656D01*
X440912D01*
Y669308D01*
X440738D01*
Y668960D01*
X440564D01*
Y668786D01*
X440390D01*
Y668612D01*
X440216D01*
Y668438D01*
X440042D01*
Y668264D01*
X439694D01*
Y668090D01*
X439346D01*
Y667916D01*
X438650D01*
Y667742D01*
X437606D01*
Y667916D01*
X436910D01*
Y668090D01*
X436388D01*
Y668264D01*
X435866D01*
Y668438D01*
X435518D01*
Y668612D01*
X435170D01*
Y668786D01*
X434822D01*
Y668960D01*
X434474D01*
Y669134D01*
X434300D01*
Y669308D01*
X433952D01*
Y669482D01*
X433604D01*
Y669656D01*
X433082D01*
Y669482D01*
X432908D01*
Y669308D01*
X432560D01*
Y669134D01*
X432212D01*
Y668960D01*
X432038D01*
Y668786D01*
X431690D01*
Y668612D01*
X431342D01*
Y668438D01*
X430820D01*
Y668264D01*
X430472D01*
Y668090D01*
X429602D01*
Y667916D01*
X427862D01*
Y668090D01*
X427166D01*
Y668264D01*
X426818D01*
Y668438D01*
X426470D01*
Y668612D01*
X426296D01*
Y668786D01*
X426122D01*
Y668960D01*
X425948D01*
Y669308D01*
X425774D01*
Y669482D01*
X425600D01*
Y669656D01*
X425948D01*
Y669482D01*
X426296D01*
Y669308D01*
X426470D01*
Y669134D01*
X426644D01*
Y668960D01*
X426992D01*
Y668786D01*
X427514D01*
Y668612D01*
X429602D01*
Y668786D01*
X430124D01*
Y668960D01*
X430646D01*
Y669134D01*
X430994D01*
Y669308D01*
X431342D01*
Y669482D01*
X431690D01*
Y669656D01*
X432038D01*
Y669830D01*
X432386D01*
Y670004D01*
X432734D01*
Y670178D01*
X433778D01*
Y670004D01*
D02*
G37*
G36*
X441434Y653474D02*
X441260D01*
Y653648D01*
X441434D01*
Y653474D01*
D02*
G37*
G36*
X462836Y632246D02*
X462662D01*
Y632420D01*
X462836D01*
Y632246D01*
D02*
G37*
%LPC*%
G36*
X445436Y681314D02*
X443870D01*
Y681140D01*
X443696D01*
Y680966D01*
X443522D01*
Y680792D01*
X443348D01*
Y680618D01*
X443174D01*
Y680444D01*
X443000D01*
Y678704D01*
X443174D01*
Y678530D01*
X443348D01*
Y678182D01*
X443696D01*
Y678008D01*
X444044D01*
Y677834D01*
X445088D01*
Y678008D01*
X445610D01*
Y678182D01*
X445958D01*
Y678530D01*
X446132D01*
Y678878D01*
X446306D01*
Y680444D01*
X446132D01*
Y680792D01*
X445958D01*
Y680966D01*
X445784D01*
Y681140D01*
X445436D01*
Y681314D01*
D02*
G37*
G36*
X421946D02*
X420206D01*
Y681140D01*
X420032D01*
Y680966D01*
X419858D01*
Y680792D01*
X419684D01*
Y680618D01*
X419510D01*
Y678704D01*
X419684D01*
Y678356D01*
X419858D01*
Y678182D01*
X420206D01*
Y678008D01*
X420554D01*
Y677834D01*
X421598D01*
Y678008D01*
X422120D01*
Y678182D01*
X422294D01*
Y678356D01*
X422468D01*
Y678530D01*
X422642D01*
Y679052D01*
X422816D01*
Y680270D01*
X422642D01*
Y680792D01*
X422468D01*
Y680966D01*
X422294D01*
Y681140D01*
X421946D01*
Y681314D01*
D02*
G37*
%LPD*%
D10*
X408124Y196850D02*
G03*
X408124Y196850I-3810J0D01*
G01*
X617220Y573140D02*
G03*
X617220Y573140I-3810J0D01*
G01*
X275620Y199390D02*
G03*
X275620Y199390I-3810J0D01*
G01*
X154940Y504383D02*
G03*
X154940Y504383I-3810J0D01*
G01*
D11*
X433540Y455530D02*
G03*
X433540Y455530I-3000J0D01*
G01*
D12*
X410190Y456230D02*
G03*
X410190Y456230I-1250J0D01*
G01*
X510300Y558370D02*
G03*
X510300Y558370I-1250J0D01*
G01*
D13*
X440690Y465530D02*
G03*
X453390Y465530I6350J0D01*
G01*
X420540Y268530D02*
X473540D01*
X453390Y465530D02*
X473540D01*
X420540D02*
X440690D01*
X473540Y268530D02*
Y465530D01*
X420540Y268530D02*
Y465530D01*
X411550Y518870D02*
X515550D01*
X411550D02*
Y564870D01*
X515550D01*
Y518870D02*
Y564870D01*
X411550Y523870D02*
X515550D01*
D14*
X629666Y262509D02*
Y291211D01*
X564134Y262509D02*
X629666D01*
X564134D02*
Y291211D01*
X629666D01*
Y305689D02*
Y334391D01*
X564134Y305689D02*
X629666D01*
X564134D02*
Y334391D01*
X629666D01*
Y388239D02*
Y416941D01*
X564134Y388239D02*
X629666D01*
X564134D02*
Y416941D01*
X629666D01*
X628396Y348869D02*
Y377571D01*
X562864Y348869D02*
X628396D01*
X562864D02*
Y377571D01*
X628396D01*
X334899Y500634D02*
X363601D01*
X334899D02*
Y566166D01*
X363601D01*
Y500634D02*
Y566166D01*
X410664Y172176D02*
Y232120D01*
X537156D01*
Y172176D02*
Y232120D01*
X410664Y172176D02*
X537156D01*
X588736Y478820D02*
Y555360D01*
Y478820D02*
X648680D01*
Y555360D01*
X588736D02*
X648680D01*
X296799Y567436D02*
X325501D01*
Y501904D02*
Y567436D01*
X296799Y501904D02*
X325501D01*
X296799D02*
Y567436D01*
X258699Y501904D02*
X287401D01*
X258699D02*
Y567436D01*
X287401D01*
Y501904D02*
Y567436D01*
X219329Y501904D02*
X248031D01*
X219329D02*
Y567436D01*
X248031D01*
Y501904D02*
Y567436D01*
X334899Y310134D02*
X363601D01*
X334899D02*
Y375666D01*
X363601D01*
Y310134D02*
Y375666D01*
X289590Y174716D02*
X366130D01*
Y234660D01*
X289590D02*
X366130D01*
X289590Y174716D02*
Y234660D01*
X291719Y310134D02*
X320421D01*
X291719D02*
Y375666D01*
X320421D01*
Y310134D02*
Y375666D01*
X251079Y310134D02*
X279781D01*
X251079D02*
Y375666D01*
X279781D01*
Y310134D02*
Y375666D01*
X210439Y311404D02*
X239141D01*
X210439D02*
Y376936D01*
X239141D01*
Y311404D02*
Y376936D01*
X121860Y376367D02*
X169358D01*
X121860D02*
Y498033D01*
X169358D01*
Y376367D02*
Y498033D01*
D15*
X400812Y491231D02*
Y478535D01*
X403351Y475996D01*
X408429D01*
X410969Y478535D01*
Y491231D01*
X416047Y475996D02*
X421125D01*
X418586D01*
Y491231D01*
X416047Y488692D01*
X585476Y238762D02*
Y253997D01*
X593094D01*
X595633Y251458D01*
Y246380D01*
X593094Y243841D01*
X585476D01*
X590555D02*
X595633Y238762D01*
X600711D02*
X605790D01*
X603250D01*
Y253997D01*
X600711Y251458D01*
X623564Y238762D02*
X613407D01*
X623564Y248919D01*
Y251458D01*
X621025Y253997D01*
X615946D01*
X613407Y251458D01*
X676915Y312423D02*
Y327658D01*
X684533D01*
X687072Y325118D01*
Y320040D01*
X684533Y317501D01*
X676915D01*
X681994D02*
X687072Y312423D01*
X692150D02*
X697229D01*
X694690D01*
Y327658D01*
X692150Y325118D01*
X704846Y312423D02*
X709925D01*
X707385D01*
Y327658D01*
X704846Y325118D01*
X674376Y355602D02*
Y370838D01*
X681994D01*
X684533Y368298D01*
Y363220D01*
X681994Y360681D01*
X674376D01*
X679454D02*
X684533Y355602D01*
X689611D02*
X694690D01*
X692150D01*
Y370838D01*
X689611Y368298D01*
X702307D02*
X704846Y370838D01*
X709925D01*
X712464Y368298D01*
Y358142D01*
X709925Y355602D01*
X704846D01*
X702307Y358142D01*
Y368298D01*
X672254Y396242D02*
Y411478D01*
X679872D01*
X682411Y408938D01*
Y403860D01*
X679872Y401321D01*
X672254D01*
X677333D02*
X682411Y396242D01*
X687489Y398782D02*
X690028Y396242D01*
X695107D01*
X697646Y398782D01*
Y408938D01*
X695107Y411478D01*
X690028D01*
X687489Y408938D01*
Y406399D01*
X690028Y403860D01*
X697646D01*
X211074Y419100D02*
Y434335D01*
X218692D01*
X221231Y431796D01*
Y426717D01*
X218692Y424178D01*
X211074D01*
X216152D02*
X221231Y419100D01*
X226309Y431796D02*
X228848Y434335D01*
X233927D01*
X236466Y431796D01*
Y429257D01*
X233927Y426717D01*
X236466Y424178D01*
Y421639D01*
X233927Y419100D01*
X228848D01*
X226309Y421639D01*
Y424178D01*
X228848Y426717D01*
X226309Y429257D01*
Y431796D01*
X228848Y426717D02*
X233927D01*
X251714Y418084D02*
Y433319D01*
X259331D01*
X261871Y430780D01*
Y425701D01*
X259331Y423162D01*
X251714D01*
X256792D02*
X261871Y418084D01*
X266949Y433319D02*
X277106D01*
Y430780D01*
X266949Y420623D01*
Y418084D01*
X292354Y417830D02*
Y433065D01*
X299972D01*
X302511Y430526D01*
Y425448D01*
X299972Y422908D01*
X292354D01*
X297432D02*
X302511Y417830D01*
X317746Y433065D02*
X312667Y430526D01*
X307589Y425448D01*
Y420369D01*
X310128Y417830D01*
X315207D01*
X317746Y420369D01*
Y422908D01*
X315207Y425448D01*
X307589D01*
X335534Y418084D02*
Y433319D01*
X343152D01*
X345691Y430780D01*
Y425701D01*
X343152Y423162D01*
X335534D01*
X340612D02*
X345691Y418084D01*
X360926Y433319D02*
X350769D01*
Y425701D01*
X355847Y428241D01*
X358387D01*
X360926Y425701D01*
Y420623D01*
X358387Y418084D01*
X353308D01*
X350769Y420623D01*
X219710Y609600D02*
Y624835D01*
X227327D01*
X229867Y622296D01*
Y617217D01*
X227327Y614678D01*
X219710D01*
X224788D02*
X229867Y609600D01*
X242563D02*
Y624835D01*
X234945Y617217D01*
X245102D01*
X259334Y609600D02*
Y624835D01*
X266952D01*
X269491Y622296D01*
Y617217D01*
X266952Y614678D01*
X259334D01*
X264412D02*
X269491Y609600D01*
X274569Y622296D02*
X277108Y624835D01*
X282187D01*
X284726Y622296D01*
Y619757D01*
X282187Y617217D01*
X279647D01*
X282187D01*
X284726Y614678D01*
Y612139D01*
X282187Y609600D01*
X277108D01*
X274569Y612139D01*
X297434Y609600D02*
Y624835D01*
X305051D01*
X307591Y622296D01*
Y617217D01*
X305051Y614678D01*
X297434D01*
X302512D02*
X307591Y609600D01*
X322826D02*
X312669D01*
X322826Y619757D01*
Y622296D01*
X320287Y624835D01*
X315208D01*
X312669Y622296D01*
X335534Y608584D02*
Y623819D01*
X343152D01*
X345691Y621280D01*
Y616202D01*
X343152Y613662D01*
X335534D01*
X340612D02*
X345691Y608584D01*
X350769D02*
X355847D01*
X353308D01*
Y623819D01*
X350769Y621280D01*
X267970Y244348D02*
Y259583D01*
X275588D01*
X278127Y257044D01*
Y251966D01*
X275588Y249426D01*
X267970D01*
X283205Y259583D02*
X288283D01*
X285744D01*
Y244348D01*
X283205D01*
X288283D01*
X303519Y259583D02*
X298440D01*
X295901Y257044D01*
Y246887D01*
X298440Y244348D01*
X303519D01*
X306058Y246887D01*
Y257044D01*
X303519Y259583D01*
X589280Y586994D02*
Y602229D01*
X596898D01*
X599437Y599690D01*
Y594612D01*
X596898Y592072D01*
X589280D01*
X604515Y599690D02*
X607054Y602229D01*
X612133D01*
X614672Y599690D01*
Y597151D01*
X612133Y594612D01*
X609593D01*
X612133D01*
X614672Y592072D01*
Y589533D01*
X612133Y586994D01*
X607054D01*
X604515Y589533D01*
X400558Y241808D02*
Y257043D01*
X408176D01*
X410715Y254504D01*
Y249426D01*
X408176Y246886D01*
X400558D01*
X425950Y241808D02*
X415793D01*
X425950Y251965D01*
Y254504D01*
X423411Y257043D01*
X418332D01*
X415793Y254504D01*
X122428Y518414D02*
Y533649D01*
X130045D01*
X132585Y531110D01*
Y526031D01*
X130045Y523492D01*
X122428D01*
X137663Y518414D02*
X142741D01*
X140202D01*
Y533649D01*
X137663Y531110D01*
X413004Y573532D02*
Y588767D01*
X418082Y583689D01*
X423161Y588767D01*
Y573532D01*
X435857Y588767D02*
X430778D01*
X428239Y586228D01*
Y576071D01*
X430778Y573532D01*
X435857D01*
X438396Y576071D01*
Y586228D01*
X435857Y588767D01*
X453631Y586228D02*
X451092Y588767D01*
X446013D01*
X443474Y586228D01*
Y583689D01*
X446013Y581149D01*
X451092D01*
X453631Y578610D01*
Y576071D01*
X451092Y573532D01*
X446013D01*
X443474Y576071D01*
X458709Y573532D02*
X463788D01*
X461248D01*
Y588767D01*
X458709Y586228D01*
M02*
