G04*
G04 #@! TF.GenerationSoftware,Altium Limited,Altium Designer,24.1.2 (44)*
G04*
G04 Layer_Color=16711935*
%FSLAX44Y44*%
%MOMM*%
G71*
G04*
G04 #@! TF.SameCoordinates,F9B8B196-E0EE-4284-85E4-D25C29C198F4*
G04*
G04*
G04 #@! TF.FilePolarity,Negative*
G04*
G01*
G75*
%ADD15C,3.3032*%
%ADD16C,1.4986*%
%ADD17C,1.9032*%
%ADD18R,1.9032X1.9032*%
D15*
X580000Y150000D02*
D03*
X200000D02*
D03*
X580000Y650000D02*
D03*
X200000D02*
D03*
D16*
X403860Y685800D02*
D03*
X378860D02*
D03*
X666750Y446170D02*
D03*
Y471170D02*
D03*
X486410Y436880D02*
D03*
Y461880D02*
D03*
X298450Y436880D02*
D03*
Y461880D02*
D03*
X96520Y440690D02*
D03*
Y465690D02*
D03*
X580390Y299720D02*
D03*
Y324720D02*
D03*
X570230Y439420D02*
D03*
Y464420D02*
D03*
X394970Y436880D02*
D03*
Y461880D02*
D03*
X193040Y439420D02*
D03*
Y464420D02*
D03*
X683260Y299720D02*
D03*
Y324720D02*
D03*
X464820Y300120D02*
D03*
Y325120D02*
D03*
X302260Y299720D02*
D03*
Y324720D02*
D03*
X95250Y311150D02*
D03*
Y336150D02*
D03*
D17*
X538480Y570230D02*
D03*
X563880D02*
D03*
X359410Y574040D02*
D03*
X384810D02*
D03*
X190500Y572770D02*
D03*
X215900D02*
D03*
D18*
X589280Y570230D02*
D03*
X410210Y574040D02*
D03*
X241300Y572770D02*
D03*
M02*
