G04*
G04 #@! TF.GenerationSoftware,Altium Limited,Altium Designer,24.1.2 (44)*
G04*
G04 Layer_Color=65535*
%FSLAX44Y44*%
%MOMM*%
G71*
G04*
G04 #@! TF.SameCoordinates,F9B8B196-E0EE-4284-85E4-D25C29C198F4*
G04*
G04*
G04 #@! TF.FilePolarity,Positive*
G04*
G01*
G75*
%ADD10C,0.5080*%
%ADD11C,0.2500*%
%ADD12C,0.1524*%
%ADD13C,0.2000*%
%ADD14C,0.2540*%
G36*
X400498Y192306D02*
X402842D01*
Y192093D01*
X403907D01*
Y191880D01*
X405186D01*
Y191667D01*
X406251D01*
Y191454D01*
X407104D01*
Y191241D01*
X407956D01*
Y191027D01*
X408809D01*
Y190814D01*
X409448D01*
Y190601D01*
X410087D01*
Y190388D01*
X410727D01*
Y190175D01*
X411366D01*
Y189962D01*
X412005D01*
Y189749D01*
X412431D01*
Y189536D01*
X413071D01*
Y189323D01*
X413497D01*
Y189109D01*
X413923D01*
Y188896D01*
X414562D01*
Y188683D01*
X414989D01*
Y188470D01*
X415415D01*
Y188257D01*
X415841D01*
Y188044D01*
X416267D01*
Y187831D01*
X416693D01*
Y187618D01*
X417120D01*
Y187405D01*
X417546D01*
Y187192D01*
X417972D01*
Y186978D01*
X418185D01*
Y186765D01*
X418611D01*
Y186552D01*
X419038D01*
Y186339D01*
X419251D01*
Y186126D01*
X419677D01*
Y185913D01*
X420103D01*
Y185700D01*
X420316D01*
Y185487D01*
X420742D01*
Y185274D01*
X420956D01*
Y185061D01*
X421382D01*
Y184847D01*
X421595D01*
Y184634D01*
X421808D01*
Y184421D01*
X422234D01*
Y184208D01*
X422447D01*
Y183995D01*
X422873D01*
Y183782D01*
X423087D01*
Y183569D01*
X423300D01*
Y183356D01*
X423513D01*
Y183143D01*
X423726D01*
Y182929D01*
X424152D01*
Y182716D01*
X424365D01*
Y182503D01*
X424578D01*
Y182290D01*
X424791D01*
Y182077D01*
X425218D01*
Y181864D01*
X425431D01*
Y181651D01*
X425644D01*
Y181438D01*
X425857D01*
Y181225D01*
X426070D01*
Y181012D01*
X426283D01*
Y180798D01*
X426496D01*
Y180585D01*
X426709D01*
Y180372D01*
X426922D01*
Y180159D01*
X427135D01*
Y179946D01*
X427349D01*
Y179733D01*
X427562D01*
Y179520D01*
X427775D01*
Y179307D01*
X427988D01*
Y179094D01*
X428201D01*
Y178881D01*
X428414D01*
Y178668D01*
X428627D01*
Y178454D01*
X428840D01*
Y178241D01*
X429053D01*
Y178028D01*
X429267D01*
Y177815D01*
X429480D01*
Y177389D01*
X429693D01*
Y177176D01*
X429906D01*
Y176963D01*
X430119D01*
Y176750D01*
X430332D01*
Y176323D01*
X430545D01*
Y176110D01*
X430758D01*
Y175897D01*
X430971D01*
Y175684D01*
X431184D01*
Y175258D01*
X431398D01*
Y175045D01*
X431611D01*
Y174832D01*
X431824D01*
Y174405D01*
X432037D01*
Y174192D01*
X432250D01*
Y173766D01*
X432463D01*
Y173553D01*
X432676D01*
Y173127D01*
X432889D01*
Y172914D01*
X433102D01*
Y172488D01*
X433315D01*
Y172274D01*
X433529D01*
Y171848D01*
X433742D01*
Y171422D01*
X433955D01*
Y171209D01*
X434168D01*
Y170783D01*
X434381D01*
Y170357D01*
X434594D01*
Y169930D01*
X434807D01*
Y169504D01*
X435020D01*
Y169078D01*
X435233D01*
Y168865D01*
X435446D01*
Y168225D01*
X435659D01*
Y167799D01*
X435873D01*
Y167373D01*
X436086D01*
Y166947D01*
X436299D01*
Y166308D01*
X436512D01*
Y165881D01*
X436725D01*
Y165455D01*
X436938D01*
Y164816D01*
X437151D01*
Y164390D01*
X437364D01*
Y163537D01*
X437577D01*
Y163111D01*
X437790D01*
Y162472D01*
X438004D01*
Y161619D01*
X438217D01*
Y160980D01*
X438430D01*
Y160128D01*
X438643D01*
Y159275D01*
X438856D01*
Y158423D01*
X439069D01*
Y157144D01*
X439282D01*
Y155866D01*
X439495D01*
Y154374D01*
X439708D01*
Y151177D01*
X439921D01*
Y145850D01*
X439708D01*
Y143719D01*
X439495D01*
Y142653D01*
X439282D01*
Y141588D01*
X439069D01*
Y140522D01*
X438856D01*
Y139883D01*
X438643D01*
Y138818D01*
X438430D01*
Y137965D01*
X438217D01*
Y137326D01*
X438004D01*
Y136686D01*
X437790D01*
Y136047D01*
X437577D01*
Y135408D01*
X437364D01*
Y134768D01*
X437151D01*
Y134129D01*
X436938D01*
Y133703D01*
X436725D01*
Y133064D01*
X436512D01*
Y132638D01*
X436299D01*
Y132211D01*
X436086D01*
Y131572D01*
X435873D01*
Y131146D01*
X435659D01*
Y130720D01*
X435446D01*
Y130293D01*
X435233D01*
Y129867D01*
X435020D01*
Y129441D01*
X434807D01*
Y129015D01*
X434594D01*
Y128589D01*
X434381D01*
Y128162D01*
X434168D01*
Y127949D01*
X433955D01*
Y127523D01*
X433742D01*
Y127097D01*
X433529D01*
Y126884D01*
X433315D01*
Y126458D01*
X433102D01*
Y126031D01*
X432889D01*
Y125818D01*
X432676D01*
Y125605D01*
X432463D01*
Y125179D01*
X432250D01*
Y124966D01*
X432037D01*
Y124540D01*
X431824D01*
Y124326D01*
X431611D01*
Y123900D01*
X431398D01*
Y123687D01*
X431184D01*
Y123474D01*
X430971D01*
Y123048D01*
X430758D01*
Y122835D01*
X430545D01*
Y122622D01*
X430332D01*
Y122409D01*
X430119D01*
Y122196D01*
X429906D01*
Y121769D01*
X429693D01*
Y121556D01*
X429480D01*
Y121343D01*
X429267D01*
Y121130D01*
X429053D01*
Y120917D01*
X428840D01*
Y120704D01*
X428627D01*
Y120491D01*
X428414D01*
Y120064D01*
X428201D01*
Y119851D01*
X427988D01*
Y119638D01*
X427775D01*
Y119425D01*
X427562D01*
Y119212D01*
X427349D01*
Y118999D01*
X427135D01*
Y118786D01*
X426922D01*
Y118573D01*
X426709D01*
Y118360D01*
X426496D01*
Y118147D01*
X426283D01*
Y117934D01*
X425857D01*
Y117720D01*
X425644D01*
Y117507D01*
X425431D01*
Y117294D01*
X425218D01*
Y117081D01*
X425004D01*
Y116868D01*
X424791D01*
Y116655D01*
X424578D01*
Y116442D01*
X424365D01*
Y116229D01*
X423939D01*
Y116016D01*
X423726D01*
Y115802D01*
X423513D01*
Y115589D01*
X423087D01*
Y115376D01*
X422873D01*
Y115163D01*
X422660D01*
Y114950D01*
X422447D01*
Y114737D01*
X422021D01*
Y114524D01*
X421808D01*
Y114311D01*
X421382D01*
Y114098D01*
X421169D01*
Y113885D01*
X420956D01*
Y113672D01*
X420529D01*
Y113458D01*
X420316D01*
Y113245D01*
X419890D01*
Y113032D01*
X419464D01*
Y112819D01*
X419251D01*
Y112606D01*
X418825D01*
Y112393D01*
X418398D01*
Y112180D01*
X418185D01*
Y111967D01*
X417759D01*
Y111754D01*
X417333D01*
Y111540D01*
X416907D01*
Y111327D01*
X416480D01*
Y111114D01*
X416054D01*
Y110901D01*
X415628D01*
Y110688D01*
X415202D01*
Y110475D01*
X414776D01*
Y110262D01*
X414349D01*
Y110049D01*
X413923D01*
Y109836D01*
X413284D01*
Y109622D01*
X412858D01*
Y109409D01*
X412218D01*
Y109196D01*
X411792D01*
Y108983D01*
X411153D01*
Y108770D01*
X410513D01*
Y108557D01*
X409874D01*
Y108344D01*
X409022D01*
Y108131D01*
X408382D01*
Y107918D01*
X407743D01*
Y107705D01*
X406678D01*
Y107492D01*
X406038D01*
Y107278D01*
X404760D01*
Y107065D01*
X403481D01*
Y106852D01*
X402202D01*
Y106639D01*
X399645D01*
Y106426D01*
X393892D01*
Y106639D01*
X391334D01*
Y106852D01*
X390056D01*
Y107065D01*
X388777D01*
Y107278D01*
X387499D01*
Y107492D01*
X386646D01*
Y107705D01*
X385794D01*
Y107918D01*
X385154D01*
Y108131D01*
X384515D01*
Y108344D01*
X383663D01*
Y108557D01*
X383023D01*
Y108770D01*
X382384D01*
Y108983D01*
X381745D01*
Y109196D01*
X381319D01*
Y109409D01*
X380679D01*
Y109622D01*
X380253D01*
Y109836D01*
X379614D01*
Y110049D01*
X379188D01*
Y110262D01*
X378761D01*
Y110475D01*
X378335D01*
Y110688D01*
X377909D01*
Y110901D01*
X377483D01*
Y111114D01*
X377057D01*
Y111327D01*
X376630D01*
Y111540D01*
X376204D01*
Y111754D01*
X375778D01*
Y111967D01*
X375352D01*
Y112180D01*
X375139D01*
Y112393D01*
X374712D01*
Y112606D01*
X374286D01*
Y112819D01*
X374073D01*
Y113032D01*
X373647D01*
Y113245D01*
X373221D01*
Y113458D01*
X373008D01*
Y113672D01*
X372794D01*
Y113885D01*
X372368D01*
Y114098D01*
X372155D01*
Y114311D01*
X371729D01*
Y114524D01*
X371516D01*
Y114737D01*
X371090D01*
Y114950D01*
X370877D01*
Y115163D01*
X370663D01*
Y115376D01*
X370450D01*
Y115589D01*
X370024D01*
Y115802D01*
X369811D01*
Y116016D01*
X369598D01*
Y116229D01*
X369172D01*
Y116442D01*
X368959D01*
Y116655D01*
X368746D01*
Y116868D01*
X368532D01*
Y117081D01*
X368319D01*
Y117294D01*
X368106D01*
Y117507D01*
X367893D01*
Y117720D01*
X367467D01*
Y117934D01*
X367254D01*
Y118147D01*
X367041D01*
Y118360D01*
X366828D01*
Y118573D01*
X366615D01*
Y118786D01*
X366401D01*
Y118999D01*
X366188D01*
Y119212D01*
X365975D01*
Y119425D01*
X365762D01*
Y119638D01*
X365549D01*
Y119851D01*
X365336D01*
Y120064D01*
X365123D01*
Y120278D01*
X364910D01*
Y120704D01*
X364697D01*
Y120917D01*
X364483D01*
Y121130D01*
X364270D01*
Y121343D01*
X364057D01*
Y121556D01*
X363844D01*
Y121769D01*
X363631D01*
Y122196D01*
X363418D01*
Y122409D01*
X363205D01*
Y122622D01*
X362992D01*
Y122835D01*
X362779D01*
Y123048D01*
X362566D01*
Y123474D01*
X362352D01*
Y123687D01*
X362139D01*
Y123900D01*
X361926D01*
Y124326D01*
X361713D01*
Y124540D01*
X361500D01*
Y124966D01*
X361287D01*
Y125179D01*
X361074D01*
Y125605D01*
X360861D01*
Y125818D01*
X360648D01*
Y126244D01*
X360435D01*
Y126458D01*
X360221D01*
Y126884D01*
X360008D01*
Y127310D01*
X359795D01*
Y127523D01*
X359582D01*
Y127949D01*
X359369D01*
Y128376D01*
X359156D01*
Y128589D01*
X358943D01*
Y129015D01*
X358730D01*
Y129441D01*
X358517D01*
Y129867D01*
X358304D01*
Y130293D01*
X358091D01*
Y130720D01*
X357877D01*
Y131146D01*
X357664D01*
Y131572D01*
X357451D01*
Y131998D01*
X357238D01*
Y132424D01*
X357025D01*
Y133064D01*
X356812D01*
Y133490D01*
X356599D01*
Y134129D01*
X356386D01*
Y134768D01*
X356173D01*
Y135408D01*
X355960D01*
Y135834D01*
X355746D01*
Y136686D01*
X355533D01*
Y137326D01*
X355320D01*
Y137965D01*
X355107D01*
Y138818D01*
X354894D01*
Y139670D01*
X354681D01*
Y140735D01*
X354468D01*
Y141801D01*
X354255D01*
Y142653D01*
X354042D01*
Y144358D01*
X353829D01*
Y146915D01*
X353615D01*
Y151390D01*
X353829D01*
Y154161D01*
X354042D01*
Y156079D01*
X354255D01*
Y157144D01*
X354468D01*
Y158423D01*
X354681D01*
Y159275D01*
X354894D01*
Y160128D01*
X355107D01*
Y160980D01*
X355320D01*
Y161832D01*
X355533D01*
Y162472D01*
X355746D01*
Y163111D01*
X355960D01*
Y163750D01*
X356173D01*
Y164390D01*
X356386D01*
Y164816D01*
X356599D01*
Y165455D01*
X356812D01*
Y165881D01*
X357025D01*
Y166521D01*
X357238D01*
Y166947D01*
X357451D01*
Y167373D01*
X357664D01*
Y167799D01*
X357877D01*
Y168225D01*
X358091D01*
Y168652D01*
X358304D01*
Y169291D01*
X358517D01*
Y169504D01*
X358730D01*
Y169930D01*
X358943D01*
Y170357D01*
X359156D01*
Y170783D01*
X359369D01*
Y171209D01*
X359582D01*
Y171422D01*
X359795D01*
Y171848D01*
X360008D01*
Y172274D01*
X360221D01*
Y172488D01*
X360435D01*
Y172914D01*
X360648D01*
Y173127D01*
X360861D01*
Y173553D01*
X361074D01*
Y173766D01*
X361287D01*
Y174192D01*
X361500D01*
Y174405D01*
X361713D01*
Y174618D01*
X361926D01*
Y175045D01*
X362139D01*
Y175258D01*
X362352D01*
Y175684D01*
X362566D01*
Y175897D01*
X362779D01*
Y176110D01*
X362992D01*
Y176537D01*
X363205D01*
Y176750D01*
X363418D01*
Y176963D01*
X363631D01*
Y177176D01*
X363844D01*
Y177389D01*
X364057D01*
Y177815D01*
X364270D01*
Y178028D01*
X364483D01*
Y178241D01*
X364697D01*
Y178454D01*
X364910D01*
Y178668D01*
X365123D01*
Y178881D01*
X365336D01*
Y179094D01*
X365549D01*
Y179307D01*
X365762D01*
Y179520D01*
X365975D01*
Y179733D01*
X366188D01*
Y179946D01*
X366401D01*
Y180159D01*
X366615D01*
Y180372D01*
X366828D01*
Y180585D01*
X367041D01*
Y180798D01*
X367254D01*
Y181012D01*
X367467D01*
Y181225D01*
X367680D01*
Y181438D01*
X367893D01*
Y181651D01*
X368106D01*
Y181864D01*
X368319D01*
Y182077D01*
X368746D01*
Y182290D01*
X368959D01*
Y182503D01*
X369172D01*
Y182716D01*
X369385D01*
Y182929D01*
X369598D01*
Y183143D01*
X370024D01*
Y183356D01*
X370237D01*
Y183569D01*
X370450D01*
Y183782D01*
X370663D01*
Y183995D01*
X371090D01*
Y184208D01*
X371303D01*
Y184421D01*
X371729D01*
Y184634D01*
X371942D01*
Y184847D01*
X372155D01*
Y185061D01*
X372581D01*
Y185274D01*
X372794D01*
Y185487D01*
X373221D01*
Y185700D01*
X373434D01*
Y185913D01*
X373860D01*
Y186126D01*
X374073D01*
Y186339D01*
X374499D01*
Y186552D01*
X374925D01*
Y186765D01*
X375139D01*
Y186978D01*
X375778D01*
Y187192D01*
X375991D01*
Y187405D01*
X376417D01*
Y187618D01*
X376843D01*
Y187831D01*
X377270D01*
Y188044D01*
X377696D01*
Y188257D01*
X378122D01*
Y188470D01*
X378548D01*
Y188683D01*
X378974D01*
Y188896D01*
X379614D01*
Y189109D01*
X380040D01*
Y189323D01*
X380466D01*
Y189536D01*
X381105D01*
Y189749D01*
X381532D01*
Y189962D01*
X382171D01*
Y190175D01*
X382810D01*
Y190388D01*
X383450D01*
Y190601D01*
X384089D01*
Y190814D01*
X384728D01*
Y191027D01*
X385581D01*
Y191241D01*
X386433D01*
Y191454D01*
X387285D01*
Y191667D01*
X388351D01*
Y191880D01*
X389630D01*
Y192093D01*
X390695D01*
Y192306D01*
X392826D01*
Y192519D01*
X400498D01*
Y192306D01*
D02*
G37*
%LPC*%
G36*
X379188Y184847D02*
X377057D01*
Y184634D01*
X375778D01*
Y184421D01*
X374712D01*
Y184208D01*
X374073D01*
Y183995D01*
X373647D01*
Y183782D01*
X373008D01*
Y183569D01*
X372581D01*
Y183356D01*
X372155D01*
Y183143D01*
X371729D01*
Y182929D01*
X371516D01*
Y182716D01*
X371090D01*
Y182503D01*
X370877D01*
Y182290D01*
X370450D01*
Y182077D01*
X370237D01*
Y181864D01*
X370024D01*
Y181651D01*
X369598D01*
Y181438D01*
X369385D01*
Y181225D01*
X369172D01*
Y181012D01*
X368959D01*
Y180798D01*
X368532D01*
Y180585D01*
X368319D01*
Y180372D01*
X368106D01*
Y180159D01*
X367893D01*
Y179946D01*
X367680D01*
Y179733D01*
X367467D01*
Y179520D01*
X367254D01*
Y179307D01*
X367041D01*
Y179094D01*
X366828D01*
Y178668D01*
X366615D01*
Y178454D01*
X366401D01*
Y178241D01*
X366188D01*
Y178028D01*
X365975D01*
Y177602D01*
X365762D01*
Y177389D01*
X365549D01*
Y177176D01*
X365336D01*
Y176750D01*
X365123D01*
Y176537D01*
X364910D01*
Y176110D01*
X364697D01*
Y175684D01*
X364483D01*
Y175045D01*
X364270D01*
Y174618D01*
X364057D01*
Y173979D01*
X363844D01*
Y172914D01*
X363631D01*
Y169930D01*
X363844D01*
Y169078D01*
X364057D01*
Y168652D01*
X364270D01*
Y168225D01*
X364483D01*
Y167799D01*
X364697D01*
Y167586D01*
X364910D01*
Y167160D01*
X365123D01*
Y166947D01*
X365336D01*
Y166734D01*
X365549D01*
Y166521D01*
X365762D01*
Y166308D01*
X365975D01*
Y166094D01*
X366401D01*
Y165881D01*
X366615D01*
Y165668D01*
X367041D01*
Y165455D01*
X367467D01*
Y165242D01*
X367893D01*
Y165029D01*
X368746D01*
Y164816D01*
X370237D01*
Y164603D01*
X371729D01*
Y164816D01*
X373434D01*
Y165029D01*
X374286D01*
Y165242D01*
X374925D01*
Y165455D01*
X375565D01*
Y165668D01*
X376204D01*
Y165881D01*
X376630D01*
Y166094D01*
X377057D01*
Y166308D01*
X377483D01*
Y166521D01*
X377909D01*
Y166734D01*
X378122D01*
Y166947D01*
X378335D01*
Y167160D01*
X378761D01*
Y167373D01*
X379188D01*
Y167586D01*
X379401D01*
Y167799D01*
X379614D01*
Y168012D01*
X380040D01*
Y168225D01*
X380253D01*
Y168439D01*
X380466D01*
Y168652D01*
X380679D01*
Y168865D01*
X380892D01*
Y169078D01*
X381105D01*
Y169291D01*
X381319D01*
Y169504D01*
X381532D01*
Y169717D01*
X381745D01*
Y169930D01*
X381958D01*
Y170143D01*
X382171D01*
Y170357D01*
X382384D01*
Y170570D01*
X382597D01*
Y170783D01*
X382810D01*
Y171209D01*
X383023D01*
Y171422D01*
X383237D01*
Y171848D01*
X383450D01*
Y172061D01*
X383663D01*
Y172488D01*
X383876D01*
Y172914D01*
X384089D01*
Y173340D01*
X384302D01*
Y173553D01*
X384515D01*
Y174192D01*
X384728D01*
Y174618D01*
X384941D01*
Y175471D01*
X385154D01*
Y176323D01*
X385368D01*
Y179520D01*
X385154D01*
Y180372D01*
X384941D01*
Y181012D01*
X384728D01*
Y181438D01*
X384515D01*
Y181651D01*
X384302D01*
Y182077D01*
X384089D01*
Y182290D01*
X383876D01*
Y182503D01*
X383663D01*
Y182716D01*
X383450D01*
Y182929D01*
X383237D01*
Y183143D01*
X383023D01*
Y183356D01*
X382810D01*
Y183569D01*
X382384D01*
Y183782D01*
X381958D01*
Y183995D01*
X381532D01*
Y184208D01*
X381105D01*
Y184421D01*
X380466D01*
Y184634D01*
X379188D01*
Y184847D01*
D02*
G37*
G36*
X408809Y163964D02*
X405186D01*
Y163750D01*
X404334D01*
Y163537D01*
X403694D01*
Y163324D01*
X403055D01*
Y163111D01*
X402629D01*
Y162898D01*
X402202D01*
Y162685D01*
X401989D01*
Y162472D01*
X401563D01*
Y162259D01*
X401350D01*
Y162045D01*
X401137D01*
Y161832D01*
X400924D01*
Y161619D01*
X400498D01*
Y161406D01*
X400285D01*
Y161193D01*
X400071D01*
Y160767D01*
X399858D01*
Y160554D01*
X399645D01*
Y160341D01*
X399432D01*
Y160128D01*
X399219D01*
Y159701D01*
X399006D01*
Y159488D01*
X398793D01*
Y159062D01*
X398580D01*
Y158636D01*
X398367D01*
Y157997D01*
X398154D01*
Y157570D01*
X397940D01*
Y156718D01*
X397727D01*
Y155226D01*
X397514D01*
Y153948D01*
X397727D01*
Y152456D01*
X397940D01*
Y151604D01*
X398154D01*
Y151177D01*
X398367D01*
Y150538D01*
X398580D01*
Y150112D01*
X398793D01*
Y149686D01*
X399006D01*
Y149473D01*
X399219D01*
Y149046D01*
X399432D01*
Y148833D01*
X399645D01*
Y148620D01*
X399858D01*
Y148407D01*
X400071D01*
Y148194D01*
X400285D01*
Y147981D01*
X400498D01*
Y147768D01*
X400711D01*
Y147555D01*
X400924D01*
Y147341D01*
X401137D01*
Y147128D01*
X401350D01*
Y146915D01*
X401776D01*
Y146702D01*
X401989D01*
Y146489D01*
X402416D01*
Y146276D01*
X402842D01*
Y146063D01*
X403268D01*
Y145850D01*
X403694D01*
Y145637D01*
X404334D01*
Y145424D01*
X405186D01*
Y145211D01*
X408809D01*
Y145424D01*
X409661D01*
Y145637D01*
X410300D01*
Y145850D01*
X410940D01*
Y146063D01*
X411366D01*
Y146276D01*
X411579D01*
Y146489D01*
X412005D01*
Y146702D01*
X412431D01*
Y146915D01*
X412645D01*
Y147128D01*
X412858D01*
Y147341D01*
X413284D01*
Y147555D01*
X413497D01*
Y147768D01*
X413710D01*
Y147981D01*
X413923D01*
Y148194D01*
X414136D01*
Y148407D01*
X414349D01*
Y148833D01*
X414562D01*
Y149046D01*
X414776D01*
Y149259D01*
X414989D01*
Y149686D01*
X415202D01*
Y150112D01*
X415415D01*
Y150538D01*
X415628D01*
Y150964D01*
X415841D01*
Y151604D01*
X416054D01*
Y152243D01*
X416267D01*
Y153308D01*
X416480D01*
Y155866D01*
X416267D01*
Y156931D01*
X416054D01*
Y157570D01*
X415841D01*
Y158210D01*
X415628D01*
Y158636D01*
X415415D01*
Y159062D01*
X415202D01*
Y159488D01*
X414989D01*
Y159915D01*
X414776D01*
Y160128D01*
X414562D01*
Y160341D01*
X414349D01*
Y160767D01*
X414136D01*
Y160980D01*
X413923D01*
Y161193D01*
X413710D01*
Y161406D01*
X413497D01*
Y161619D01*
X413284D01*
Y161832D01*
X412858D01*
Y162045D01*
X412645D01*
Y162259D01*
X412431D01*
Y162472D01*
X412005D01*
Y162685D01*
X411792D01*
Y162898D01*
X411366D01*
Y163111D01*
X410940D01*
Y163324D01*
X410300D01*
Y163537D01*
X409661D01*
Y163750D01*
X408809D01*
Y163964D01*
D02*
G37*
G36*
X393039Y148620D02*
X390482D01*
Y148407D01*
X387285D01*
Y148194D01*
X385581D01*
Y147981D01*
X383237D01*
Y147768D01*
X381958D01*
Y147555D01*
X380466D01*
Y147341D01*
X378761D01*
Y147128D01*
X377909D01*
Y146915D01*
X376630D01*
Y146702D01*
X375352D01*
Y146489D01*
X374499D01*
Y146276D01*
X373647D01*
Y146063D01*
X372581D01*
Y145850D01*
X371942D01*
Y145637D01*
X370877D01*
Y145424D01*
X370024D01*
Y145211D01*
X369385D01*
Y144997D01*
X368959D01*
Y144784D01*
X368319D01*
Y144571D01*
X367680D01*
Y144358D01*
X366828D01*
Y144145D01*
X366188D01*
Y143932D01*
X365336D01*
Y143719D01*
X364697D01*
Y143506D01*
X364057D01*
Y143293D01*
X363418D01*
Y143080D01*
X362779D01*
Y142866D01*
X362139D01*
Y142653D01*
X361287D01*
Y142440D01*
X360861D01*
Y142227D01*
X360221D01*
Y142014D01*
X359582D01*
Y141801D01*
X359156D01*
Y141588D01*
X358517D01*
Y141375D01*
X357877D01*
Y141162D01*
X357451D01*
Y140948D01*
X356599D01*
Y140735D01*
X356173D01*
Y140522D01*
X355960D01*
Y140096D01*
X356173D01*
Y139031D01*
X356386D01*
Y138178D01*
X356599D01*
Y137539D01*
X356812D01*
Y136899D01*
X357025D01*
Y136260D01*
X357238D01*
Y135621D01*
X357451D01*
Y134982D01*
X357664D01*
Y134555D01*
X357877D01*
Y134129D01*
X358091D01*
Y133490D01*
X358304D01*
Y133064D01*
X358517D01*
Y132424D01*
X358730D01*
Y131998D01*
X358943D01*
Y131785D01*
X359156D01*
Y131146D01*
X359369D01*
Y130720D01*
X359582D01*
Y130293D01*
X359795D01*
Y129867D01*
X360008D01*
Y129441D01*
X360221D01*
Y129015D01*
X360435D01*
Y128802D01*
X360648D01*
Y128376D01*
X360861D01*
Y128162D01*
X361074D01*
Y127736D01*
X361287D01*
Y127310D01*
X361500D01*
Y127097D01*
X361713D01*
Y126671D01*
X361926D01*
Y126458D01*
X362139D01*
Y126031D01*
X362352D01*
Y125818D01*
X362566D01*
Y125605D01*
X362779D01*
Y125179D01*
X362992D01*
Y124753D01*
X363205D01*
Y124540D01*
X363418D01*
Y124326D01*
X363631D01*
Y124113D01*
X363844D01*
Y123900D01*
X364057D01*
Y123474D01*
X364270D01*
Y123261D01*
X364483D01*
Y123048D01*
X364697D01*
Y122622D01*
X365123D01*
Y122196D01*
X365336D01*
Y121982D01*
X365549D01*
Y121769D01*
X365762D01*
Y121556D01*
X365975D01*
Y121343D01*
X366188D01*
Y121130D01*
X366401D01*
Y120917D01*
X366615D01*
Y120704D01*
X366828D01*
Y120491D01*
X367041D01*
Y120278D01*
X367254D01*
Y120064D01*
X367467D01*
Y119851D01*
X367680D01*
Y119638D01*
X367893D01*
Y119425D01*
X368106D01*
Y119212D01*
X368319D01*
Y118999D01*
X368532D01*
Y118786D01*
X368746D01*
Y118573D01*
X368959D01*
Y118360D01*
X369172D01*
Y118147D01*
X369598D01*
Y117934D01*
X369811D01*
Y117720D01*
X370024D01*
Y117507D01*
X370237D01*
Y117294D01*
X370450D01*
Y117081D01*
X370877D01*
Y116868D01*
X371090D01*
Y116655D01*
X371303D01*
Y116442D01*
X371516D01*
Y116229D01*
X371942D01*
Y116016D01*
X372155D01*
Y115802D01*
X372581D01*
Y115589D01*
X372794D01*
Y115376D01*
X373221D01*
Y115163D01*
X373434D01*
Y114950D01*
X373647D01*
Y114737D01*
X374073D01*
Y114524D01*
X374286D01*
Y114311D01*
X374712D01*
Y114098D01*
X375139D01*
Y113885D01*
X375352D01*
Y113672D01*
X375778D01*
Y113458D01*
X376204D01*
Y113245D01*
X376417D01*
Y113032D01*
X377057D01*
Y112819D01*
X377270D01*
Y112606D01*
X377696D01*
Y112393D01*
X378122D01*
Y112180D01*
X378548D01*
Y111967D01*
X378974D01*
Y111754D01*
X379614D01*
Y111540D01*
X380040D01*
Y111327D01*
X380466D01*
Y111114D01*
X381105D01*
Y110901D01*
X381532D01*
Y110688D01*
X382171D01*
Y110475D01*
X382597D01*
Y110262D01*
X383237D01*
Y110049D01*
X384089D01*
Y109836D01*
X384728D01*
Y109622D01*
X385368D01*
Y109409D01*
X386220D01*
Y109196D01*
X387072D01*
Y108983D01*
X387925D01*
Y108770D01*
X389203D01*
Y108557D01*
X390269D01*
Y108344D01*
X391548D01*
Y108131D01*
X396023D01*
Y107918D01*
X397301D01*
Y108131D01*
X401563D01*
Y108344D01*
X403268D01*
Y108557D01*
X404334D01*
Y108770D01*
X405612D01*
Y108983D01*
X406465D01*
Y109196D01*
X407317D01*
Y109409D01*
X408169D01*
Y109622D01*
X408809D01*
Y109836D01*
X409448D01*
Y110049D01*
X410087D01*
Y110262D01*
X410727D01*
Y110475D01*
X411366D01*
Y110688D01*
X412005D01*
Y110901D01*
X412431D01*
Y111114D01*
X412858D01*
Y111327D01*
X413497D01*
Y111540D01*
X413923D01*
Y111754D01*
X414349D01*
Y111967D01*
X414776D01*
Y112180D01*
X415415D01*
Y112393D01*
X415841D01*
Y112606D01*
X416054D01*
Y112819D01*
X416480D01*
Y113032D01*
X416907D01*
Y113245D01*
X417333D01*
Y113458D01*
X417759D01*
Y113672D01*
X417972D01*
Y113885D01*
X418398D01*
Y114098D01*
X418825D01*
Y114311D01*
X419038D01*
Y114524D01*
X419464D01*
Y114737D01*
X419677D01*
Y114950D01*
X420103D01*
Y115163D01*
X420316D01*
Y115376D01*
X420742D01*
Y115589D01*
X420956D01*
Y115802D01*
X421382D01*
Y116016D01*
X421595D01*
Y116229D01*
X421808D01*
Y116442D01*
X422234D01*
Y116655D01*
X422447D01*
Y116868D01*
X422660D01*
Y117081D01*
X422873D01*
Y117294D01*
X423087D01*
Y117507D01*
X423513D01*
Y117720D01*
X423726D01*
Y117934D01*
X423939D01*
Y118147D01*
X424152D01*
Y118360D01*
X424365D01*
Y118573D01*
X424791D01*
Y118786D01*
X425004D01*
Y118999D01*
X425218D01*
Y119212D01*
X425431D01*
Y119425D01*
X425644D01*
Y119638D01*
X425857D01*
Y119851D01*
X426070D01*
Y120064D01*
X426283D01*
Y120278D01*
X426496D01*
Y120491D01*
X426709D01*
Y120704D01*
X426922D01*
Y120917D01*
X427135D01*
Y121130D01*
X427349D01*
Y121343D01*
X427562D01*
Y121556D01*
X427775D01*
Y121982D01*
X427988D01*
Y122196D01*
X428201D01*
Y122409D01*
X428414D01*
Y122622D01*
X428627D01*
Y122835D01*
X428840D01*
Y123048D01*
X429053D01*
Y123474D01*
X429267D01*
Y123687D01*
X429480D01*
Y123900D01*
X429693D01*
Y124113D01*
X429906D01*
Y124540D01*
X430119D01*
Y124753D01*
X430332D01*
Y124966D01*
X430545D01*
Y125392D01*
X430758D01*
Y125605D01*
X430971D01*
Y126031D01*
X431184D01*
Y126244D01*
X431398D01*
Y126458D01*
X431611D01*
Y126884D01*
X431824D01*
Y127097D01*
X432037D01*
Y127310D01*
X432250D01*
Y127736D01*
X432463D01*
Y127949D01*
X432676D01*
Y128376D01*
X432889D01*
Y128589D01*
X433102D01*
Y129015D01*
X433315D01*
Y129228D01*
X433529D01*
Y129654D01*
X433742D01*
Y130080D01*
X433955D01*
Y130506D01*
X434168D01*
Y130933D01*
X434381D01*
Y131359D01*
X434594D01*
Y131785D01*
X434807D01*
Y132211D01*
X435020D01*
Y132851D01*
X435233D01*
Y133277D01*
X435446D01*
Y133703D01*
X435659D01*
Y134342D01*
X435873D01*
Y134768D01*
X436086D01*
Y135408D01*
X436299D01*
Y136047D01*
X436512D01*
Y136686D01*
X436725D01*
Y137326D01*
X436938D01*
Y137965D01*
X437151D01*
Y138818D01*
X437364D01*
Y139670D01*
X437577D01*
Y140735D01*
X437364D01*
Y140948D01*
X436938D01*
Y141162D01*
X436512D01*
Y141375D01*
X435873D01*
Y141588D01*
X435446D01*
Y141801D01*
X434807D01*
Y142014D01*
X434168D01*
Y142227D01*
X433742D01*
Y142440D01*
X433102D01*
Y142653D01*
X432463D01*
Y142866D01*
X431824D01*
Y143080D01*
X431184D01*
Y143293D01*
X430545D01*
Y143506D01*
X429906D01*
Y143719D01*
X429267D01*
Y143932D01*
X428627D01*
Y144145D01*
X427988D01*
Y144358D01*
X427135D01*
Y144571D01*
X426496D01*
Y144784D01*
X425644D01*
Y144997D01*
X424791D01*
Y145211D01*
X424152D01*
Y145424D01*
X423300D01*
Y145637D01*
X422234D01*
Y145850D01*
X421382D01*
Y146063D01*
X420529D01*
Y146276D01*
X419038D01*
Y146063D01*
X418825D01*
Y145637D01*
X418611D01*
Y145424D01*
X418398D01*
Y145211D01*
X418185D01*
Y144784D01*
X417972D01*
Y144571D01*
X417759D01*
Y144358D01*
X417546D01*
Y144145D01*
X417333D01*
Y143932D01*
X417120D01*
Y143719D01*
X416907D01*
Y143506D01*
X416693D01*
Y143293D01*
X416480D01*
Y143080D01*
X416267D01*
Y142866D01*
X416054D01*
Y142653D01*
X415628D01*
Y142440D01*
X415415D01*
Y142227D01*
X415202D01*
Y142014D01*
X414776D01*
Y141801D01*
X414562D01*
Y141588D01*
X414136D01*
Y141375D01*
X413710D01*
Y141162D01*
X413284D01*
Y140948D01*
X412858D01*
Y140735D01*
X412431D01*
Y140522D01*
X412005D01*
Y140309D01*
X411366D01*
Y140096D01*
X410513D01*
Y139883D01*
X409874D01*
Y139670D01*
X408382D01*
Y139457D01*
X404973D01*
Y139670D01*
X403481D01*
Y139883D01*
X402842D01*
Y140096D01*
X401989D01*
Y140309D01*
X401350D01*
Y140522D01*
X400924D01*
Y140735D01*
X400498D01*
Y140948D01*
X400071D01*
Y141162D01*
X399645D01*
Y141375D01*
X399219D01*
Y141588D01*
X398793D01*
Y141801D01*
X398580D01*
Y142014D01*
X398154D01*
Y142227D01*
X397940D01*
Y142440D01*
X397727D01*
Y142653D01*
X397301D01*
Y142866D01*
X397088D01*
Y143080D01*
X396875D01*
Y143293D01*
X396662D01*
Y143506D01*
X396449D01*
Y143719D01*
X396236D01*
Y143932D01*
X396023D01*
Y144145D01*
X395810D01*
Y144358D01*
X395596D01*
Y144571D01*
X395383D01*
Y144784D01*
X395170D01*
Y144997D01*
X394957D01*
Y145424D01*
X394744D01*
Y145637D01*
X394531D01*
Y145850D01*
X394318D01*
Y146276D01*
X394105D01*
Y146702D01*
X393892D01*
Y146915D01*
X393679D01*
Y147341D01*
X393465D01*
Y147768D01*
X393252D01*
Y148194D01*
X393039D01*
Y148620D01*
D02*
G37*
%LPD*%
G36*
X408382Y161619D02*
X409235D01*
Y161406D01*
X409661D01*
Y161193D01*
X410300D01*
Y160980D01*
X410727D01*
Y160767D01*
X410940D01*
Y160554D01*
X411366D01*
Y160341D01*
X411579D01*
Y160128D01*
X411792D01*
Y159915D01*
X412005D01*
Y159701D01*
X412218D01*
Y159488D01*
X412431D01*
Y159275D01*
X412645D01*
Y159062D01*
X412858D01*
Y158849D01*
X413071D01*
Y158423D01*
X413284D01*
Y157997D01*
X413497D01*
Y157570D01*
X413710D01*
Y157144D01*
X413923D01*
Y156292D01*
X414136D01*
Y155013D01*
X414349D01*
Y153948D01*
X414136D01*
Y152882D01*
X413923D01*
Y152030D01*
X413710D01*
Y151604D01*
X413497D01*
Y151177D01*
X413284D01*
Y150751D01*
X413071D01*
Y150538D01*
X412858D01*
Y150112D01*
X412645D01*
Y149899D01*
X412431D01*
Y149686D01*
X412218D01*
Y149473D01*
X412005D01*
Y149259D01*
X411792D01*
Y149046D01*
X411579D01*
Y148833D01*
X411153D01*
Y148620D01*
X410940D01*
Y148407D01*
X410513D01*
Y148194D01*
X410300D01*
Y147981D01*
X409661D01*
Y147768D01*
X409022D01*
Y147555D01*
X408169D01*
Y147341D01*
X405825D01*
Y147555D01*
X404973D01*
Y147768D01*
X404334D01*
Y147981D01*
X403907D01*
Y148194D01*
X403481D01*
Y148407D01*
X403055D01*
Y148620D01*
X402842D01*
Y148833D01*
X402416D01*
Y149046D01*
X402202D01*
Y149259D01*
X401989D01*
Y149473D01*
X401776D01*
Y149686D01*
X401563D01*
Y149899D01*
X401350D01*
Y150325D01*
X401137D01*
Y150538D01*
X400924D01*
Y150751D01*
X400711D01*
Y151177D01*
X400498D01*
Y151604D01*
X400285D01*
Y152243D01*
X400071D01*
Y153095D01*
X399858D01*
Y154374D01*
X399645D01*
Y154800D01*
X399858D01*
Y156292D01*
X400071D01*
Y156931D01*
X400285D01*
Y157570D01*
X400498D01*
Y157997D01*
X400711D01*
Y158423D01*
X400924D01*
Y158636D01*
X401137D01*
Y158849D01*
X401350D01*
Y159275D01*
X401563D01*
Y159488D01*
X401776D01*
Y159701D01*
X401989D01*
Y159915D01*
X402202D01*
Y160128D01*
X402416D01*
Y160341D01*
X402842D01*
Y160554D01*
X403055D01*
Y160767D01*
X403481D01*
Y160980D01*
X403694D01*
Y161193D01*
X404334D01*
Y161406D01*
X404760D01*
Y161619D01*
X405612D01*
Y161832D01*
X408382D01*
Y161619D01*
D02*
G37*
%LPC*%
G36*
X408596Y161193D02*
X405399D01*
Y160980D01*
X404760D01*
Y160767D01*
X404334D01*
Y160554D01*
X403694D01*
Y160341D01*
X403481D01*
Y160128D01*
X403055D01*
Y159915D01*
X402842D01*
Y159701D01*
X402629D01*
Y159488D01*
X402416D01*
Y159275D01*
X402202D01*
Y159062D01*
X401989D01*
Y158849D01*
X401776D01*
Y158636D01*
X401563D01*
Y158210D01*
X401350D01*
Y157997D01*
X401137D01*
Y157570D01*
X400924D01*
Y157144D01*
X400711D01*
Y156292D01*
X400498D01*
Y155653D01*
X400285D01*
Y153521D01*
X400498D01*
Y152882D01*
X400711D01*
Y152030D01*
X400924D01*
Y151604D01*
X401137D01*
Y151177D01*
X401350D01*
Y150964D01*
X401563D01*
Y150538D01*
X401776D01*
Y150325D01*
X401989D01*
Y150112D01*
X402202D01*
Y149899D01*
X402416D01*
Y149686D01*
X402629D01*
Y149473D01*
X402842D01*
Y149259D01*
X403055D01*
Y149046D01*
X403481D01*
Y148833D01*
X403907D01*
Y148620D01*
X404334D01*
Y148407D01*
X404760D01*
Y148194D01*
X405399D01*
Y147981D01*
X408596D01*
Y148194D01*
X409235D01*
Y148407D01*
X409874D01*
Y148620D01*
X410300D01*
Y148833D01*
X410513D01*
Y149046D01*
X410940D01*
Y149259D01*
X411153D01*
Y149473D01*
X411366D01*
Y149686D01*
X411579D01*
Y149899D01*
X411792D01*
Y150112D01*
X412005D01*
Y150325D01*
X412218D01*
Y150538D01*
X412431D01*
Y150751D01*
X412645D01*
Y151177D01*
X412858D01*
Y151604D01*
X413071D01*
Y152030D01*
X413284D01*
Y152669D01*
X413497D01*
Y153521D01*
X413710D01*
Y155653D01*
X413497D01*
Y156718D01*
X413284D01*
Y157144D01*
X413071D01*
Y157570D01*
X412858D01*
Y157997D01*
X412645D01*
Y158423D01*
X412431D01*
Y158636D01*
X412218D01*
Y158849D01*
X412005D01*
Y159062D01*
X411792D01*
Y159488D01*
X411366D01*
Y159701D01*
X411153D01*
Y159915D01*
X410940D01*
Y160128D01*
X410513D01*
Y160341D01*
X410300D01*
Y160554D01*
X409874D01*
Y160767D01*
X409448D01*
Y160980D01*
X408596D01*
Y161193D01*
D02*
G37*
%LPD*%
D10*
X451220Y685800D02*
G03*
X451220Y685800I-3810J0D01*
G01*
X670560Y402620D02*
G03*
X670560Y402620I-3810J0D01*
G01*
X490220Y393330D02*
G03*
X490220Y393330I-3810J0D01*
G01*
X302260D02*
G03*
X302260Y393330I-3810J0D01*
G01*
X100330Y397140D02*
G03*
X100330Y397140I-3810J0D01*
G01*
X584200Y256170D02*
G03*
X584200Y256170I-3810J0D01*
G01*
X574040Y395870D02*
G03*
X574040Y395870I-3810J0D01*
G01*
X398780Y393330D02*
G03*
X398780Y393330I-3810J0D01*
G01*
X196850Y395870D02*
G03*
X196850Y395870I-3810J0D01*
G01*
X687070Y256170D02*
G03*
X687070Y256170I-3810J0D01*
G01*
X468630Y256570D02*
G03*
X468630Y256570I-3810J0D01*
G01*
X306070Y256170D02*
G03*
X306070Y256170I-3810J0D01*
G01*
X99060Y267600D02*
G03*
X99060Y267600I-3810J0D01*
G01*
D11*
X610630Y581230D02*
G03*
X610630Y581230I-1250J0D01*
G01*
X431560Y585040D02*
G03*
X431560Y585040I-1250J0D01*
G01*
X262650Y583770D02*
G03*
X262650Y583770I-1250J0D01*
G01*
D12*
X353090Y710474D02*
X429630D01*
X353090Y650530D02*
Y710474D01*
Y650530D02*
X429630D01*
Y710474D01*
X691424Y420400D02*
Y496940D01*
X631480D02*
X691424D01*
X631480Y420400D02*
Y496940D01*
Y420400D02*
X691424D01*
X511084Y411110D02*
Y487650D01*
X451140D02*
X511084D01*
X451140Y411110D02*
Y487650D01*
Y411110D02*
X511084D01*
X323124D02*
Y487650D01*
X263180D02*
X323124D01*
X263180Y411110D02*
Y487650D01*
Y411110D02*
X323124D01*
X121194Y414920D02*
Y491460D01*
X61250D02*
X121194D01*
X61250Y414920D02*
Y491460D01*
Y414920D02*
X121194D01*
X605064Y273950D02*
Y350490D01*
X545120D02*
X605064D01*
X545120Y273950D02*
Y350490D01*
Y273950D02*
X605064D01*
X594904Y413650D02*
Y490190D01*
X534960D02*
X594904D01*
X534960Y413650D02*
Y490190D01*
Y413650D02*
X594904D01*
X419644Y411110D02*
Y487650D01*
X359700D02*
X419644D01*
X359700Y411110D02*
Y487650D01*
Y411110D02*
X419644D01*
X217714Y413650D02*
Y490190D01*
X157770D02*
X217714D01*
X157770Y413650D02*
Y490190D01*
Y413650D02*
X217714D01*
X707934Y273950D02*
Y350490D01*
X647990D02*
X707934D01*
X647990Y273950D02*
Y350490D01*
Y273950D02*
X707934D01*
X489494Y274350D02*
Y350890D01*
X429550D02*
X489494D01*
X429550Y274350D02*
Y350890D01*
Y274350D02*
X489494D01*
X326934Y273950D02*
Y350490D01*
X266990D02*
X326934D01*
X266990Y273950D02*
Y350490D01*
Y273950D02*
X326934D01*
X119924Y285380D02*
Y361920D01*
X59980D02*
X119924D01*
X59980Y285380D02*
Y361920D01*
Y285380D02*
X119924D01*
D13*
X511880Y546730D02*
X615880D01*
Y541730D02*
Y587730D01*
X511880D02*
X615880D01*
X511880Y541730D02*
Y587730D01*
Y541730D02*
X615880D01*
X332810Y550540D02*
X436810D01*
Y545540D02*
Y591540D01*
X332810D02*
X436810D01*
X332810Y545540D02*
Y591540D01*
Y545540D02*
X436810D01*
X163900Y549270D02*
X267900D01*
Y544270D02*
Y590270D01*
X163900D02*
X267900D01*
X163900Y544270D02*
Y590270D01*
Y544270D02*
X267900D01*
D14*
X353568Y720090D02*
Y735325D01*
X361185D01*
X363725Y732786D01*
Y727708D01*
X361185Y725168D01*
X353568D01*
X368803Y720090D02*
X373881D01*
X371342D01*
Y730247D01*
X368803D01*
X381499Y720090D02*
Y730247D01*
X389117D01*
X391656Y727708D01*
Y720090D01*
X648462Y362712D02*
X653540D01*
X651001D01*
Y377947D01*
X648462Y375408D01*
X668775Y362712D02*
Y377947D01*
X661158Y370330D01*
X671315D01*
X676393Y362712D02*
Y365251D01*
X678932D01*
Y362712D01*
X676393D01*
X689089Y375408D02*
X691628Y377947D01*
X696706D01*
X699246Y375408D01*
Y372869D01*
X696706Y370330D01*
X694167D01*
X696706D01*
X699246Y367790D01*
Y365251D01*
X696706Y362712D01*
X691628D01*
X689089Y365251D01*
X704324Y377947D02*
Y367790D01*
X709402Y362712D01*
X714481Y367790D01*
Y377947D01*
X719559Y360173D02*
X729716D01*
X734794Y375408D02*
X737333Y377947D01*
X742412D01*
X744951Y375408D01*
Y372869D01*
X742412Y370330D01*
X739872D01*
X742412D01*
X744951Y367790D01*
Y365251D01*
X742412Y362712D01*
X737333D01*
X734794Y365251D01*
X545592Y362712D02*
X550670D01*
X548131D01*
Y377947D01*
X545592Y375408D01*
X565905Y362712D02*
Y377947D01*
X558288Y370330D01*
X568445D01*
X573523Y362712D02*
Y365251D01*
X576062D01*
Y362712D01*
X573523D01*
X586219Y375408D02*
X588758Y377947D01*
X593836D01*
X596376Y375408D01*
Y372869D01*
X593836Y370330D01*
X591297D01*
X593836D01*
X596376Y367790D01*
Y365251D01*
X593836Y362712D01*
X588758D01*
X586219Y365251D01*
X601454Y377947D02*
Y367790D01*
X606532Y362712D01*
X611611Y367790D01*
Y377947D01*
X616689Y360173D02*
X626846D01*
X642081Y362712D02*
X631924D01*
X642081Y372869D01*
Y375408D01*
X639542Y377947D01*
X634463D01*
X631924Y375408D01*
X631952Y509016D02*
X637030D01*
X634491D01*
Y524251D01*
X631952Y521712D01*
X652265Y509016D02*
Y524251D01*
X644648Y516633D01*
X654805D01*
X659883Y509016D02*
Y511555D01*
X662422D01*
Y509016D01*
X659883D01*
X672579Y521712D02*
X675118Y524251D01*
X680196D01*
X682736Y521712D01*
Y519173D01*
X680196Y516633D01*
X677657D01*
X680196D01*
X682736Y514094D01*
Y511555D01*
X680196Y509016D01*
X675118D01*
X672579Y511555D01*
X687814Y524251D02*
Y514094D01*
X692892Y509016D01*
X697971Y514094D01*
Y524251D01*
X703049Y506477D02*
X713206D01*
X718284Y509016D02*
X723362D01*
X720823D01*
Y524251D01*
X718284Y521712D01*
X513334Y601472D02*
X518412D01*
X515873D01*
Y616707D01*
X513334Y614168D01*
X536187Y601472D02*
X526030D01*
X536187Y611629D01*
Y614168D01*
X533647Y616707D01*
X528569D01*
X526030Y614168D01*
X541265Y616707D02*
Y606550D01*
X546343Y601472D01*
X551422Y606550D01*
Y616707D01*
X571735Y601472D02*
Y616707D01*
X579353D01*
X581892Y614168D01*
Y609090D01*
X579353Y606550D01*
X571735D01*
X576814D02*
X581892Y601472D01*
X594588D02*
X589509D01*
X586970Y604011D01*
Y609090D01*
X589509Y611629D01*
X594588D01*
X597127Y609090D01*
Y606550D01*
X586970D01*
X607284Y596394D02*
X609823D01*
X612362Y598933D01*
Y611629D01*
X604744D01*
X602205Y609090D01*
Y604011D01*
X604744Y601472D01*
X612362D01*
X430022Y362966D02*
X435100D01*
X432561D01*
Y378201D01*
X430022Y375662D01*
X452875Y362966D02*
X442718D01*
X452875Y373123D01*
Y375662D01*
X450335Y378201D01*
X445257D01*
X442718Y375662D01*
X457953Y378201D02*
Y368044D01*
X463031Y362966D01*
X468110Y368044D01*
Y378201D01*
X473188Y360427D02*
X483345D01*
X488423Y375662D02*
X490962Y378201D01*
X496041D01*
X498580Y375662D01*
Y373123D01*
X496041Y370583D01*
X493502D01*
X496041D01*
X498580Y368044D01*
Y365505D01*
X496041Y362966D01*
X490962D01*
X488423Y365505D01*
X535432Y502412D02*
X540510D01*
X537971D01*
Y517647D01*
X535432Y515108D01*
X558285Y502412D02*
X548128D01*
X558285Y512569D01*
Y515108D01*
X555745Y517647D01*
X550667D01*
X548128Y515108D01*
X563363Y517647D02*
Y507490D01*
X568441Y502412D01*
X573520Y507490D01*
Y517647D01*
X578598Y499873D02*
X588755D01*
X603990Y502412D02*
X593833D01*
X603990Y512569D01*
Y515108D01*
X601451Y517647D01*
X596372D01*
X593833Y515108D01*
X451612Y499872D02*
X456690D01*
X454151D01*
Y515107D01*
X451612Y512568D01*
X474465Y499872D02*
X464308D01*
X474465Y510029D01*
Y512568D01*
X471925Y515107D01*
X466847D01*
X464308Y512568D01*
X479543Y515107D02*
Y504950D01*
X484621Y499872D01*
X489700Y504950D01*
Y515107D01*
X494778Y497333D02*
X504935D01*
X510013Y499872D02*
X515092D01*
X512552D01*
Y515107D01*
X510013Y512568D01*
X334264Y607821D02*
X336803Y605282D01*
X341881D01*
X344421Y607821D01*
Y617978D01*
X341881Y620517D01*
X336803D01*
X334264Y617978D01*
Y615439D01*
X336803Y612900D01*
X344421D01*
X349499Y620517D02*
Y610360D01*
X354577Y605282D01*
X359656Y610360D01*
Y620517D01*
X379969Y605282D02*
Y620517D01*
X387587D01*
X390126Y617978D01*
Y612900D01*
X387587Y610360D01*
X379969D01*
X385048D02*
X390126Y605282D01*
X402822D02*
X397743D01*
X395204Y607821D01*
Y612900D01*
X397743Y615439D01*
X402822D01*
X405361Y612900D01*
Y610360D01*
X395204D01*
X415518Y600204D02*
X418057D01*
X420596Y602743D01*
Y615439D01*
X412979D01*
X410439Y612900D01*
Y607821D01*
X412979Y605282D01*
X420596D01*
X267462Y365251D02*
X270001Y362712D01*
X275079D01*
X277619Y365251D01*
Y375408D01*
X275079Y377947D01*
X270001D01*
X267462Y375408D01*
Y372869D01*
X270001Y370330D01*
X277619D01*
X282697Y377947D02*
Y367790D01*
X287775Y362712D01*
X292854Y367790D01*
Y377947D01*
X297932Y360173D02*
X308089D01*
X313167Y375408D02*
X315706Y377947D01*
X320785D01*
X323324Y375408D01*
Y372869D01*
X320785Y370330D01*
X318246D01*
X320785D01*
X323324Y367790D01*
Y365251D01*
X320785Y362712D01*
X315706D01*
X313167Y365251D01*
X360172Y502411D02*
X362711Y499872D01*
X367789D01*
X370329Y502411D01*
Y512568D01*
X367789Y515107D01*
X362711D01*
X360172Y512568D01*
Y510029D01*
X362711Y507490D01*
X370329D01*
X375407Y515107D02*
Y504950D01*
X380485Y499872D01*
X385564Y504950D01*
Y515107D01*
X390642Y497333D02*
X400799D01*
X416034Y499872D02*
X405877D01*
X416034Y510029D01*
Y512568D01*
X413495Y515107D01*
X408416D01*
X405877Y512568D01*
X263652Y502411D02*
X266191Y499872D01*
X271269D01*
X273809Y502411D01*
Y512568D01*
X271269Y515107D01*
X266191D01*
X263652Y512568D01*
Y510029D01*
X266191Y507490D01*
X273809D01*
X278887Y515107D02*
Y504950D01*
X283965Y499872D01*
X289044Y504950D01*
Y515107D01*
X294122Y497333D02*
X304279D01*
X309357Y499872D02*
X314436D01*
X311896D01*
Y515107D01*
X309357Y512568D01*
X175511Y619247D02*
X165354D01*
Y611629D01*
X170432Y614169D01*
X172971D01*
X175511Y611629D01*
Y606551D01*
X172971Y604012D01*
X167893D01*
X165354Y606551D01*
X180589Y619247D02*
Y609090D01*
X185667Y604012D01*
X190746Y609090D01*
Y619247D01*
X211059Y604012D02*
Y619247D01*
X218677D01*
X221216Y616708D01*
Y611629D01*
X218677Y609090D01*
X211059D01*
X216138D02*
X221216Y604012D01*
X233912D02*
X228834D01*
X226294Y606551D01*
Y611629D01*
X228834Y614169D01*
X233912D01*
X236451Y611629D01*
Y609090D01*
X226294D01*
X246608Y598934D02*
X249147D01*
X251686Y601473D01*
Y614169D01*
X244069D01*
X241529Y611629D01*
Y606551D01*
X244069Y604012D01*
X251686D01*
X70609Y389377D02*
X60452D01*
Y381759D01*
X65530Y384299D01*
X68070D01*
X70609Y381759D01*
Y376681D01*
X68070Y374142D01*
X62991D01*
X60452Y376681D01*
X75687Y389377D02*
Y379220D01*
X80765Y374142D01*
X85844Y379220D01*
Y389377D01*
X90922Y371603D02*
X101079D01*
X106157Y386838D02*
X108696Y389377D01*
X113775D01*
X116314Y386838D01*
Y384299D01*
X113775Y381759D01*
X111236D01*
X113775D01*
X116314Y379220D01*
Y376681D01*
X113775Y374142D01*
X108696D01*
X106157Y376681D01*
X168399Y517647D02*
X158242D01*
Y510029D01*
X163320Y512569D01*
X165860D01*
X168399Y510029D01*
Y504951D01*
X165860Y502412D01*
X160781D01*
X158242Y504951D01*
X173477Y517647D02*
Y507490D01*
X178555Y502412D01*
X183634Y507490D01*
Y517647D01*
X188712Y499873D02*
X198869D01*
X214104Y502412D02*
X203947D01*
X214104Y512569D01*
Y515108D01*
X211565Y517647D01*
X206486D01*
X203947Y515108D01*
X71879Y518917D02*
X61722D01*
Y511300D01*
X66800Y513839D01*
X69339D01*
X71879Y511300D01*
Y506221D01*
X69339Y503682D01*
X64261D01*
X61722Y506221D01*
X76957Y518917D02*
Y508760D01*
X82035Y503682D01*
X87114Y508760D01*
Y518917D01*
X92192Y501143D02*
X102349D01*
X107427Y503682D02*
X112506D01*
X109966D01*
Y518917D01*
X107427Y516378D01*
M02*
