G04*
G04 #@! TF.GenerationSoftware,Altium Limited,Altium Designer,24.1.2 (44)*
G04*
G04 Layer_Physical_Order=2*
G04 Layer_Color=16711680*
%FSLAX44Y44*%
%MOMM*%
G71*
G04*
G04 #@! TF.SameCoordinates,F9B8B196-E0EE-4284-85E4-D25C29C198F4*
G04*
G04*
G04 #@! TF.FilePolarity,Positive*
G04*
G01*
G75*
%ADD14C,0.2540*%
%ADD16C,1.4986*%
%ADD19C,3.1000*%
%ADD20C,1.7000*%
%ADD21R,1.7000X1.7000*%
D14*
X522878Y324720D02*
X580390D01*
X464820Y325120D02*
X522878Y324720D01*
X576980Y471170D02*
X666750D01*
X570230Y464420D02*
X576980Y471170D01*
X146050Y439420D02*
X193040D01*
X144780Y440690D02*
X146050Y439420D01*
X96520Y440690D02*
X144780D01*
X530860Y439420D02*
X570230D01*
X528320Y436880D02*
X530860Y439420D01*
X486410Y436880D02*
X528320D01*
X193040Y464420D02*
Y549910D01*
X215900Y572770D01*
X576834Y582676D02*
X589280Y570230D01*
X418846Y582676D02*
X576834D01*
X410210Y574040D02*
X418846Y582676D01*
X397002Y560832D02*
X410210Y574040D01*
X253238Y560832D02*
X397002D01*
X241300Y572770D02*
X253238Y560832D01*
X580390Y324720D02*
X683260D01*
X145288Y464420D02*
X193040D01*
X144018Y465690D02*
X145288Y464420D01*
X96520Y465690D02*
X144018D01*
X246888Y461880D02*
X298450D01*
X244348Y464420D02*
X246888Y461880D01*
X193040Y464420D02*
X244348D01*
X298450Y461880D02*
X394970D01*
X486410D01*
X529590Y464420D02*
X570230D01*
X527050Y461880D02*
X529590Y464420D01*
X486410Y461880D02*
X527050D01*
X580390Y299720D02*
X683260D01*
X298450Y436880D02*
X394970D01*
D16*
X403860Y685800D02*
D03*
X378860D02*
D03*
X666750Y446170D02*
D03*
Y471170D02*
D03*
X486410Y436880D02*
D03*
Y461880D02*
D03*
X298450Y436880D02*
D03*
Y461880D02*
D03*
X96520Y440690D02*
D03*
Y465690D02*
D03*
X580390Y299720D02*
D03*
Y324720D02*
D03*
X570230Y439420D02*
D03*
Y464420D02*
D03*
X394970Y436880D02*
D03*
Y461880D02*
D03*
X193040Y439420D02*
D03*
Y464420D02*
D03*
X683260Y299720D02*
D03*
Y324720D02*
D03*
X464820Y300120D02*
D03*
Y325120D02*
D03*
X302260Y299720D02*
D03*
Y324720D02*
D03*
X95250Y311150D02*
D03*
Y336150D02*
D03*
D19*
X580000Y150000D02*
D03*
X200000D02*
D03*
X580000Y650000D02*
D03*
X200000D02*
D03*
D20*
X538480Y570230D02*
D03*
X563880D02*
D03*
X359410Y574040D02*
D03*
X384810D02*
D03*
X190500Y572770D02*
D03*
X215900D02*
D03*
D21*
X589280Y570230D02*
D03*
X410210Y574040D02*
D03*
X241300Y572770D02*
D03*
M02*
