M48
;Layer_Color=9474304
;FILE_FORMAT=4:4
METRIC,LZ
;TYPE=PLATED
T01F00S00C0.9906
T02F00S00C1.1000
T03F00S00C3.1000
%
T01
X0009525Y0031115
Y0033615
X0030226Y0032472
Y0029972
X0046482Y0030012
Y0032512
X0058039Y0032472
Y0029972
X0068326
Y0032472
X0066675Y0044617
Y0047117
X0057023Y0046442
Y0043942
X0048641Y0043688
Y0046188
X0040386Y006858
X0037886
X0039497Y0046188
Y0043688
X0029845
Y0046188
X0019304Y0046442
Y0043942
X0009652Y0044069
Y0046569
T02
X0041021Y0057404
X0053848Y0057023
X0056388
X0058928
X0038481Y0057404
X0035941
X002413Y0057277
X002159
X001905
T03
X002Y0015
X0058
Y0065
X002
M30
